Alegreya-BlackItalic.ufo
<glyph name="exclam" format="2">
  <advance width="275"/>
  <unicode hex="0021"/>
  <outline>
    <contour>
      <point x="99" y="-9" type="curve" smooth="yes"/>
      <point x="167" y="-9"/>
      <point x="213" y="38"/>
      <point x="213" y="109" type="curve" smooth="yes"/>
      <point x="213" y="160"/>
      <point x="183" y="190"/>
      <point x="131" y="190" type="curve" smooth="yes"/>
      <point x="62" y="190"/>
      <point x="16" y="143"/>
      <point x="16" y="71" type="curve" smooth="yes"/>
      <point x="16" y="20"/>
      <point x="45" y="-9"/>
    </contour>
    <contour>
      <point x="93" y="667" type="line"/>
      <point x="78" y="265" type="line"/>
      <point x="96" y="245" type="line"/>
      <point x="202" y="261" type="line"/>
      <point x="327" y="691" type="line"/>
      <point x="305" y="717" type="line"/>
      <point x="114" y="691" type="line"/>
    </contour>
  </outline>
</glyph>
<glyph name="percent" format="2">
  <advance width="740"/>
  <unicode hex="0025"/>
  <outline>
    <contour>
      <point x="151" y="290" type="curve" smooth="yes"/>
      <point x="259" y="290"/>
      <point x="337" y="369"/>
      <point x="337" y="516" type="curve" smooth="yes"/>
      <point x="337" y="612"/>
      <point x="290" y="659"/>
      <point x="212" y="659" type="curve" smooth="yes"/>
      <point x="104" y="659"/>
      <point x="24" y="580"/>
      <point x="24" y="434" type="curve" smooth="yes"/>
      <point x="24" y="337"/>
      <point x="73" y="290"/>
    </contour>
    <contour>
      <point x="550" y="-12" type="curve" smooth="yes"/>
      <point x="658" y="-12"/>
      <point x="736" y="67"/>
      <point x="736" y="214" type="curve" smooth="yes"/>
      <point x="736" y="310"/>
      <point x="689" y="357"/>
      <point x="611" y="357" type="curve" smooth="yes"/>
      <point x="503" y="357"/>
      <point x="423" y="278"/>
      <point x="423" y="132" type="curve" smooth="yes"/>
      <point x="423" y="35"/>
      <point x="472" y="-12"/>
    </contour>
    <contour>
      <point x="577" y="126" type="curve" smooth="yes"/>
      <point x="528" y="126"/>
      <point x="505" y="139"/>
      <point x="505" y="167" type="curve" smooth="yes"/>
      <point x="505" y="201"/>
      <point x="525" y="215"/>
      <point x="580" y="215" type="curve" smooth="yes"/>
      <point x="629" y="215"/>
      <point x="652" y="203"/>
      <point x="652" y="174" type="curve" smooth="yes"/>
      <point x="652" y="141"/>
      <point x="633" y="126"/>
    </contour>
    <contour>
      <point x="178" y="428" type="curve" smooth="yes"/>
      <point x="129" y="428"/>
      <point x="106" y="441"/>
      <point x="106" y="469" type="curve" smooth="yes"/>
      <point x="106" y="503"/>
      <point x="126" y="517"/>
      <point x="181" y="517" type="curve" smooth="yes"/>
      <point x="230" y="517"/>
      <point x="253" y="505"/>
      <point x="253" y="476" type="curve" smooth="yes"/>
      <point x="253" y="443"/>
      <point x="234" y="428"/>
    </contour>
    <component base="fraction" xOffset="283"/>
  </outline>
</glyph>
<glyph name="quotesingle" format="2">
  <advance width="171"/>
  <unicode hex="0027"/>
  <outline>
    <contour>
      <point x="215" y="647" type="curve"/>
      <point x="208" y="659" type="line"/>
      <point x="73" y="645" type="line"/>
      <point x="71" y="594"/>
      <point x="64" y="495"/>
      <point x="52" y="407" type="curve"/>
      <point x="70" y="401" type="line"/>
      <point x="147" y="426" type="line"/>
      <point x="175" y="508"/>
      <point x="203" y="600"/>
    </contour>
  </outline>
</glyph>
<glyph name="parenleft" format="2">
  <advance width="300"/>
  <unicode hex="0028"/>
  <outline>
    <contour>
      <point x="63" y="336" type="curve" smooth="yes"/>
      <point x="42" y="163" type="line"/>
      <point x="12" y="-79"/>
      <point x="164" y="-146"/>
      <point x="164" y="-146" type="curve"/>
      <point x="176" y="-146" type="line"/>
      <point x="246" y="-86" type="line"/>
      <point x="247" y="-75" type="line"/>
      <point x="247" y="-75"/>
      <point x="177" y="-15"/>
      <point x="201" y="178" type="curve" smooth="yes"/>
      <point x="222" y="351" type="line" smooth="yes"/>
      <point x="243" y="527"/>
      <point x="324" y="576"/>
      <point x="324" y="576" type="curve"/>
      <point x="326" y="585" type="line"/>
      <point x="282" y="649" type="line"/>
      <point x="264" y="649" type="line"/>
      <point x="264" y="649"/>
      <point x="93" y="581"/>
    </contour>
  </outline>
</glyph>
<glyph name="asterisk" format="2">
  <advance width="348"/>
  <unicode hex="002A"/>
  <outline>
    <contour>
      <point x="76" y="681" type="curve"/>
      <point x="65" y="678" type="line"/>
      <point x="51" y="639"/>
      <point x="51" y="585"/>
      <point x="51" y="585" type="curve" smooth="yes"/>
      <point x="51" y="585"/>
      <point x="108" y="571"/>
      <point x="163" y="555" type="curve"/>
      <point x="172" y="562" type="line"/>
      <point x="181" y="611" type="line"/>
      <point x="120" y="657"/>
      <point x="76" y="681"/>
    </contour>
    <contour>
      <point x="70" y="465" type="curve"/>
      <point x="69" y="453" type="line"/>
      <point x="102" y="428"/>
      <point x="154" y="412"/>
      <point x="154" y="412" type="curve" smooth="yes"/>
      <point x="154" y="412"/>
      <point x="184" y="462"/>
      <point x="216" y="510" type="curve"/>
      <point x="213" y="519" type="line"/>
      <point x="168" y="543" type="line"/>
      <point x="106" y="499"/>
      <point x="70" y="465"/>
    </contour>
    <contour>
      <point x="273" y="393" type="curve"/>
      <point x="284" y="388" type="line"/>
      <point x="319" y="411"/>
      <point x="350" y="456"/>
      <point x="350" y="456" type="curve" smooth="yes"/>
      <point x="350" y="456"/>
      <point x="311" y="501"/>
      <point x="277" y="546" type="curve"/>
      <point x="266" y="546" type="line"/>
      <point x="229" y="511" type="line"/>
      <point x="252" y="437"/>
      <point x="273" y="393"/>
    </contour>
    <contour>
      <point x="405" y="564" type="curve"/>
      <point x="413" y="572" type="line"/>
      <point x="402" y="612"/>
      <point x="369" y="656"/>
      <point x="369" y="656" type="curve" smooth="yes"/>
      <point x="369" y="656"/>
      <point x="314" y="634"/>
      <point x="261" y="615" type="curve"/>
      <point x="257" y="604" type="line"/>
      <point x="279" y="558" type="line"/>
      <point x="356" y="557"/>
      <point x="405" y="564"/>
    </contour>
    <contour>
      <point x="284" y="742" type="curve"/>
      <point x="277" y="752" type="line"/>
      <point x="235" y="752"/>
      <point x="183" y="736"/>
      <point x="183" y="736" type="curve" smooth="yes"/>
      <point x="183" y="736"/>
      <point x="189" y="677"/>
      <point x="191" y="620" type="curve"/>
      <point x="199" y="615" type="line"/>
      <point x="249" y="620" type="line"/>
      <point x="273" y="693"/>
      <point x="284" y="742"/>
    </contour>
  </outline>
</glyph>
<glyph name="plus" format="2">
  <advance width="491"/>
  <unicode hex="002B"/>
  <outline>
    <contour>
      <point x="350" y="486" type="curve"/>
      <point x="336" y="493" type="line"/>
      <point x="203" y="480" type="line"/>
      <point x="183" y="323" type="line"/>
      <point x="112" y="323"/>
      <point x="43" y="324"/>
      <point x="43" y="324" type="curve"/>
      <point x="9" y="189" type="line"/>
      <point x="16" y="176" type="line"/>
      <point x="16" y="176"/>
      <point x="90" y="176"/>
      <point x="165" y="177" type="curve"/>
      <point x="155" y="101"/>
      <point x="146" y="27"/>
      <point x="146" y="27" type="curve"/>
      <point x="157" y="18" type="line"/>
      <point x="290" y="36" type="line"/>
      <point x="290" y="36"/>
      <point x="297" y="105"/>
      <point x="306" y="177" type="curve"/>
      <point x="455" y="178" type="line"/>
      <point x="485" y="314" type="line"/>
      <point x="480" y="329" type="line"/>
      <point x="480" y="329"/>
      <point x="398" y="325"/>
      <point x="324" y="323" type="curve"/>
      <point x="335" y="398"/>
      <point x="350" y="486"/>
    </contour>
  </outline>
</glyph>
<glyph name="slash" format="2">
  <advance width="319"/>
  <unicode hex="002F"/>
  <outline>
    <contour>
      <point x="388" y="655" type="curve"/>
      <point x="373" y="675" type="line"/>
      <point x="254" y="675" type="line"/>
      <point x="87" y="226" type="line" smooth="yes"/>
      <point x="31" y="74"/>
      <point x="-38" y="-95"/>
      <point x="-38" y="-95" type="curve"/>
      <point x="-29" y="-110" type="line"/>
      <point x="97" y="-110" type="line"/>
      <point x="97" y="-110"/>
      <point x="156" y="50"/>
      <point x="217" y="215" type="curve" smooth="yes"/>
      <point x="279" y="377"/>
      <point x="388" y="655"/>
    </contour>
  </outline>
</glyph>
<glyph name="one" format="2">
  <advance width="367"/>
  <unicode hex="0031"/>
  <outline>
    <contour>
      <point x="311" y="400" type="curve"/>
      <point x="324" y="436"/>
      <point x="337" y="456"/>
      <point x="359" y="472" type="curve"/>
      <point x="348" y="515" type="line"/>
      <point x="347" y="516"/>
      <point x="267" y="503"/>
      <point x="173" y="493" type="curve" smooth="yes"/>
      <point x="132" y="488"/>
      <point x="89" y="483"/>
      <point x="42" y="479" type="curve"/>
      <point x="25" y="404" type="line"/>
      <point x="33" y="394" type="line"/>
      <point x="33" y="394"/>
      <point x="61" y="397"/>
      <point x="78" y="397" type="curve" smooth="yes"/>
      <point x="115" y="397"/>
      <point x="122" y="386"/>
      <point x="117" y="340" type="curve" smooth="yes"/>
      <point x="92" y="139" type="line" smooth="yes"/>
      <point x="87" y="97"/>
      <point x="59" y="77"/>
      <point x="-2" y="71" type="curve"/>
      <point x="-20" y="-10" type="line"/>
      <point x="-21" y="-11"/>
      <point x="92" y="0"/>
      <point x="165" y="0" type="curve" smooth="yes"/>
      <point x="217" y="0"/>
      <point x="316" y="-6"/>
      <point x="316" y="-6" type="curve"/>
      <point x="341" y="84" type="line"/>
      <point x="338" y="90" type="line"/>
      <point x="338" y="90"/>
      <point x="318" y="88"/>
      <point x="295" y="88" type="curve" smooth="yes"/>
      <point x="274" y="88"/>
      <point x="264" y="103"/>
      <point x="264" y="135" type="curve" smooth="yes"/>
      <point x="264" y="270"/>
      <point x="294" y="351"/>
    </contour>
  </outline>
</glyph>
<glyph name="two" format="2">
  <advance width="479"/>
  <unicode hex="0032"/>
  <outline>
    <contour>
      <point x="-23" y="44" type="line"/>
      <point x="-24" y="-6" type="line"/>
      <point x="50" y="0" type="line"/>
      <point x="151" y="0"/>
      <point x="401" y="-12"/>
      <point x="401" y="-12" type="curve"/>
      <point x="420" y="6" type="line"/>
      <point x="435" y="95"/>
      <point x="473" y="228"/>
      <point x="473" y="228" type="curve"/>
      <point x="356" y="219" type="line"/>
      <point x="342" y="153"/>
      <point x="319" y="128"/>
      <point x="271" y="128" type="curve" smooth="yes"/>
      <point x="244" y="128" type="line"/>
      <point x="240" y="137" type="line"/>
      <point x="416" y="301"/>
      <point x="422" y="325"/>
      <point x="422" y="390" type="curve" smooth="yes"/>
      <point x="422" y="465"/>
      <point x="360" y="515"/>
      <point x="264" y="515" type="curve" smooth="yes"/>
      <point x="187" y="515"/>
      <point x="110" y="479"/>
      <point x="32" y="408" type="curve"/>
      <point x="44" y="304" type="line"/>
      <point x="62" y="304" type="line"/>
      <point x="97" y="344"/>
      <point x="134" y="367"/>
      <point x="165" y="367" type="curve" smooth="yes"/>
      <point x="196" y="367"/>
      <point x="209" y="352"/>
      <point x="205" y="322" type="curve" smooth="yes"/>
      <point x="202" y="285"/>
      <point x="169" y="242"/>
      <point x="54" y="121" type="curve" smooth="yes"/>
    </contour>
  </outline>
</glyph>
<glyph name="five" format="2">
  <advance width="410"/>
  <unicode hex="0035"/>
  <outline>
    <contour>
      <point x="383" y="150" type="curve" smooth="yes"/>
      <point x="383" y="230"/>
      <point x="323" y="272"/>
      <point x="175" y="296" type="curve"/>
      <point x="189" y="348" type="line"/>
      <point x="285" y="348"/>
      <point x="359" y="340"/>
      <point x="359" y="340" type="curve"/>
      <point x="381" y="359" type="line"/>
      <point x="431" y="538" type="line"/>
      <point x="352" y="533" type="line"/>
      <point x="337" y="503"/>
      <point x="322" y="494"/>
      <point x="286" y="493" type="curve" smooth="yes"/>
      <point x="92" y="487" type="line"/>
      <point x="84" y="479" type="line"/>
      <point x="84" y="479"/>
      <point x="58" y="325"/>
      <point x="24" y="180" type="curve"/>
      <point x="32" y="169" type="line"/>
      <point x="142" y="157"/>
      <point x="183" y="140"/>
      <point x="183" y="105" type="curve" smooth="yes"/>
      <point x="183" y="70"/>
      <point x="136" y="44"/>
      <point x="71" y="44" type="curve" smooth="yes"/>
      <point x="35" y="44"/>
      <point x="6" y="50"/>
      <point x="-16" y="62" type="curve"/>
      <point x="-41" y="39" type="line"/>
      <point x="-48" y="-60"/>
      <point x="-26" y="-95"/>
      <point x="40" y="-95" type="curve" smooth="yes"/>
      <point x="213" y="-95"/>
      <point x="383" y="26"/>
    </contour>
  </outline>
</glyph>
<glyph name="six" format="2">
  <advance width="460"/>
  <unicode hex="0036"/>
  <outline>
    <contour>
      <point x="444" y="511" type="curve"/>
      <point x="424" y="592" type="line"/>
      <point x="412" y="599" type="line"/>
      <point x="412" y="599"/>
      <point x="8" y="508"/>
      <point x="8" y="179" type="curve" smooth="yes"/>
      <point x="8" y="63"/>
      <point x="75" y="-12"/>
      <point x="188" y="-12" type="curve" smooth="yes"/>
      <point x="345" y="-12"/>
      <point x="447" y="83"/>
      <point x="447" y="229" type="curve" smooth="yes"/>
      <point x="447" y="321"/>
      <point x="395" y="379"/>
      <point x="308" y="379" type="curve" smooth="yes"/>
      <point x="290" y="372"/>
      <point x="272" y="365"/>
      <point x="252" y="358" type="curve"/>
      <point x="248" y="369" type="line"/>
      <point x="330" y="470"/>
      <point x="444" y="511"/>
    </contour>
    <contour>
      <point x="237" y="259" type="curve" smooth="yes"/>
      <point x="264" y="259"/>
      <point x="276" y="239"/>
      <point x="276" y="199" type="curve" smooth="yes"/>
      <point x="276" y="139"/>
      <point x="263" y="105"/>
      <point x="216" y="105" type="curve" smooth="yes"/>
      <point x="188" y="105"/>
      <point x="173" y="130"/>
      <point x="173" y="176" type="curve" smooth="yes"/>
      <point x="173" y="202"/>
      <point x="178" y="219"/>
      <point x="182" y="242" type="curve"/>
      <point x="195" y="250"/>
      <point x="214" y="259"/>
    </contour>
  </outline>
</glyph>
<glyph name="seven" format="2">
  <advance width="423"/>
  <unicode hex="0037"/>
  <outline>
    <contour>
      <point x="163" y="-95" type="line"/>
      <point x="191" y="-95" type="line"/>
      <point x="246" y="48" type="line"/>
      <point x="324" y="200"/>
      <point x="355" y="263"/>
      <point x="450" y="433" type="curve"/>
      <point x="402" y="503" type="line"/>
      <point x="185" y="503" type="line" smooth="yes"/>
      <point x="124" y="503"/>
      <point x="67" y="507"/>
      <point x="67" y="507" type="curve"/>
      <point x="60" y="502" type="line"/>
      <point x="42" y="396"/>
      <point x="12" y="263"/>
      <point x="12" y="263" type="curve"/>
      <point x="95" y="269" type="line"/>
      <point x="114" y="334"/>
      <point x="127" y="345"/>
      <point x="184" y="351" type="curve" smooth="yes"/>
      <point x="270" y="360" type="line"/>
      <point x="36" y="-29" type="line"/>
      <point x="45" y="-57" type="line"/>
    </contour>
  </outline>
</glyph>
<glyph name="eight" format="2">
  <advance width="458"/>
  <unicode hex="0038"/>
  <outline>
    <contour>
      <point x="3" y="124" type="curve" smooth="yes"/>
      <point x="3" y="45"/>
      <point x="76" y="-12"/>
      <point x="184" y="-12" type="curve" smooth="yes"/>
      <point x="320" y="-12"/>
      <point x="430" y="81"/>
      <point x="430" y="202" type="curve" smooth="yes"/>
      <point x="430" y="263"/>
      <point x="400" y="301"/>
      <point x="364" y="327" type="curve"/>
      <point x="409" y="350"/>
      <point x="457" y="392"/>
      <point x="457" y="464" type="curve" smooth="yes"/>
      <point x="457" y="540"/>
      <point x="385" y="599"/>
      <point x="287" y="599" type="curve" smooth="yes"/>
      <point x="156" y="599"/>
      <point x="45" y="514"/>
      <point x="45" y="401" type="curve" smooth="yes"/>
      <point x="45" y="340"/>
      <point x="73" y="297"/>
      <point x="109" y="266" type="curve"/>
      <point x="59" y="245"/>
      <point x="3" y="203"/>
    </contour>
    <contour>
      <point x="205" y="96" type="curve" smooth="yes"/>
      <point x="174" y="96"/>
      <point x="154" y="120"/>
      <point x="154" y="155" type="curve" smooth="yes"/>
      <point x="154" y="180"/>
      <point x="162" y="202"/>
      <point x="177" y="222" type="curve"/>
      <point x="221" y="196"/>
      <point x="259" y="176"/>
      <point x="259" y="147" type="curve" smooth="yes"/>
      <point x="259" y="116"/>
      <point x="240" y="96"/>
    </contour>
    <contour>
      <point x="215" y="436" type="curve" smooth="yes"/>
      <point x="215" y="463"/>
      <point x="234" y="483"/>
      <point x="263" y="483" type="curve" smooth="yes"/>
      <point x="290" y="483"/>
      <point x="305" y="465"/>
      <point x="305" y="436" type="curve" smooth="yes"/>
      <point x="305" y="410"/>
      <point x="295" y="389"/>
      <point x="282" y="370" type="curve"/>
      <point x="244" y="389"/>
      <point x="215" y="406"/>
    </contour>
  </outline>
</glyph>
<glyph name="nine" format="2">
  <advance width="460"/>
  <unicode hex="0039"/>
  <outline>
    <contour>
      <point x="20" y="-8" type="curve"/>
      <point x="40" y="-89" type="line"/>
      <point x="52" y="-96" type="line"/>
      <point x="52" y="-96"/>
      <point x="456" y="-5"/>
      <point x="456" y="324" type="curve" smooth="yes"/>
      <point x="456" y="440"/>
      <point x="388" y="515"/>
      <point x="275" y="515" type="curve" smooth="yes"/>
      <point x="118" y="515"/>
      <point x="16" y="420"/>
      <point x="16" y="274" type="curve" smooth="yes"/>
      <point x="16" y="182"/>
      <point x="69" y="124"/>
      <point x="155" y="124" type="curve" smooth="yes"/>
      <point x="174" y="131"/>
      <point x="191" y="138"/>
      <point x="211" y="145" type="curve"/>
      <point x="215" y="134" type="line"/>
      <point x="133" y="32"/>
      <point x="20" y="-8"/>
    </contour>
    <contour>
      <point x="226" y="244" type="curve" smooth="yes"/>
      <point x="200" y="244"/>
      <point x="187" y="264"/>
      <point x="187" y="304" type="curve" smooth="yes"/>
      <point x="187" y="364"/>
      <point x="200" y="398"/>
      <point x="248" y="398" type="curve" smooth="yes"/>
      <point x="276" y="398"/>
      <point x="290" y="373"/>
      <point x="290" y="327" type="curve" smooth="yes"/>
      <point x="290" y="305"/>
      <point x="287" y="284"/>
      <point x="280" y="260" type="curve"/>
      <point x="268" y="253"/>
      <point x="248" y="244"/>
    </contour>
  </outline>
</glyph>
<glyph name="less" format="2">
  <advance width="414"/>
  <unicode hex="003C"/>
  <outline>
    <contour>
      <point x="19" y="199" type="line"/>
      <point x="25" y="184" type="line"/>
      <point x="25" y="184"/>
      <point x="128" y="134"/>
      <point x="188" y="105" type="curve" smooth="yes"/>
      <point x="253" y="71"/>
      <point x="312" y="42"/>
      <point x="312" y="42" type="curve"/>
      <point x="379" y="134" type="line"/>
      <point x="372" y="155" type="line"/>
      <point x="372" y="155"/>
      <point x="306" y="187"/>
      <point x="241" y="219" type="curve" smooth="yes"/>
      <point x="152" y="268" type="line"/>
      <point x="153" y="276" type="line"/>
      <point x="241" y="315" type="line"/>
      <point x="316" y="347"/>
      <point x="409" y="383"/>
      <point x="409" y="383" type="curve"/>
      <point x="388" y="488" type="line"/>
      <point x="371" y="499" type="line"/>
      <point x="371" y="499"/>
      <point x="297" y="462"/>
      <point x="219" y="429" type="curve" smooth="yes"/>
      <point x="38" y="352" type="line"/>
    </contour>
  </outline>
</glyph>
<glyph name="equal" format="2">
  <advance width="491"/>
  <unicode hex="003D"/>
  <outline>
    <contour>
      <point x="473" y="214" type="line"/>
      <point x="468" y="229" type="line"/>
      <point x="468" y="229"/>
      <point x="330" y="223"/>
      <point x="252" y="223" type="curve" smooth="yes"/>
      <point x="166" y="223"/>
      <point x="31" y="224"/>
      <point x="31" y="224" type="curve"/>
      <point x="-4" y="89" type="line"/>
      <point x="4" y="76" type="line"/>
      <point x="4" y="76"/>
      <point x="136" y="77"/>
      <point x="223" y="77" type="curve" smooth="yes"/>
      <point x="443" y="78" type="line"/>
    </contour>
    <contour>
      <point x="497" y="414" type="line"/>
      <point x="492" y="429" type="line"/>
      <point x="492" y="429"/>
      <point x="354" y="423"/>
      <point x="277" y="423" type="curve" smooth="yes"/>
      <point x="190" y="423"/>
      <point x="55" y="424"/>
      <point x="55" y="424" type="curve"/>
      <point x="21" y="289" type="line"/>
      <point x="28" y="276" type="line"/>
      <point x="28" y="276"/>
      <point x="160" y="277"/>
      <point x="247" y="277" type="curve" smooth="yes"/>
      <point x="468" y="278" type="line"/>
    </contour>
  </outline>
</glyph>
<glyph name="greater" format="2">
  <advance width="414"/>
  <unicode hex="003E"/>
  <outline>
    <contour>
      <point x="403" y="342" type="line"/>
      <point x="397" y="357" type="line"/>
      <point x="397" y="357"/>
      <point x="294" y="407"/>
      <point x="234" y="436" type="curve" smooth="yes"/>
      <point x="169" y="470"/>
      <point x="111" y="499"/>
      <point x="111" y="499" type="curve"/>
      <point x="44" y="407" type="line"/>
      <point x="50" y="386" type="line"/>
      <point x="50" y="386"/>
      <point x="117" y="354"/>
      <point x="181" y="322" type="curve" smooth="yes"/>
      <point x="271" y="273" type="line"/>
      <point x="270" y="265" type="line"/>
      <point x="181" y="226" type="line"/>
      <point x="107" y="194"/>
      <point x="13" y="158"/>
      <point x="13" y="158" type="curve"/>
      <point x="35" y="53" type="line"/>
      <point x="51" y="42" type="line"/>
      <point x="51" y="42"/>
      <point x="126" y="79"/>
      <point x="204" y="112" type="curve" smooth="yes"/>
      <point x="385" y="189" type="line"/>
    </contour>
  </outline>
</glyph>
<glyph name="question" format="2">
  <advance width="371"/>
  <unicode hex="003F"/>
  <outline>
    <contour>
      <point x="83" y="373" type="line"/>
      <point x="90" y="240" type="line"/>
      <point x="104" y="232" type="line"/>
      <point x="224" y="252" type="line"/>
      <point x="234" y="266" type="line"/>
      <point x="236" y="335" type="line"/>
      <point x="239" y="341" type="line"/>
      <point x="381" y="428"/>
      <point x="422" y="476"/>
      <point x="422" y="546" type="curve" smooth="yes"/>
      <point x="422" y="640"/>
      <point x="311" y="712"/>
      <point x="153" y="716" type="curve"/>
      <point x="135" y="707" type="line"/>
      <point x="80" y="589" type="line"/>
      <point x="92" y="571" type="line"/>
      <point x="188" y="566"/>
      <point x="239" y="540"/>
      <point x="239" y="497" type="curve" smooth="yes"/>
      <point x="239" y="474"/>
      <point x="221" y="453"/>
      <point x="186" y="435" type="curve"/>
      <point x="88" y="388" type="line"/>
    </contour>
    <contour>
      <point x="127" y="-9" type="curve" smooth="yes"/>
      <point x="195" y="-9"/>
      <point x="241" y="38"/>
      <point x="241" y="109" type="curve" smooth="yes"/>
      <point x="241" y="160"/>
      <point x="212" y="190"/>
      <point x="159" y="190" type="curve" smooth="yes"/>
      <point x="90" y="190"/>
      <point x="44" y="143"/>
      <point x="44" y="71" type="curve" smooth="yes"/>
      <point x="44" y="20"/>
      <point x="73" y="-9"/>
    </contour>
  </outline>
</glyph>
<glyph name="at" format="2">
  <advance width="873"/>
  <unicode hex="0040"/>
  <outline>
    <contour>
      <point x="504" y="-12" type="curve" smooth="yes"/>
      <point x="732" y="-12"/>
      <point x="876" y="129"/>
      <point x="876" y="350" type="curve" smooth="yes"/>
      <point x="876" y="550"/>
      <point x="732" y="673"/>
      <point x="497" y="673" type="curve" smooth="yes"/>
      <point x="237" y="673"/>
      <point x="7" y="437"/>
      <point x="7" y="169" type="curve" smooth="yes"/>
      <point x="7" y="-86"/>
      <point x="187" y="-240"/>
      <point x="486" y="-240" type="curve"/>
      <point x="523" y="-176" type="line"/>
      <point x="523" y="-167"/>
      <point x="524" y="-158"/>
      <point x="524" y="-149" type="curve"/>
      <point x="260" y="-149"/>
      <point x="116" y="-25"/>
      <point x="116" y="203" type="curve" smooth="yes"/>
      <point x="116" y="411"/>
      <point x="265" y="567"/>
      <point x="466" y="568" type="curve" smooth="yes"/>
      <point x="654" y="568"/>
      <point x="769" y="470"/>
      <point x="769" y="310" type="curve" smooth="yes"/>
      <point x="769" y="191"/>
      <point x="702" y="104"/>
      <point x="610" y="104" type="curve"/>
      <point x="603" y="112" type="line"/>
      <point x="624" y="240"/>
      <point x="672" y="449"/>
      <point x="672" y="449" type="curve"/>
      <point x="664" y="472" type="line"/>
      <point x="530" y="484" type="line"/>
      <point x="511" y="472" type="line"/>
      <point x="506" y="452" type="line"/>
      <point x="434" y="472" type="line"/>
      <point x="312" y="472"/>
      <point x="180" y="302"/>
      <point x="180" y="145" type="curve" smooth="yes"/>
      <point x="180" y="46"/>
      <point x="236" y="-12"/>
      <point x="331" y="-12" type="curve"/>
      <point x="372" y="16"/>
      <point x="409" y="63"/>
      <point x="464" y="158" type="curve"/>
      <point x="474" y="158" type="line"/>
      <point x="453" y="68"/>
      <point x="450" y="55"/>
      <point x="450" y="42" type="curve" smooth="yes"/>
      <point x="450" y="10"/>
      <point x="472" y="-12"/>
    </contour>
    <contour>
      <point x="377" y="143" type="curve" smooth="yes"/>
      <point x="369" y="143"/>
      <point x="363" y="170"/>
      <point x="363" y="207" type="curve" smooth="yes"/>
      <point x="363" y="281"/>
      <point x="385" y="367"/>
      <point x="404" y="367" type="curve" smooth="yes"/>
      <point x="440" y="367"/>
      <point x="478" y="341"/>
      <point x="478" y="341" type="curve"/>
      <point x="452" y="246"/>
      <point x="399" y="143"/>
    </contour>
  </outline>
</glyph>
<glyph name="B" format="2">
  <advance width="647"/>
  <unicode hex="0042"/>
  <anchor x="330" y="0" name="bottom"/>
  <anchor x="335" y="647" name="top"/>
  <outline>
    <contour>
      <point x="160" y="0" type="curve" smooth="yes"/>
      <point x="190" y="0"/>
      <point x="297" y="-7"/>
      <point x="320" y="-11" type="curve"/>
      <point x="524" y="-11"/>
      <point x="629" y="64"/>
      <point x="629" y="210" type="curve" smooth="yes"/>
      <point x="629" y="268"/>
      <point x="593" y="314"/>
      <point x="525" y="343" type="curve"/>
      <point x="605" y="395"/>
      <point x="639" y="447"/>
      <point x="639" y="515" type="curve" smooth="yes"/>
      <point x="639" y="603"/>
      <point x="560" y="654"/>
      <point x="424" y="654" type="curve" smooth="yes"/>
      <point x="424" y="654"/>
      <point x="275" y="647"/>
      <point x="243" y="647" type="curve" smooth="yes"/>
      <point x="212" y="647"/>
      <point x="76" y="649"/>
      <point x="76" y="649" type="curve"/>
      <point x="55" y="569" type="line"/>
      <point x="65" y="557" type="line"/>
      <point x="65" y="557"/>
      <point x="87" y="559"/>
      <point x="99" y="559" type="curve" smooth="yes"/>
      <point x="115" y="559"/>
      <point x="122" y="543"/>
      <point x="119" y="513" type="curve" smooth="yes"/>
      <point x="74" y="156" type="line" smooth="yes"/>
      <point x="68" y="108"/>
      <point x="51" y="92"/>
      <point x="0" y="83" type="curve"/>
      <point x="-20" y="-7" type="line"/>
      <point x="-20" y="-7"/>
      <point x="98" y="0"/>
    </contour>
    <contour>
      <point x="286" y="260" type="line"/>
      <point x="361" y="260" type="line"/>
      <point x="394" y="248"/>
      <point x="411" y="225"/>
      <point x="411" y="195" type="curve" smooth="yes"/>
      <point x="411" y="143"/>
      <point x="382" y="114"/>
      <point x="332" y="114" type="curve" smooth="yes"/>
      <point x="283" y="114"/>
      <point x="264" y="128"/>
      <point x="269" y="160" type="curve" smooth="yes"/>
    </contour>
    <contour>
      <point x="304" y="389" type="curve"/>
      <point x="304" y="389"/>
      <point x="316" y="470"/>
      <point x="326" y="514" type="curve" smooth="yes"/>
      <point x="328" y="525"/>
      <point x="332" y="528"/>
      <point x="345" y="528" type="curve" smooth="yes"/>
      <point x="401" y="528"/>
      <point x="427" y="509"/>
      <point x="427" y="470" type="curve" smooth="yes"/>
      <point x="427" y="409"/>
      <point x="378" y="378"/>
      <point x="378" y="378" type="curve"/>
      <point x="356" y="378"/>
      <point x="304" y="389"/>
    </contour>
  </outline>
</glyph>
<glyph name="G" format="2">
  <advance width="618"/>
  <unicode hex="0047"/>
  <anchor x="280" y="0" name="bottom"/>
  <anchor x="379" y="647" name="top"/>
  <outline>
    <contour>
      <point x="279" y="-11" type="curve" smooth="yes"/>
      <point x="438" y="-11"/>
      <point x="519" y="22"/>
      <point x="519" y="22" type="curve"/>
      <point x="533" y="38" type="line"/>
      <point x="533" y="38"/>
      <point x="532" y="56"/>
      <point x="532" y="76" type="curve" smooth="yes"/>
      <point x="532" y="94"/>
      <point x="543" y="179"/>
      <point x="552" y="226" type="curve" smooth="yes"/>
      <point x="558" y="262"/>
      <point x="571" y="283"/>
      <point x="600" y="301" type="curve"/>
      <point x="597" y="359" type="line" smooth="yes"/>
      <point x="597" y="357"/>
      <point x="529" y="354"/>
      <point x="489" y="354" type="curve" smooth="yes"/>
      <point x="440" y="354"/>
      <point x="339" y="354"/>
      <point x="339" y="354" type="curve"/>
      <point x="316" y="259" type="line"/>
      <point x="323" y="245" type="line"/>
      <point x="323" y="245"/>
      <point x="338" y="246"/>
      <point x="354" y="246" type="curve" smooth="yes"/>
      <point x="377" y="246"/>
      <point x="382" y="237"/>
      <point x="378" y="205" type="curve" smooth="yes"/>
      <point x="371" y="142" type="line"/>
      <point x="371" y="142"/>
      <point x="349" y="130"/>
      <point x="316" y="130" type="curve" smooth="yes"/>
      <point x="267" y="130"/>
      <point x="248" y="168"/>
      <point x="248" y="268" type="curve" smooth="yes"/>
      <point x="248" y="450"/>
      <point x="276" y="521"/>
      <point x="349" y="521" type="curve" smooth="yes"/>
      <point x="391" y="521"/>
      <point x="415" y="504"/>
      <point x="415" y="468" type="curve" smooth="yes"/>
      <point x="415" y="450"/>
      <point x="404" y="404"/>
      <point x="404" y="404" type="curve"/>
      <point x="560" y="413" type="line"/>
      <point x="582" y="535"/>
      <point x="614" y="613"/>
      <point x="614" y="613" type="curve"/>
      <point x="608" y="633" type="line"/>
      <point x="608" y="633"/>
      <point x="469" y="659"/>
      <point x="386" y="659" type="curve" smooth="yes"/>
      <point x="146" y="659"/>
      <point x="18" y="520"/>
      <point x="18" y="259" type="curve" smooth="yes"/>
      <point x="18" y="86"/>
      <point x="112" y="-11"/>
    </contour>
  </outline>
</glyph>
<glyph name="K" format="2">
  <advance width="676"/>
  <unicode hex="004B"/>
  <anchor x="372" y="0" name="bottom"/>
  <anchor x="412" y="647" name="top"/>
  <outline>
    <contour>
      <point x="116" y="508" type="curve" smooth="yes"/>
      <point x="73" y="162" type="line" smooth="yes"/>
      <point x="67" y="106"/>
      <point x="53" y="91"/>
      <point x="1" y="80" type="curve"/>
      <point x="-17" y="-5" type="line"/>
      <point x="-17" y="-5"/>
      <point x="85" y="0"/>
      <point x="147" y="0" type="curve" smooth="yes"/>
      <point x="188" y="0"/>
      <point x="311" y="-4"/>
      <point x="311" y="-4" type="curve"/>
      <point x="330" y="80" type="line"/>
      <point x="323" y="90" type="line"/>
      <point x="323" y="90"/>
      <point x="313" y="87"/>
      <point x="292" y="87" type="curve" smooth="yes"/>
      <point x="267" y="87"/>
      <point x="263" y="101"/>
      <point x="270" y="156" type="curve" smooth="yes"/>
      <point x="320" y="506" type="line" smooth="yes"/>
      <point x="323" y="539"/>
      <point x="334" y="549"/>
      <point x="385" y="562" type="curve"/>
      <point x="403" y="652" type="line"/>
      <point x="403" y="652"/>
      <point x="273" y="647"/>
      <point x="232" y="647" type="curve" smooth="yes"/>
      <point x="215" y="647"/>
      <point x="74" y="648"/>
      <point x="74" y="648" type="curve"/>
      <point x="56" y="572" type="line"/>
      <point x="63" y="558" type="line"/>
      <point x="63" y="558"/>
      <point x="78" y="559"/>
      <point x="88" y="559" type="curve" smooth="yes"/>
      <point x="115" y="559"/>
      <point x="121" y="549"/>
    </contour>
    <contour>
      <point x="307" y="347" type="line"/>
      <point x="298" y="317" type="line"/>
      <point x="387" y="65" type="line" smooth="yes"/>
      <point x="409" y="4"/>
      <point x="432" y="-16"/>
      <point x="483" y="-16" type="curve" smooth="yes"/>
      <point x="508" y="-16"/>
      <point x="637" y="-5"/>
      <point x="637" y="-5" type="curve"/>
      <point x="657" y="69" type="line"/>
      <point x="648" y="84" type="line"/>
      <point x="610" y="90"/>
      <point x="587" y="115"/>
      <point x="566" y="174" type="curve" smooth="yes"/>
      <point x="501" y="356" type="line"/>
      <point x="561" y="435" type="line" smooth="yes"/>
      <point x="608" y="495"/>
      <point x="647" y="530"/>
      <point x="705" y="562" type="curve"/>
      <point x="723" y="637" type="line"/>
      <point x="716" y="652" type="line"/>
      <point x="716" y="652"/>
      <point x="608" y="647"/>
      <point x="573" y="647" type="curve" smooth="yes"/>
      <point x="528" y="647"/>
      <point x="433" y="650"/>
      <point x="433" y="650" type="curve"/>
      <point x="414" y="568" type="line"/>
      <point x="419" y="558" type="line"/>
      <point x="445" y="556"/>
      <point x="454" y="549"/>
      <point x="454" y="532" type="curve" smooth="yes"/>
      <point x="454" y="518"/>
      <point x="440" y="493"/>
      <point x="420" y="472" type="curve" smooth="yes"/>
    </contour>
  </outline>
</glyph>
<glyph name="L" format="2">
  <advance width="543"/>
  <unicode hex="004C"/>
  <anchor x="243" y="0" name="bottom"/>
  <anchor x="283" y="324" name="center"/>
  <anchor x="252" y="647" name="top"/>
  <anchor x="573" y="647" name="topright"/>
  <outline>
    <contour>
      <point x="189" y="0" type="curve" smooth="yes"/>
      <point x="331" y="0"/>
      <point x="475" y="-7"/>
      <point x="475" y="-7" type="curve"/>
      <point x="492" y="9" type="line"/>
      <point x="518" y="148"/>
      <point x="548" y="276"/>
      <point x="548" y="276" type="curve"/>
      <point x="545" y="281"/>
      <point x="541" y="286"/>
      <point x="538" y="291" type="curve"/>
      <point x="408" y="278" type="line"/>
      <point x="385" y="144"/>
      <point x="364" y="115"/>
      <point x="298" y="115" type="curve" smooth="yes"/>
      <point x="278" y="115"/>
      <point x="269" y="124"/>
      <point x="269" y="147" type="curve" smooth="yes"/>
      <point x="269" y="187"/>
      <point x="305" y="412"/>
      <point x="321" y="502" type="curve" smooth="yes"/>
      <point x="327" y="537"/>
      <point x="346" y="547"/>
      <point x="414" y="554" type="curve"/>
      <point x="437" y="652" type="line"/>
      <point x="437" y="652"/>
      <point x="278" y="647"/>
      <point x="231" y="647" type="curve" smooth="yes"/>
      <point x="178" y="647"/>
      <point x="127" y="647"/>
      <point x="72" y="647" type="curve"/>
      <point x="55" y="572" type="line"/>
      <point x="57" y="567"/>
      <point x="60" y="563"/>
      <point x="62" y="558" type="curve" smooth="yes"/>
      <point x="62" y="558"/>
      <point x="77" y="559"/>
      <point x="87" y="559" type="curve" smooth="yes"/>
      <point x="114" y="559"/>
      <point x="120" y="549"/>
      <point x="115" y="508" type="curve" smooth="yes"/>
      <point x="73" y="170" type="line" smooth="yes"/>
      <point x="66" y="110"/>
      <point x="49" y="90"/>
      <point x="0" y="82" type="curve"/>
      <point x="-20" y="-10" type="line"/>
      <point x="-20" y="-10"/>
      <point x="88" y="0"/>
    </contour>
  </outline>
</glyph>
<glyph name="N" format="2">
  <advance width="718"/>
  <unicode hex="004E"/>
  <anchor x="330" y="0" name="bottom"/>
  <anchor x="409" y="647" name="top"/>
  <outline>
    <contour>
      <point x="496" y="333" type="line"/>
      <point x="481" y="333" type="line"/>
      <point x="481" y="333"/>
      <point x="405" y="489"/>
      <point x="341" y="651" type="curve"/>
      <point x="341" y="651"/>
      <point x="267" y="647"/>
      <point x="213" y="647" type="curve" smooth="yes"/>
      <point x="140" y="647"/>
      <point x="67" y="652"/>
      <point x="67" y="652" type="curve"/>
      <point x="52" y="571" type="line" smooth="yes"/>
      <point x="55" y="566"/>
      <point x="59" y="562"/>
      <point x="62" y="557" type="curve"/>
      <point x="122" y="550"/>
      <point x="132" y="540"/>
      <point x="126" y="494" type="curve"/>
      <point x="72" y="145" type="line" smooth="yes"/>
      <point x="66" y="105"/>
      <point x="48" y="87"/>
      <point x="9" y="82" type="curve"/>
      <point x="-12" y="-8" type="line"/>
      <point x="-12" y="-8"/>
      <point x="73" y="0"/>
      <point x="142" y="0" type="curve" smooth="yes"/>
      <point x="183" y="0"/>
      <point x="293" y="-4"/>
      <point x="293" y="-4" type="curve"/>
      <point x="314" y="81" type="line"/>
      <point x="306" y="90" type="line"/>
      <point x="306" y="90"/>
      <point x="285" y="86"/>
      <point x="274" y="86" type="curve" smooth="yes"/>
      <point x="245" y="86"/>
      <point x="238" y="99"/>
      <point x="242" y="137" type="curve" smooth="yes"/>
      <point x="260" y="315" type="line"/>
      <point x="275" y="315" type="line"/>
      <point x="275" y="315"/>
      <point x="344" y="174"/>
      <point x="425" y="-12" type="curve"/>
      <point x="617" y="0" type="line"/>
      <point x="691" y="497" type="line" smooth="yes"/>
      <point x="697" y="538"/>
      <point x="712" y="554"/>
      <point x="754" y="560" type="curve"/>
      <point x="770" y="650" type="line"/>
      <point x="770" y="649"/>
      <point x="688" y="647"/>
      <point x="633" y="647" type="curve" smooth="yes"/>
      <point x="578" y="647"/>
      <point x="469" y="651"/>
      <point x="469" y="651" type="curve"/>
      <point x="454" y="570" type="line"/>
      <point x="458" y="559" type="line"/>
      <point x="468" y="559"/>
      <point x="478" y="559"/>
      <point x="488" y="559" type="curve" smooth="yes"/>
      <point x="511" y="559"/>
      <point x="517" y="550"/>
      <point x="514" y="516" type="curve"/>
    </contour>
  </outline>
</glyph>
<glyph name="O" format="2">
  <advance width="633"/>
  <unicode hex="004F"/>
  <anchor x="288" y="0" name="bottom"/>
  <anchor x="328" y="324" name="center"/>
  <anchor x="441" y="40" name="ogonek"/>
  <anchor x="367" y="647" name="top"/>
  <anchor x="70" y="647" name="topleft"/>
  <anchor x="663" y="647" name="topright"/>
  <outline>
    <contour>
      <point x="283" y="-12" type="curve" smooth="yes"/>
      <point x="512" y="-12"/>
      <point x="638" y="141"/>
      <point x="638" y="398" type="curve" smooth="yes"/>
      <point x="638" y="571"/>
      <point x="541" y="659"/>
      <point x="372" y="659" type="curve" smooth="yes"/>
      <point x="140" y="659"/>
      <point x="18" y="513"/>
      <point x="18" y="256" type="curve" smooth="yes"/>
      <point x="18" y="82"/>
      <point x="118" y="-12"/>
    </contour>
    <contour>
      <point x="310" y="114" type="curve" smooth="yes"/>
      <point x="267" y="114"/>
      <point x="247" y="152"/>
      <point x="247" y="234" type="curve" smooth="yes"/>
      <point x="247" y="438"/>
      <point x="275" y="522"/>
      <point x="342" y="522" type="curve" smooth="yes"/>
      <point x="386" y="522"/>
      <point x="407" y="484"/>
      <point x="407" y="402" type="curve" smooth="yes"/>
      <point x="407" y="197"/>
      <point x="379" y="114"/>
    </contour>
  </outline>
</glyph>
<glyph name="P" format="2">
  <advance width="591"/>
  <unicode hex="0050"/>
  <anchor x="200" y="0" name="bottom"/>
  <anchor x="317" y="647" name="top"/>
  <outline>
    <contour>
      <point x="74" y="647" type="curve"/>
      <point x="55" y="569" type="line"/>
      <point x="63" y="557" type="line"/>
      <point x="63" y="557"/>
      <point x="83" y="559"/>
      <point x="98" y="559" type="curve" smooth="yes"/>
      <point x="116" y="559"/>
      <point x="121" y="546"/>
      <point x="116" y="505" type="curve" smooth="yes"/>
      <point x="74" y="168" type="line" smooth="yes"/>
      <point x="67" y="112"/>
      <point x="49" y="91"/>
      <point x="1" y="83" type="curve"/>
      <point x="-19" y="-9" type="line"/>
      <point x="-19" y="-9"/>
      <point x="120" y="0"/>
      <point x="164" y="0" type="curve" smooth="yes"/>
      <point x="206" y="0"/>
      <point x="326" y="-4"/>
      <point x="326" y="-4" type="curve"/>
      <point x="346" y="82" type="line"/>
      <point x="345" y="85"/>
      <point x="343" y="87"/>
      <point x="342" y="90" type="curve" smooth="yes"/>
      <point x="342" y="90"/>
      <point x="324" y="88"/>
      <point x="311" y="88" type="curve" smooth="yes"/>
      <point x="271" y="88"/>
      <point x="264" y="106"/>
      <point x="271" y="160" type="curve" smooth="yes"/>
      <point x="277" y="208" type="line"/>
      <point x="360" y="208" type="line" smooth="yes"/>
      <point x="500" y="208"/>
      <point x="635" y="330"/>
      <point x="635" y="473" type="curve" smooth="yes"/>
      <point x="635" y="548"/>
      <point x="588" y="653"/>
      <point x="383" y="653" type="curve" smooth="yes"/>
      <point x="383" y="653"/>
      <point x="259" y="647"/>
      <point x="214" y="647" type="curve" smooth="yes"/>
      <point x="166" y="647"/>
      <point x="123" y="647"/>
    </contour>
    <contour>
      <point x="357" y="321" type="curve"/>
      <point x="294" y="331" type="line"/>
      <point x="303" y="394"/>
      <point x="314" y="455"/>
      <point x="323" y="506" type="curve" smooth="yes"/>
      <point x="326" y="525"/>
      <point x="328" y="528"/>
      <point x="341" y="528" type="curve" smooth="yes"/>
      <point x="400" y="528"/>
      <point x="427" y="505"/>
      <point x="427" y="452" type="curve" smooth="yes"/>
      <point x="427" y="388"/>
      <point x="407" y="339"/>
    </contour>
  </outline>
</glyph>
<glyph name="S" format="2">
  <advance width="536"/>
  <unicode hex="0053"/>
  <anchor x="239" y="0" name="bottom"/>
  <anchor x="338" y="647" name="top"/>
  <outline>
    <contour>
      <point x="195" y="-12" type="curve" smooth="yes"/>
      <point x="396" y="-12"/>
      <point x="519" y="74"/>
      <point x="519" y="216" type="curve" smooth="yes"/>
      <point x="519" y="333"/>
      <point x="408" y="371"/>
      <point x="333" y="407" type="curve" smooth="yes"/>
      <point x="294" y="426"/>
      <point x="265" y="444"/>
      <point x="265" y="472" type="curve" smooth="yes"/>
      <point x="265" y="500"/>
      <point x="291" y="521"/>
      <point x="328" y="521" type="curve" smooth="yes"/>
      <point x="367" y="521"/>
      <point x="390" y="502"/>
      <point x="390" y="463" type="curve" smooth="yes"/>
      <point x="390" y="458"/>
      <point x="387" y="435"/>
      <point x="387" y="435" type="curve"/>
      <point x="398" y="427" type="line"/>
      <point x="516" y="435" type="line"/>
      <point x="534" y="525"/>
      <point x="563" y="609"/>
      <point x="563" y="609" type="curve"/>
      <point x="553" y="631" type="line"/>
      <point x="553" y="631"/>
      <point x="467" y="659"/>
      <point x="360" y="659" type="curve" smooth="yes"/>
      <point x="166" y="659"/>
      <point x="39" y="566"/>
      <point x="39" y="425" type="curve" smooth="yes"/>
      <point x="39" y="323"/>
      <point x="120" y="280"/>
      <point x="191" y="246" type="curve" smooth="yes"/>
      <point x="245" y="221"/>
      <point x="292" y="201"/>
      <point x="292" y="166" type="curve" smooth="yes"/>
      <point x="292" y="139"/>
      <point x="266" y="121"/>
      <point x="227" y="121" type="curve" smooth="yes"/>
      <point x="173" y="121"/>
      <point x="150" y="160"/>
      <point x="156" y="223" type="curve"/>
      <point x="29" y="214" type="line"/>
      <point x="18" y="148"/>
      <point x="-13" y="49"/>
      <point x="-13" y="49" type="curve"/>
      <point x="-3" y="31" type="line"/>
      <point x="-3" y="31"/>
      <point x="80" y="-12"/>
    </contour>
  </outline>
</glyph>
<glyph name="U" format="2">
  <advance width="605"/>
  <unicode hex="0055"/>
  <anchor x="274" y="0" name="bottom"/>
  <anchor x="461" y="40" name="ogonek"/>
  <anchor x="363" y="647" name="top"/>
  <anchor x="635" y="647" name="topright"/>
  <outline>
    <contour>
      <point x="251" y="220" type="curve" smooth="yes"/>
      <point x="292" y="509" type="line" smooth="yes"/>
      <point x="296" y="541"/>
      <point x="310" y="554"/>
      <point x="344" y="558" type="curve"/>
      <point x="365" y="651" type="line"/>
      <point x="365" y="651"/>
      <point x="271" y="647"/>
      <point x="233" y="647" type="curve" smooth="yes"/>
      <point x="155" y="647"/>
      <point x="59" y="650"/>
      <point x="59" y="650" type="curve"/>
      <point x="38" y="561" type="line"/>
      <point x="40" y="557" type="line"/>
      <point x="40" y="557"/>
      <point x="58" y="559"/>
      <point x="68" y="559" type="curve" smooth="yes"/>
      <point x="90" y="559"/>
      <point x="93" y="550"/>
      <point x="88" y="505" type="curve" smooth="yes"/>
      <point x="50" y="199" type="line" smooth="yes"/>
      <point x="48" y="185"/>
      <point x="47" y="172"/>
      <point x="47" y="159" type="curve" smooth="yes"/>
      <point x="47" y="43"/>
      <point x="120" y="-12"/>
      <point x="274" y="-12" type="curve" smooth="yes"/>
      <point x="442" y="-12"/>
      <point x="532" y="68"/>
      <point x="554" y="234" type="curve" smooth="yes"/>
      <point x="589" y="516" type="line" smooth="yes"/>
      <point x="592" y="540"/>
      <point x="598" y="546"/>
      <point x="640" y="560" type="curve"/>
      <point x="659" y="650" type="line"/>
      <point x="659" y="650"/>
      <point x="577" y="647"/>
      <point x="516" y="647" type="curve" smooth="yes"/>
      <point x="481" y="647"/>
      <point x="400" y="650"/>
      <point x="400" y="650" type="curve"/>
      <point x="378" y="561" type="line"/>
      <point x="381" y="557" type="line"/>
      <point x="381" y="557"/>
      <point x="393" y="559"/>
      <point x="402" y="559" type="curve" smooth="yes"/>
      <point x="421" y="559"/>
      <point x="425" y="547"/>
      <point x="420" y="505" type="curve"/>
      <point x="420" y="505"/>
      <point x="392" y="265"/>
      <point x="384" y="203" type="curve" smooth="yes"/>
      <point x="375" y="139"/>
      <point x="354" y="115"/>
      <point x="308" y="115" type="curve" smooth="yes"/>
      <point x="268" y="115"/>
      <point x="248" y="141"/>
      <point x="249" y="192" type="curve" smooth="yes"/>
      <point x="249" y="198"/>
      <point x="250" y="211"/>
    </contour>
  </outline>
</glyph>
<glyph name="V" format="2">
  <advance width="623"/>
  <unicode hex="0056"/>
  <anchor x="283" y="0" name="bottom"/>
  <anchor x="362" y="647" name="top"/>
  <outline>
    <contour>
      <point x="85" y="493" type="curve" smooth="yes"/>
      <point x="97" y="385"/>
      <point x="138" y="-13"/>
      <point x="138" y="-13" type="curve"/>
      <point x="418" y="4" type="line"/>
      <point x="617" y="506" type="line" smooth="yes"/>
      <point x="633" y="545"/>
      <point x="641" y="554"/>
      <point x="663" y="561" type="curve"/>
      <point x="680" y="648" type="line"/>
      <point x="680" y="648"/>
      <point x="616" y="647"/>
      <point x="560" y="647" type="curve" smooth="yes"/>
      <point x="501" y="647"/>
      <point x="410" y="650"/>
      <point x="410" y="650" type="curve"/>
      <point x="392" y="567" type="line"/>
      <point x="399" y="557" type="line"/>
      <point x="423" y="557" type="line" smooth="yes"/>
      <point x="443" y="557"/>
      <point x="449" y="550"/>
      <point x="449" y="537" type="curve" smooth="yes"/>
      <point x="449" y="504"/>
      <point x="348" y="223"/>
      <point x="328" y="168" type="curve"/>
      <point x="306" y="168" type="line"/>
      <point x="306" y="168"/>
      <point x="300" y="423"/>
      <point x="300" y="507" type="curve" smooth="yes"/>
      <point x="300" y="541"/>
      <point x="312" y="552"/>
      <point x="366" y="559" type="curve"/>
      <point x="382" y="643" type="line"/>
      <point x="376" y="652" type="line"/>
      <point x="376" y="652"/>
      <point x="282" y="647"/>
      <point x="188" y="647" type="curve" smooth="yes"/>
      <point x="135" y="647"/>
      <point x="54" y="649"/>
      <point x="54" y="649" type="curve"/>
      <point x="36" y="570" type="line"/>
      <point x="42" y="560" type="line"/>
      <point x="68" y="556"/>
      <point x="79" y="538"/>
    </contour>
  </outline>
</glyph>
<glyph name="W" format="2">
  <advance width="971"/>
  <unicode hex="0057"/>
  <anchor x="457" y="0" name="bottom"/>
  <anchor x="536" y="647" name="top"/>
  <outline>
    <contour>
      <point x="508" y="-13" type="line"/>
      <point x="778" y="4" type="line"/>
      <point x="966" y="506" type="line" smooth="yes"/>
      <point x="980" y="542"/>
      <point x="988" y="553"/>
      <point x="1011" y="561" type="curve"/>
      <point x="1028" y="648" type="line"/>
      <point x="1028" y="648"/>
      <point x="967" y="647"/>
      <point x="913" y="647" type="curve" smooth="yes"/>
      <point x="857" y="647"/>
      <point x="769" y="650"/>
      <point x="769" y="650" type="curve"/>
      <point x="751" y="567" type="line"/>
      <point x="757" y="557" type="line"/>
      <point x="780" y="557" type="line" smooth="yes"/>
      <point x="801" y="557"/>
      <point x="805" y="554"/>
      <point x="805" y="540" type="curve" smooth="yes"/>
      <point x="805" y="518"/>
      <point x="730" y="282"/>
      <point x="687" y="168" type="curve"/>
      <point x="666" y="168" type="line"/>
      <point x="666" y="168"/>
      <point x="660" y="422"/>
      <point x="660" y="508" type="curve" smooth="yes"/>
      <point x="660" y="542"/>
      <point x="674" y="553"/>
      <point x="726" y="559" type="curve"/>
      <point x="743" y="643" type="line"/>
      <point x="736" y="652" type="line"/>
      <point x="736" y="652"/>
      <point x="646" y="647"/>
      <point x="556" y="647" type="curve" smooth="yes"/>
      <point x="498" y="647"/>
      <point x="397" y="649"/>
      <point x="397" y="649" type="curve"/>
      <point x="378" y="570" type="line"/>
      <point x="384" y="560" type="line"/>
      <point x="428" y="560"/>
      <point x="436" y="555"/>
      <point x="433" y="529" type="curve" smooth="yes"/>
      <point x="435" y="534"/>
      <point x="440" y="554"/>
      <point x="426" y="502" type="curve"/>
      <point x="407" y="440"/>
      <point x="346" y="258"/>
      <point x="314" y="168" type="curve"/>
      <point x="293" y="168" type="line"/>
      <point x="293" y="168"/>
      <point x="288" y="422"/>
      <point x="288" y="508" type="curve" smooth="yes"/>
      <point x="288" y="539"/>
      <point x="304" y="551"/>
      <point x="353" y="559" type="curve"/>
      <point x="370" y="643" type="line"/>
      <point x="364" y="652" type="line"/>
      <point x="364" y="652"/>
      <point x="272" y="647"/>
      <point x="183" y="647" type="curve" smooth="yes"/>
      <point x="132" y="647"/>
      <point x="55" y="649"/>
      <point x="55" y="649" type="curve"/>
      <point x="36" y="570" type="line"/>
      <point x="42" y="560" type="line"/>
      <point x="65" y="555"/>
      <point x="74" y="540"/>
      <point x="83" y="493" type="curve" smooth="yes"/>
      <point x="93" y="385"/>
      <point x="131" y="-13"/>
      <point x="131" y="-13" type="curve"/>
      <point x="401" y="4" type="line"/>
      <point x="488" y="272" type="line"/>
      <point x="502" y="272" type="line"/>
    </contour>
  </outline>
</glyph>
<glyph name="Y" format="2">
  <advance width="650"/>
  <unicode hex="0059"/>
  <anchor x="296" y="0" name="bottom"/>
  <anchor x="325" y="201" name="center"/>
  <anchor x="385" y="647" name="top"/>
  <anchor x="70" y="647" name="topleft"/>
  <outline>
    <contour>
      <point x="332" y="533" type="curve" smooth="yes"/>
      <point x="332" y="551"/>
      <point x="345" y="560"/>
      <point x="373" y="560" type="curve"/>
      <point x="392" y="642" type="line"/>
      <point x="386" y="653" type="line"/>
      <point x="386" y="653"/>
      <point x="253" y="646"/>
      <point x="209" y="646" type="curve" smooth="yes"/>
      <point x="177" y="646"/>
      <point x="61" y="648"/>
      <point x="61" y="648" type="curve"/>
      <point x="40" y="557" type="line"/>
      <point x="44" y="551" type="line"/>
      <point x="83" y="532"/>
      <point x="114" y="504"/>
      <point x="128" y="467" type="curve" smooth="yes"/>
      <point x="208" y="268" type="line"/>
      <point x="224" y="229"/>
      <point x="228" y="207"/>
      <point x="224" y="178" type="curve" smooth="yes"/>
      <point x="222" y="162" type="line" smooth="yes"/>
      <point x="215" y="103"/>
      <point x="195" y="89"/>
      <point x="111" y="83" type="curve"/>
      <point x="92" y="-9" type="line"/>
      <point x="92" y="-9"/>
      <point x="230" y="0"/>
      <point x="293" y="0" type="curve" smooth="yes"/>
      <point x="350" y="0"/>
      <point x="497" y="-6"/>
      <point x="497" y="-6" type="curve"/>
      <point x="517" y="88" type="line"/>
      <point x="513" y="94" type="line"/>
      <point x="513" y="94"/>
      <point x="488" y="91"/>
      <point x="463" y="91" type="curve" smooth="yes"/>
      <point x="426" y="91"/>
      <point x="416" y="107"/>
      <point x="422" y="154" type="curve" smooth="yes"/>
      <point x="426" y="188"/>
      <point x="429" y="212"/>
      <point x="448" y="247" type="curve"/>
      <point x="558" y="429" type="line" smooth="yes"/>
      <point x="590" y="485"/>
      <point x="637" y="531"/>
      <point x="680" y="555" type="curve"/>
      <point x="698" y="642" type="line"/>
      <point x="695" y="650" type="line"/>
      <point x="695" y="650"/>
      <point x="635" y="646"/>
      <point x="584" y="646" type="curve" smooth="yes"/>
      <point x="532" y="646"/>
      <point x="483" y="646"/>
      <point x="429" y="646" type="curve"/>
      <point x="411" y="567" type="line"/>
      <point x="413" y="561" type="line"/>
      <point x="438" y="561"/>
      <point x="447" y="557"/>
      <point x="447" y="547" type="curve" smooth="yes"/>
      <point x="447" y="538"/>
      <point x="440" y="521"/>
      <point x="429" y="501" type="curve" smooth="yes"/>
      <point x="379" y="387" type="line"/>
      <point x="365" y="387" type="line"/>
      <point x="351" y="435"/>
      <point x="332" y="514"/>
    </contour>
  </outline>
</glyph>
<glyph name="Z" format="2">
  <advance width="578"/>
  <unicode hex="005A"/>
  <anchor x="260" y="0" name="bottom"/>
  <anchor x="359" y="647" name="top"/>
  <outline>
    <contour>
      <point x="508" y="-3" type="line"/>
      <point x="531" y="19" type="line"/>
      <point x="545" y="119"/>
      <point x="585" y="275"/>
      <point x="585" y="275" type="curve"/>
      <point x="457" y="266" type="line"/>
      <point x="438" y="173"/>
      <point x="409" y="134"/>
      <point x="346" y="124" type="curve" smooth="yes"/>
      <point x="247" y="109" type="line"/>
      <point x="311" y="194"/>
      <point x="460" y="396"/>
      <point x="627" y="595" type="curve"/>
      <point x="609" y="649" type="line"/>
      <point x="284" y="649" type="line"/>
      <point x="109" y="660" type="line"/>
      <point x="97" y="649" type="line"/>
      <point x="83" y="556"/>
      <point x="53" y="409"/>
      <point x="53" y="409" type="curve"/>
      <point x="181" y="418" type="line"/>
      <point x="194" y="503"/>
      <point x="205" y="521"/>
      <point x="282" y="532" type="curve" smooth="yes"/>
      <point x="353" y="542" type="line"/>
      <point x="-21" y="51" type="line"/>
      <point x="8" y="-7" type="line"/>
      <point x="89" y="3" type="line"/>
    </contour>
  </outline>
</glyph>
<glyph name="bracketleft" format="2">
  <advance width="317"/>
  <unicode hex="005B"/>
  <outline>
    <contour>
      <point x="18" y="-116" type="curve"/>
      <point x="263" y="-127" type="line"/>
      <point x="281" y="-44" type="line"/>
      <point x="278" y="-33" type="line"/>
      <point x="188" y="-16" type="line"/>
      <point x="257" y="539" type="line"/>
      <point x="347" y="556" type="line"/>
      <point x="365" y="640" type="line"/>
      <point x="362" y="650" type="line"/>
      <point x="111" y="639" type="line"/>
      <point x="111" y="639"/>
      <point x="87" y="360"/>
      <point x="75" y="260" type="curve" smooth="yes"/>
      <point x="63" y="160"/>
      <point x="18" y="-116"/>
    </contour>
  </outline>
</glyph>
<glyph name="backslash" format="2">
  <advance width="319"/>
  <unicode hex="005C"/>
  <outline>
    <contour>
      <point x="54" y="675" type="line"/>
      <point x="34" y="655" type="line"/>
      <point x="34" y="655"/>
      <point x="75" y="377"/>
      <point x="96" y="215" type="curve" smooth="yes"/>
      <point x="117" y="50"/>
      <point x="137" y="-110"/>
      <point x="137" y="-110" type="curve"/>
      <point x="263" y="-110" type="line"/>
      <point x="276" y="-95" type="line"/>
      <point x="276" y="-95"/>
      <point x="248" y="74"/>
      <point x="229" y="226" type="curve" smooth="yes"/>
      <point x="173" y="675" type="line"/>
    </contour>
  </outline>
</glyph>
<glyph name="bracketright" format="2">
  <advance width="317"/>
  <unicode hex="005D"/>
  <outline>
    <contour>
      <point x="305" y="639" type="curve"/>
      <point x="60" y="650" type="line"/>
      <point x="42" y="567" type="line"/>
      <point x="45" y="556" type="line"/>
      <point x="135" y="539" type="line"/>
      <point x="67" y="-16" type="line"/>
      <point x="-23" y="-33" type="line"/>
      <point x="-42" y="-117" type="line"/>
      <point x="-39" y="-127" type="line"/>
      <point x="212" y="-116" type="line"/>
      <point x="212" y="-116"/>
      <point x="236" y="163"/>
      <point x="248" y="263" type="curve" smooth="yes"/>
      <point x="261" y="363"/>
      <point x="305" y="639"/>
    </contour>
  </outline>
</glyph>
<glyph name="asciicircum" format="2">
  <advance width="454"/>
  <unicode hex="005E"/>
  <outline>
    <contour>
      <point x="340" y="476" type="curve"/>
      <point x="326" y="484" type="line"/>
      <point x="173" y="477" type="line"/>
      <point x="77" y="299" type="line" smooth="yes"/>
      <point x="36" y="222"/>
      <point x="-9" y="148"/>
      <point x="-9" y="148" type="curve"/>
      <point x="0" y="130" type="line"/>
      <point x="101" y="96" type="line"/>
      <point x="101" y="96"/>
      <point x="147" y="189"/>
      <point x="187" y="262" type="curve" smooth="yes"/>
      <point x="235" y="352" type="line"/>
      <point x="242" y="352" type="line"/>
      <point x="276" y="250" type="line"/>
      <point x="298" y="179"/>
      <point x="323" y="105"/>
      <point x="323" y="105" type="curve"/>
      <point x="343" y="96" type="line"/>
      <point x="441" y="152" type="line"/>
      <point x="441" y="152"/>
      <point x="419" y="218"/>
      <point x="395" y="290" type="curve" smooth="yes"/>
      <point x="375" y="359"/>
      <point x="340" y="476"/>
    </contour>
  </outline>
</glyph>
<glyph name="underscore" format="2">
  <advance width="434"/>
  <unicode hex="005F"/>
  <outline>
    <contour>
      <point x="404" y="-112" type="line"/>
      <point x="397" y="-93" type="line"/>
      <point x="397" y="-93"/>
      <point x="375" y="-95"/>
      <point x="312" y="-95" type="curve" smooth="yes"/>
      <point x="272" y="-95"/>
      <point x="234" y="-95"/>
      <point x="194" y="-95" type="curve" smooth="yes"/>
      <point x="116" y="-95"/>
      <point x="41" y="-95"/>
      <point x="-42" y="-95" type="curve"/>
      <point x="-66" y="-200" type="line"/>
      <point x="-57" y="-219" type="line"/>
      <point x="92" y="-219"/>
      <point x="233" y="-218"/>
      <point x="377" y="-218" type="curve"/>
    </contour>
  </outline>
</glyph>
<glyph name="b" format="2">
  <advance width="525"/>
  <unicode hex="0062"/>
  <anchor x="170" y="0" name="bottom"/>
  <anchor x="170" y="463" name="top"/>
  <outline>
    <contour>
      <point x="16" y="74" type="curve"/>
      <point x="30" y="48" type="line"/>
      <point x="74" y="13"/>
      <point x="161" y="-12"/>
      <point x="238" y="-12" type="curve" smooth="yes"/>
      <point x="385" y="-12"/>
      <point x="513" y="137"/>
      <point x="513" y="307" type="curve" smooth="yes"/>
      <point x="513" y="411"/>
      <point x="455" y="472"/>
      <point x="354" y="472" type="curve"/>
      <point x="312" y="443"/>
      <point x="277" y="397"/>
      <point x="224" y="302" type="curve"/>
      <point x="214" y="302" type="line"/>
      <point x="231" y="399"/>
      <point x="262" y="559"/>
      <point x="295" y="722" type="curve"/>
      <point x="279" y="742" type="line"/>
      <point x="198" y="735"/>
      <point x="103" y="730"/>
      <point x="52" y="730" type="curve"/>
      <point x="40" y="648" type="line"/>
      <point x="68" y="648" type="line" smooth="yes"/>
      <point x="91" y="648"/>
      <point x="101" y="638"/>
      <point x="101" y="615" type="curve" smooth="yes"/>
      <point x="101" y="595"/>
      <point x="60" y="336"/>
    </contour>
    <contour>
      <point x="320" y="334" type="curve" smooth="yes"/>
      <point x="328" y="334"/>
      <point x="333" y="307"/>
      <point x="333" y="266" type="curve" smooth="yes"/>
      <point x="333" y="178"/>
      <point x="308" y="110"/>
      <point x="276" y="110" type="curve" smooth="yes"/>
      <point x="260" y="110"/>
      <point x="237" y="121"/>
      <point x="219" y="136" type="curve"/>
      <point x="243" y="228"/>
      <point x="297" y="334"/>
    </contour>
  </outline>
</glyph>
<glyph name="d" format="2">
  <advance width="529"/>
  <unicode hex="0064"/>
  <anchor x="236" y="0" name="bottom"/>
  <anchor x="265" y="236" name="center"/>
  <anchor x="294" y="472" name="top"/>
  <anchor x="538" y="472" name="topright"/>
  <outline>
    <contour>
      <point x="446" y="154" type="curve"/>
      <point x="442" y="157" type="line"/>
      <point x="475" y="339"/>
      <point x="547" y="722"/>
      <point x="547" y="722" type="curve"/>
      <point x="531" y="742" type="line"/>
      <point x="531" y="742"/>
      <point x="395" y="730"/>
      <point x="304" y="730" type="curve"/>
      <point x="292" y="648" type="line"/>
      <point x="320" y="648" type="line" smooth="yes"/>
      <point x="347" y="648"/>
      <point x="356" y="637"/>
      <point x="352" y="605" type="curve" smooth="yes"/>
      <point x="330" y="453" type="line"/>
      <point x="263" y="472" type="line"/>
      <point x="140" y="472"/>
      <point x="9" y="303"/>
      <point x="9" y="145" type="curve" smooth="yes"/>
      <point x="9" y="46"/>
      <point x="65" y="-12"/>
      <point x="160" y="-12" type="curve"/>
      <point x="203" y="19"/>
      <point x="241" y="67"/>
      <point x="293" y="158" type="curve"/>
      <point x="303" y="158" type="line"/>
      <point x="282" y="71"/>
      <point x="278" y="50"/>
      <point x="278" y="36" type="curve" smooth="yes"/>
      <point x="278" y="4"/>
      <point x="294" y="-12"/>
      <point x="329" y="-12" type="curve" smooth="yes"/>
      <point x="386" y="-12"/>
      <point x="431" y="21"/>
      <point x="541" y="143" type="curve"/>
      <point x="521" y="191" type="line"/>
      <point x="498" y="195" type="line"/>
      <point x="447" y="151"/>
      <point x="451" y="154"/>
    </contour>
    <contour>
      <point x="206" y="143" type="curve" smooth="yes"/>
      <point x="198" y="143"/>
      <point x="192" y="169"/>
      <point x="192" y="208" type="curve" smooth="yes"/>
      <point x="192" y="282"/>
      <point x="214" y="367"/>
      <point x="233" y="367" type="curve" smooth="yes"/>
      <point x="269" y="367"/>
      <point x="307" y="341"/>
      <point x="307" y="341" type="curve"/>
      <point x="279" y="244"/>
      <point x="228" y="143"/>
    </contour>
  </outline>
</glyph>
<glyph name="e" format="2">
  <advance width="429"/>
  <unicode hex="0065"/>
  <anchor x="186" y="0" name="bottom"/>
  <anchor x="357" y="10" name="ogonek"/>
  <anchor x="274" y="472" name="top"/>
  <outline>
    <contour>
      <point x="434" y="371" type="curve" smooth="yes"/>
      <point x="434" y="440"/>
      <point x="381" y="483"/>
      <point x="296" y="483" type="curve" smooth="yes"/>
      <point x="142" y="483"/>
      <point x="14" y="343"/>
      <point x="14" y="173" type="curve" smooth="yes"/>
      <point x="14" y="61"/>
      <point x="79" y="-12"/>
      <point x="178" y="-12" type="curve" smooth="yes"/>
      <point x="271" y="-12"/>
      <point x="371" y="53"/>
      <point x="405" y="136" type="curve"/>
      <point x="353" y="194" type="line"/>
      <point x="331" y="197" type="line"/>
      <point x="303" y="148"/>
      <point x="274" y="126"/>
      <point x="240" y="126" type="curve" smooth="yes"/>
      <point x="208" y="126"/>
      <point x="190" y="143"/>
      <point x="185" y="175" type="curve"/>
      <point x="364" y="229"/>
      <point x="434" y="278"/>
    </contour>
    <contour>
      <point x="259" y="363" type="curve" smooth="yes"/>
      <point x="274" y="363"/>
      <point x="284" y="354"/>
      <point x="284" y="340" type="curve" smooth="yes"/>
      <point x="284" y="310"/>
      <point x="251" y="281"/>
      <point x="188" y="257" type="curve"/>
      <point x="198" y="326"/>
      <point x="223" y="363"/>
    </contour>
  </outline>
</glyph>
<glyph name="f" format="2">
  <advance width="326"/>
  <unicode hex="0066"/>
  <anchor x="155" y="0" name="bottom"/>
  <anchor x="263" y="749" name="top"/>
  <outline>
    <contour>
      <point x="6" y="384" type="line"/>
      <point x="9" y="379" type="line"/>
      <point x="83" y="379" type="line"/>
      <point x="94" y="369" type="line"/>
      <point x="69" y="8" type="line" smooth="yes"/>
      <point x="68" y="-3"/>
      <point x="69" y="-27"/>
      <point x="69" y="-46" type="curve" smooth="yes"/>
      <point x="69" y="-100"/>
      <point x="42" y="-127"/>
      <point x="4" y="-127" type="curve" smooth="yes"/>
      <point x="-44" y="-127"/>
      <point x="-63" y="-106"/>
      <point x="-68" y="-48" type="curve"/>
      <point x="-88" y="-48" type="line"/>
      <point x="-111" y="-76"/>
      <point x="-146" y="-141"/>
      <point x="-158" y="-180" type="curve"/>
      <point x="-145" y="-215"/>
      <point x="-88" y="-242"/>
      <point x="-24" y="-242" type="curve" smooth="yes"/>
      <point x="78" y="-242"/>
      <point x="206" y="-119"/>
      <point x="218" y="-6" type="curve" smooth="yes"/>
      <point x="259" y="375" type="line"/>
      <point x="267" y="380" type="line"/>
      <point x="389" y="379" type="line"/>
      <point x="401" y="454" type="line"/>
      <point x="394" y="461" type="line"/>
      <point x="269" y="461" type="line"/>
      <point x="278" y="541" type="line" smooth="yes"/>
      <point x="286" y="603"/>
      <point x="304" y="625"/>
      <point x="347" y="625" type="curve" smooth="yes"/>
      <point x="371" y="625"/>
      <point x="394" y="614"/>
      <point x="435" y="582" type="curve"/>
      <point x="455" y="585" type="line"/>
      <point x="514" y="716" type="line"/>
      <point x="510" y="727" type="line"/>
      <point x="483" y="736"/>
      <point x="438" y="742"/>
      <point x="399" y="742" type="curve" smooth="yes"/>
      <point x="270" y="742"/>
      <point x="119" y="626"/>
      <point x="107" y="511" type="curve" smooth="yes"/>
      <point x="102" y="463" type="line"/>
      <point x="14" y="450" type="line"/>
    </contour>
  </outline>
</glyph>
<glyph name="g" format="2">
  <advance width="501"/>
  <unicode hex="0067"/>
  <anchor x="263" y="-215" name="bottom"/>
  <anchor x="265" y="484" name="top"/>
  <outline>
    <contour>
      <point x="121" y="-242" type="curve" smooth="yes"/>
      <point x="242" y="-241"/>
      <point x="438" y="-76"/>
      <point x="451" y="35" type="curve" smooth="yes"/>
      <point x="459" y="99"/>
      <point x="467" y="250"/>
      <point x="471" y="281" type="curve" smooth="yes"/>
      <point x="476" y="326"/>
      <point x="495" y="404"/>
      <point x="512" y="445" type="curve"/>
      <point x="497" y="473" type="line"/>
      <point x="364" y="484" type="line"/>
      <point x="344" y="473" type="line"/>
      <point x="339" y="452" type="line"/>
      <point x="267" y="473" type="line"/>
      <point x="145" y="473"/>
      <point x="13" y="302"/>
      <point x="13" y="144" type="curve" smooth="yes"/>
      <point x="13" y="74"/>
      <point x="40" y="23"/>
      <point x="88" y="2" type="curve"/>
      <point x="87" y="-5" type="line"/>
      <point x="36" y="-28"/>
      <point x="-38" y="-64"/>
      <point x="-70" y="-82" type="curve"/>
      <point x="-74" y="-95" type="line"/>
      <point x="-84" y="-181"/>
      <point x="-2" y="-243"/>
    </contour>
    <contour>
      <point x="178" y="-117" type="curve" smooth="yes"/>
      <point x="127" y="-117"/>
      <point x="87" y="-97"/>
      <point x="87" y="-72" type="curve" smooth="yes"/>
      <point x="87" y="-66"/>
      <point x="133" y="-30"/>
      <point x="168" y="-8" type="curve" smooth="yes"/>
      <point x="200" y="13"/>
      <point x="225" y="46"/>
      <point x="310" y="177" type="curve"/>
      <point x="320" y="174" type="line"/>
      <point x="299" y="0" type="line" smooth="yes"/>
      <point x="290" y="-76"/>
      <point x="246" y="-117"/>
    </contour>
    <contour>
      <point x="211" y="143" type="curve" smooth="yes"/>
      <point x="201" y="143"/>
      <point x="195" y="169"/>
      <point x="195" y="209" type="curve" smooth="yes"/>
      <point x="195" y="284"/>
      <point x="218" y="367"/>
      <point x="238" y="367" type="curve" smooth="yes"/>
      <point x="273" y="367"/>
      <point x="311" y="342"/>
      <point x="311" y="342" type="curve"/>
      <point x="284" y="246"/>
      <point x="233" y="143"/>
    </contour>
  </outline>
</glyph>
<glyph name="h" format="2">
  <advance width="524"/>
  <unicode hex="0068"/>
  <anchor x="233" y="0" name="bottom"/>
  <anchor x="262" y="236" name="center"/>
  <anchor x="180" y="730" name="top"/>
  <outline>
    <contour>
      <point x="441" y="157" type="curve"/>
      <point x="438" y="160" type="line"/>
      <point x="446" y="202"/>
      <point x="497" y="337"/>
      <point x="497" y="378" type="curve" smooth="yes"/>
      <point x="497" y="445"/>
      <point x="441" y="485"/>
      <point x="348" y="485" type="curve"/>
      <point x="312" y="461"/>
      <point x="272" y="400"/>
      <point x="230" y="303" type="curve"/>
      <point x="223" y="302" type="line"/>
      <point x="253" y="484"/>
      <point x="304" y="721"/>
      <point x="304" y="721" type="curve"/>
      <point x="289" y="742" type="line"/>
      <point x="289" y="742"/>
      <point x="151" y="730"/>
      <point x="61" y="730" type="curve"/>
      <point x="49" y="648" type="line"/>
      <point x="77" y="648" type="line" smooth="yes"/>
      <point x="104" y="648"/>
      <point x="113" y="637"/>
      <point x="109" y="605" type="curve"/>
      <point x="96" y="524"/>
      <point x="15" y="16"/>
      <point x="15" y="16" type="curve"/>
      <point x="35" y="-7" type="line"/>
      <point x="111" y="-7"/>
      <point x="179" y="17"/>
      <point x="183" y="45" type="curve" smooth="yes"/>
      <point x="190" y="104" type="line"/>
      <point x="234" y="229"/>
      <point x="281" y="319"/>
      <point x="303" y="319" type="curve" smooth="yes"/>
      <point x="315" y="319"/>
      <point x="321" y="310"/>
      <point x="321" y="291" type="curve" smooth="yes"/>
      <point x="321" y="253"/>
      <point x="260" y="92"/>
      <point x="260" y="50" type="curve" smooth="yes"/>
      <point x="260" y="9"/>
      <point x="280" y="-9"/>
      <point x="326" y="-9" type="curve" smooth="yes"/>
      <point x="382" y="-9"/>
      <point x="431" y="28"/>
      <point x="536" y="146" type="curve"/>
      <point x="517" y="194" type="line"/>
      <point x="493" y="198" type="line"/>
      <point x="452" y="161"/>
      <point x="446" y="157"/>
    </contour>
  </outline>
</glyph>
<glyph name="l" format="2">
  <advance width="291"/>
  <unicode hex="006C"/>
  <anchor x="117" y="0" name="bottom"/>
  <anchor x="146" y="236" name="center"/>
  <anchor x="181" y="730" name="top"/>
  <anchor x="300" y="472" name="topright"/>
  <outline>
    <contour>
      <point x="203" y="154" type="curve"/>
      <point x="199" y="157" type="line"/>
      <point x="220" y="308"/>
      <point x="304" y="722"/>
      <point x="304" y="722" type="curve"/>
      <point x="288" y="742" type="line"/>
      <point x="288" y="742"/>
      <point x="152" y="730"/>
      <point x="61" y="730" type="curve"/>
      <point x="49" y="648" type="line"/>
      <point x="77" y="648" type="line" smooth="yes"/>
      <point x="100" y="648"/>
      <point x="110" y="638"/>
      <point x="110" y="615" type="curve" smooth="yes"/>
      <point x="110" y="588"/>
      <point x="22" y="90"/>
      <point x="22" y="55" type="curve" smooth="yes"/>
      <point x="22" y="10"/>
      <point x="44" y="-12"/>
      <point x="88" y="-12" type="curve" smooth="yes"/>
      <point x="143" y="-12"/>
      <point x="192" y="22"/>
      <point x="298" y="143" type="curve"/>
      <point x="278" y="191" type="line"/>
      <point x="255" y="195" type="line"/>
      <point x="212" y="157"/>
      <point x="209" y="154"/>
    </contour>
  </outline>
</glyph>
<glyph name="n" format="2">
  <advance width="545"/>
  <unicode hex="006E"/>
  <anchor x="246" y="0" name="bottom"/>
  <anchor x="304" y="472" name="top"/>
  <outline>
    <contour>
      <point x="342" y="-9" type="curve" smooth="yes"/>
      <point x="397" y="-9"/>
      <point x="444" y="26"/>
      <point x="550" y="146" type="curve"/>
      <point x="532" y="194" type="line"/>
      <point x="508" y="198" type="line"/>
      <point x="474" y="165"/>
      <point x="464" y="157"/>
      <point x="458" y="157" type="curve"/>
      <point x="455" y="160" type="line"/>
      <point x="463" y="202"/>
      <point x="512" y="337"/>
      <point x="512" y="378" type="curve" smooth="yes"/>
      <point x="512" y="445"/>
      <point x="457" y="485"/>
      <point x="365" y="485" type="curve"/>
      <point x="331" y="461"/>
      <point x="293" y="399"/>
      <point x="253" y="303" type="curve"/>
      <point x="230" y="300" type="line"/>
      <point x="204" y="79" type="line"/>
      <point x="248" y="217"/>
      <point x="298" y="319"/>
      <point x="320" y="319" type="curve" smooth="yes"/>
      <point x="331" y="319"/>
      <point x="336" y="310"/>
      <point x="336" y="291" type="curve" smooth="yes"/>
      <point x="336" y="253"/>
      <point x="277" y="92"/>
      <point x="277" y="50" type="curve" smooth="yes"/>
      <point x="277" y="9"/>
      <point x="297" y="-9"/>
    </contour>
    <contour>
      <point x="58" y="-7" type="line"/>
      <point x="134" y="-7"/>
      <point x="201" y="17"/>
      <point x="205" y="45" type="curve" smooth="yes"/>
      <point x="214" y="120" type="line"/>
      <point x="244" y="288" type="line"/>
      <point x="250" y="334"/>
      <point x="265" y="409"/>
      <point x="277" y="452" type="curve"/>
      <point x="264" y="473" type="line"/>
      <point x="183" y="466"/>
      <point x="93" y="461"/>
      <point x="44" y="461" type="curve"/>
      <point x="32" y="379" type="line"/>
      <point x="59" y="379" type="line" smooth="yes"/>
      <point x="86" y="379"/>
      <point x="94" y="367"/>
      <point x="89" y="336" type="curve" smooth="yes"/>
      <point x="82" y="294"/>
      <point x="56" y="129"/>
      <point x="38" y="16" type="curve"/>
    </contour>
  </outline>
</glyph>
<glyph name="o" format="2">
  <advance width="486"/>
  <unicode hex="006F"/>
  <anchor x="214" y="0" name="bottom"/>
  <anchor x="243" y="236" name="center"/>
  <anchor x="318" y="41" name="ogonek"/>
  <anchor x="272" y="472" name="top"/>
  <anchor x="495" y="472" name="topright"/>
  <outline>
    <contour>
      <point x="198" y="-12" type="curve" smooth="yes"/>
      <point x="361" y="-12"/>
      <point x="468" y="110"/>
      <point x="468" y="295" type="curve" smooth="yes"/>
      <point x="468" y="417"/>
      <point x="405" y="484"/>
      <point x="289" y="484" type="curve" smooth="yes"/>
      <point x="126" y="484"/>
      <point x="19" y="365"/>
      <point x="19" y="184" type="curve" smooth="yes"/>
      <point x="19" y="59"/>
      <point x="84" y="-12"/>
    </contour>
    <contour>
      <point x="237" y="95" type="curve" smooth="yes"/>
      <point x="208" y="95"/>
      <point x="198" y="125"/>
      <point x="198" y="215" type="curve" smooth="yes"/>
      <point x="198" y="327"/>
      <point x="211" y="364"/>
      <point x="250" y="364" type="curve" smooth="yes"/>
      <point x="279" y="364"/>
      <point x="288" y="333"/>
      <point x="288" y="259" type="curve" smooth="yes"/>
      <point x="288" y="130"/>
      <point x="275" y="95"/>
    </contour>
  </outline>
</glyph>
<glyph name="s" format="2">
  <advance width="402"/>
  <unicode hex="0073"/>
  <anchor x="172" y="0" name="bottom"/>
  <anchor x="230" y="472" name="top"/>
  <outline>
    <contour>
      <point x="80" y="178" type="curve"/>
      <point x="53" y="180" type="line"/>
      <point x="27" y="150"/>
      <point x="-1" y="90"/>
      <point x="-7" y="53" type="curve"/>
      <point x="6" y="15"/>
      <point x="73" y="-12"/>
      <point x="153" y="-12" type="curve" smooth="yes"/>
      <point x="290" y="-12"/>
      <point x="391" y="64"/>
      <point x="391" y="168" type="curve" smooth="yes"/>
      <point x="391" y="254"/>
      <point x="310" y="277"/>
      <point x="264" y="301" type="curve" smooth="yes"/>
      <point x="246" y="310"/>
      <point x="234" y="319"/>
      <point x="234" y="333" type="curve" smooth="yes"/>
      <point x="234" y="349"/>
      <point x="249" y="361"/>
      <point x="268" y="361" type="curve" smooth="yes"/>
      <point x="291" y="361"/>
      <point x="314" y="343"/>
      <point x="328" y="314" type="curve"/>
      <point x="353" y="314" type="line"/>
      <point x="373" y="346"/>
      <point x="394" y="388"/>
      <point x="416" y="442" type="curve"/>
      <point x="382" y="468"/>
      <point x="324" y="484"/>
      <point x="266" y="484" type="curve" smooth="yes"/>
      <point x="137" y="484"/>
      <point x="42" y="407"/>
      <point x="42" y="301" type="curve" smooth="yes"/>
      <point x="42" y="230"/>
      <point x="93" y="202"/>
      <point x="137" y="181" type="curve" smooth="yes"/>
      <point x="171" y="165"/>
      <point x="202" y="153"/>
      <point x="202" y="131" type="curve" smooth="yes"/>
      <point x="202" y="115"/>
      <point x="188" y="106"/>
      <point x="162" y="106" type="curve" smooth="yes"/>
      <point x="120" y="106"/>
      <point x="84" y="138"/>
    </contour>
  </outline>
</glyph>
<glyph name="t" format="2">
  <advance width="331"/>
  <unicode hex="0074"/>
  <anchor x="137" y="0" name="bottom"/>
  <anchor x="166" y="236" name="center"/>
  <anchor x="205" y="562" name="top"/>
  <anchor x="320" y="472" name="topright"/>
  <outline>
    <contour>
      <point x="313" y="191" type="line"/>
      <point x="291" y="195" type="line"/>
      <point x="261" y="161"/>
      <point x="246" y="150"/>
      <point x="233" y="150" type="curve" smooth="yes"/>
      <point x="218" y="150"/>
      <point x="213" y="159"/>
      <point x="215" y="180" type="curve"/>
      <point x="250" y="372" type="line"/>
      <point x="263" y="380" type="line"/>
      <point x="357" y="379" type="line"/>
      <point x="369" y="454" type="line"/>
      <point x="362" y="461" type="line"/>
      <point x="267" y="461" type="line"/>
      <point x="281" y="529"/>
      <point x="298" y="595"/>
      <point x="298" y="595" type="curve"/>
      <point x="284" y="607" type="line"/>
      <point x="116" y="572" type="line"/>
      <point x="116" y="572"/>
      <point x="109" y="512"/>
      <point x="102" y="461" type="curve"/>
      <point x="30" y="450" type="line"/>
      <point x="22" y="384" type="line"/>
      <point x="25" y="379" type="line"/>
      <point x="79" y="379" type="line"/>
      <point x="88" y="371" type="line"/>
      <point x="44" y="123" type="line"/>
      <point x="34" y="38"/>
      <point x="83" y="-12"/>
      <point x="176" y="-12" type="curve" smooth="yes"/>
      <point x="206" y="-12"/>
      <point x="269" y="49"/>
      <point x="334" y="141" type="curve"/>
    </contour>
  </outline>
</glyph>
<glyph name="v" format="2">
  <advance width="482"/>
  <unicode hex="0076"/>
  <anchor x="204" y="0" name="bottom"/>
  <anchor x="273" y="474" name="top"/>
  <outline>
    <contour>
      <point x="116" y="-12" type="line"/>
      <point x="289" y="0" type="line"/>
      <point x="426" y="190"/>
      <point x="487" y="309"/>
      <point x="487" y="385" type="curve" smooth="yes"/>
      <point x="487" y="427"/>
      <point x="477" y="464"/>
      <point x="460" y="484" type="curve"/>
      <point x="272" y="457" type="line"/>
      <point x="261" y="409" type="line"/>
      <point x="294" y="397"/>
      <point x="313" y="371"/>
      <point x="313" y="340" type="curve" smooth="yes"/>
      <point x="313" y="307"/>
      <point x="295" y="249"/>
      <point x="254" y="145" type="curve"/>
      <point x="237" y="145" type="line"/>
      <point x="237" y="259"/>
      <point x="232" y="383"/>
      <point x="224" y="467" type="curve"/>
      <point x="213" y="476" type="line"/>
      <point x="213" y="476"/>
      <point x="89" y="469"/>
      <point x="5" y="460" type="curve"/>
      <point x="-1" y="381" type="line"/>
      <point x="-1" y="381"/>
      <point x="18" y="382"/>
      <point x="31" y="382" type="curve" smooth="yes"/>
      <point x="46" y="382"/>
      <point x="53" y="374"/>
      <point x="57" y="352" type="curve" smooth="yes"/>
      <point x="72" y="272"/>
      <point x="90" y="123"/>
      <point x="98" y="8" type="curve"/>
    </contour>
  </outline>
</glyph>
<glyph name="w" format="2">
  <advance width="725"/>
  <unicode hex="0077"/>
  <outline>
    <contour>
      <point x="254" y="145" type="curve"/>
      <point x="237" y="145" type="line"/>
      <point x="237" y="259"/>
      <point x="232" y="383"/>
      <point x="224" y="467" type="curve"/>
      <point x="213" y="476" type="line"/>
      <point x="130" y="471"/>
      <point x="50" y="465"/>
      <point x="5" y="460" type="curve"/>
      <point x="-1" y="381" type="line"/>
      <point x="7" y="381"/>
      <point x="22" y="382"/>
      <point x="31" y="382" type="curve" smooth="yes"/>
      <point x="46" y="382"/>
      <point x="53" y="374"/>
      <point x="57" y="352" type="curve"/>
      <point x="72" y="268"/>
      <point x="90" y="119"/>
      <point x="98" y="8" type="curve"/>
      <point x="116" y="-12" type="line"/>
      <point x="279" y="0" type="line"/>
      <point x="298" y="35"/>
      <point x="326" y="92"/>
      <point x="348" y="143" type="curve"/>
      <point x="359" y="143" type="line"/>
      <point x="371" y="8" type="line"/>
      <point x="389" y="-12" type="line"/>
      <point x="532" y="0" type="line"/>
      <point x="669" y="190"/>
      <point x="730" y="308"/>
      <point x="730" y="382" type="curve" smooth="yes"/>
      <point x="730" y="423"/>
      <point x="719" y="464"/>
      <point x="703" y="484" type="curve"/>
      <point x="515" y="457" type="line"/>
      <point x="504" y="409" type="line"/>
      <point x="537" y="397"/>
      <point x="556" y="371"/>
      <point x="556" y="340" type="curve" smooth="yes"/>
      <point x="556" y="308"/>
      <point x="539" y="253"/>
      <point x="497" y="145" type="curve"/>
      <point x="480" y="145" type="line"/>
      <point x="468" y="326" type="line"/>
      <point x="478" y="360"/>
      <point x="480" y="371"/>
      <point x="480" y="391" type="curve" smooth="yes"/>
      <point x="480" y="428"/>
      <point x="469" y="464"/>
      <point x="452" y="484" type="curve"/>
      <point x="300" y="452" type="line"/>
      <point x="290" y="433" type="line"/>
      <point x="313" y="312" type="line"/>
      <point x="301" y="273"/>
      <point x="283" y="221"/>
    </contour>
  </outline>
</glyph>
<glyph name="y" format="2">
  <advance width="479"/>
  <unicode hex="0079"/>
  <anchor x="382" y="5" name="bottom"/>
  <anchor x="269" y="472" name="top"/>
  <outline>
    <contour>
      <point x="271" y="457" type="line"/>
      <point x="260" y="409" type="line"/>
      <point x="292" y="397"/>
      <point x="311" y="371"/>
      <point x="311" y="340" type="curve" smooth="yes"/>
      <point x="311" y="301"/>
      <point x="284" y="214"/>
      <point x="248" y="133" type="curve"/>
      <point x="234" y="133" type="line"/>
      <point x="233" y="304"/>
      <point x="231" y="402"/>
      <point x="227" y="467" type="curve"/>
      <point x="216" y="476" type="line"/>
      <point x="10" y="460" type="line"/>
      <point x="4" y="381" type="line"/>
      <point x="11" y="381"/>
      <point x="23" y="382"/>
      <point x="30" y="382" type="curve" smooth="yes"/>
      <point x="47" y="382"/>
      <point x="55" y="374"/>
      <point x="60" y="352" type="curve" smooth="yes"/>
      <point x="71" y="304"/>
      <point x="94" y="141"/>
      <point x="119" y="-56" type="curve"/>
      <point x="48" y="-130"/>
      <point x="13" y="-131"/>
      <point x="-44" y="-60" type="curve"/>
      <point x="-59" y="-61" type="line"/>
      <point x="-91" y="-99"/>
      <point x="-111" y="-140"/>
      <point x="-124" y="-182" type="curve"/>
      <point x="-112" y="-217"/>
      <point x="-66" y="-242"/>
      <point x="-14" y="-242" type="curve" smooth="yes"/>
      <point x="75" y="-242"/>
      <point x="164" y="-171"/>
      <point x="289" y="0" type="curve" smooth="yes"/>
      <point x="420" y="180"/>
      <point x="484" y="304"/>
      <point x="484" y="386" type="curve" smooth="yes"/>
      <point x="484" y="428"/>
      <point x="475" y="464"/>
      <point x="459" y="484" type="curve"/>
    </contour>
  </outline>
</glyph>
<glyph name="braceleft" format="2">
  <advance width="326"/>
  <unicode hex="007B"/>
  <outline>
    <contour>
      <point x="53" y="311" type="curve"/>
      <point x="39" y="235" type="line"/>
      <point x="79" y="223"/>
      <point x="100" y="201"/>
      <point x="100" y="170" type="curve" smooth="yes"/>
      <point x="100" y="125"/>
      <point x="25" y="46"/>
      <point x="25" y="-17" type="curve" smooth="yes"/>
      <point x="25" y="-77"/>
      <point x="81" y="-123"/>
      <point x="158" y="-123" type="curve" smooth="yes"/>
      <point x="229" y="-123"/>
      <point x="268" y="-100"/>
      <point x="268" y="-100" type="curve"/>
      <point x="292" y="-17" type="line"/>
      <point x="281" y="-4" type="line"/>
      <point x="281" y="-4"/>
      <point x="266" y="-9"/>
      <point x="251" y="-9" type="curve" smooth="yes"/>
      <point x="222" y="-9"/>
      <point x="204" y="10"/>
      <point x="204" y="40" type="curve" smooth="yes"/>
      <point x="204" y="81"/>
      <point x="250" y="159"/>
      <point x="250" y="206" type="curve" smooth="yes"/>
      <point x="250" y="243"/>
      <point x="230" y="271"/>
      <point x="189" y="285" type="curve"/>
      <point x="190" y="290" type="line"/>
      <point x="242" y="303"/>
      <point x="272" y="339"/>
      <point x="272" y="385" type="curve" smooth="yes"/>
      <point x="272" y="417"/>
      <point x="260" y="466"/>
      <point x="260" y="495" type="curve" smooth="yes"/>
      <point x="260" y="531"/>
      <point x="281" y="553"/>
      <point x="315" y="553" type="curve" smooth="yes"/>
      <point x="329" y="553"/>
      <point x="348" y="548"/>
      <point x="348" y="548" type="curve"/>
      <point x="376" y="631" type="line"/>
      <point x="368" y="647" type="line"/>
      <point x="368" y="647"/>
      <point x="321" y="659"/>
      <point x="280" y="659" type="curve" smooth="yes"/>
      <point x="172" y="659"/>
      <point x="93" y="607"/>
      <point x="93" y="533" type="curve" smooth="yes"/>
      <point x="93" y="485"/>
      <point x="126" y="421"/>
      <point x="126" y="382" type="curve" smooth="yes"/>
      <point x="126" y="351"/>
      <point x="99" y="325"/>
    </contour>
  </outline>
</glyph>
<glyph name="bar" format="2">
  <advance width="280"/>
  <unicode hex="007C"/>
  <outline>
    <contour>
      <point x="276" y="791" type="curve"/>
      <point x="257" y="807" type="line"/>
      <point x="143" y="796" type="line"/>
      <point x="78" y="276" type="line" smooth="yes"/>
      <point x="55" y="97"/>
      <point x="12" y="-253"/>
      <point x="12" y="-253" type="curve"/>
      <point x="25" y="-269" type="line"/>
      <point x="143" y="-258" type="line"/>
      <point x="143" y="-258"/>
      <point x="188" y="119"/>
      <point x="209" y="291" type="curve" smooth="yes"/>
      <point x="229" y="457"/>
      <point x="276" y="791"/>
    </contour>
  </outline>
</glyph>
<glyph name="asciitilde" format="2">
  <advance width="490"/>
  <unicode hex="007E"/>
  <outline>
    <contour>
      <point x="46" y="151" type="line"/>
      <point x="62" y="151" type="line"/>
      <point x="62" y="151"/>
      <point x="126" y="209"/>
      <point x="156" y="209" type="curve" smooth="yes"/>
      <point x="195" y="209"/>
      <point x="303" y="175"/>
      <point x="347" y="175" type="curve"/>
      <point x="369" y="179" type="line"/>
      <point x="489" y="294" type="line"/>
      <point x="491" y="310" type="line"/>
      <point x="449" y="366" type="line"/>
      <point x="433" y="366" type="line"/>
      <point x="433" y="366"/>
      <point x="369" y="308"/>
      <point x="339" y="308" type="curve" smooth="yes"/>
      <point x="300" y="308"/>
      <point x="192" y="342"/>
      <point x="148" y="342" type="curve"/>
      <point x="126" y="338" type="line"/>
      <point x="6" y="223" type="line"/>
      <point x="4" y="207" type="line"/>
    </contour>
  </outline>
</glyph>
<glyph name="exclamdown" format="2">
  <advance width="275"/>
  <unicode hex="00A1"/>
  <outline>
    <contour>
      <point x="177" y="484" type="curve" smooth="yes"/>
      <point x="109" y="484"/>
      <point x="63" y="437"/>
      <point x="63" y="366" type="curve" smooth="yes"/>
      <point x="63" y="315"/>
      <point x="92" y="285"/>
      <point x="145" y="285" type="curve" smooth="yes"/>
      <point x="214" y="285"/>
      <point x="260" y="332"/>
      <point x="260" y="404" type="curve" smooth="yes"/>
      <point x="260" y="455"/>
      <point x="231" y="484"/>
    </contour>
    <contour>
      <point x="183" y="-192" type="line"/>
      <point x="198" y="210" type="line"/>
      <point x="180" y="230" type="line"/>
      <point x="74" y="214" type="line"/>
      <point x="-51" y="-216" type="line"/>
      <point x="-29" y="-242" type="line"/>
      <point x="162" y="-216" type="line"/>
    </contour>
  </outline>
</glyph>
<glyph name="currency" format="2">
  <advance width="486"/>
  <unicode hex="00A4"/>
  <outline>
    <contour>
      <point x="88" y="322" type="curve" smooth="yes"/>
      <point x="88" y="308"/>
      <point x="89" y="292"/>
      <point x="92" y="280" type="curve"/>
      <point x="64" y="258"/>
      <point x="38" y="236"/>
      <point x="8" y="214" type="curve"/>
      <point x="73" y="109" type="line"/>
      <point x="96" y="105" type="line"/>
      <point x="96" y="105"/>
      <point x="135" y="144"/>
      <point x="173" y="184" type="curve"/>
      <point x="192" y="175"/>
      <point x="214" y="170"/>
      <point x="237" y="170" type="curve" smooth="yes"/>
      <point x="257" y="170"/>
      <point x="278" y="174"/>
      <point x="297" y="181" type="curve"/>
      <point x="351" y="107" type="line"/>
      <point x="465" y="184" type="line"/>
      <point x="472" y="207" type="line"/>
      <point x="472" y="207"/>
      <point x="439" y="241"/>
      <point x="405" y="274" type="curve"/>
      <point x="420" y="302"/>
      <point x="428" y="329"/>
      <point x="428" y="360" type="curve" smooth="yes"/>
      <point x="428" y="376"/>
      <point x="426" y="394"/>
      <point x="423" y="408" type="curve"/>
      <point x="503" y="472" type="line"/>
      <point x="439" y="577" type="line"/>
      <point x="416" y="581" type="line"/>
      <point x="416" y="581"/>
      <point x="377" y="541"/>
      <point x="340" y="502" type="curve"/>
      <point x="321" y="510"/>
      <point x="301" y="515"/>
      <point x="279" y="515" type="curve" smooth="yes"/>
      <point x="257" y="515"/>
      <point x="235" y="510"/>
      <point x="215" y="502" type="curve"/>
      <point x="198" y="528"/>
      <point x="180" y="553"/>
      <point x="161" y="579" type="curve"/>
      <point x="46" y="502" type="line"/>
      <point x="39" y="479" type="line"/>
      <point x="39" y="479"/>
      <point x="74" y="442"/>
      <point x="108" y="407" type="curve"/>
      <point x="95" y="379"/>
      <point x="88" y="351"/>
    </contour>
    <contour>
      <point x="187" y="334" type="curve" smooth="yes"/>
      <point x="187" y="379"/>
      <point x="225" y="417"/>
      <point x="267" y="417" type="curve" smooth="yes"/>
      <point x="303" y="417"/>
      <point x="330" y="387"/>
      <point x="330" y="350" type="curve" smooth="yes"/>
      <point x="330" y="305"/>
      <point x="291" y="268"/>
      <point x="249" y="268" type="curve" smooth="yes"/>
      <point x="213" y="268"/>
      <point x="187" y="297"/>
    </contour>
  </outline>
</glyph>
<glyph name="yen" format="2">
  <advance width="613"/>
  <unicode hex="00A5"/>
  <outline>
    <contour>
      <point x="307" y="413" type="curve" smooth="yes"/>
      <point x="307" y="423"/>
      <point x="312" y="429"/>
      <point x="336" y="429" type="curve"/>
      <point x="352" y="499" type="line"/>
      <point x="348" y="509" type="line" smooth="yes"/>
      <point x="338" y="506"/>
      <point x="163" y="503"/>
      <point x="178" y="503" type="curve" smooth="yes"/>
      <point x="140" y="503"/>
      <point x="70" y="505"/>
      <point x="70" y="505" type="curve"/>
      <point x="67" y="492"/>
      <point x="63" y="479"/>
      <point x="61" y="466" type="curve"/>
      <point x="57" y="453"/>
      <point x="55" y="440"/>
      <point x="52" y="427" type="curve"/>
      <point x="55" y="404"/>
      <point x="124" y="362"/>
      <point x="131" y="346" type="curve"/>
      <point x="74" y="346" type="line"/>
      <point x="52" y="261" type="line"/>
      <point x="61" y="253" type="line"/>
      <point x="61" y="253"/>
      <point x="111" y="253"/>
      <point x="177" y="254" type="curve"/>
      <point x="187" y="227" type="line" smooth="yes"/>
      <point x="190" y="220"/>
      <point x="192" y="214"/>
      <point x="195" y="207" type="curve"/>
      <point x="54" y="207" type="line"/>
      <point x="32" y="122" type="line"/>
      <point x="41" y="114" type="line"/>
      <point x="41" y="114"/>
      <point x="115" y="114"/>
      <point x="198" y="115" type="curve"/>
      <point x="189" y="83"/>
      <point x="168" y="75"/>
      <point x="110" y="71" type="curve"/>
      <point x="94" y="-7" type="line"/>
      <point x="94" y="-7"/>
      <point x="216" y="0"/>
      <point x="270" y="0" type="curve" smooth="yes"/>
      <point x="317" y="0"/>
      <point x="445" y="-5"/>
      <point x="445" y="-5" type="curve"/>
      <point x="461" y="75" type="line"/>
      <point x="457" y="80" type="line"/>
      <point x="457" y="80"/>
      <point x="436" y="77"/>
      <point x="415" y="77" type="curve" smooth="yes"/>
      <point x="391" y="77"/>
      <point x="377" y="86"/>
      <point x="377" y="106" type="curve" smooth="yes"/>
      <point x="377" y="109"/>
      <point x="377" y="115"/>
      <point x="377" y="115" type="curve"/>
      <point x="547" y="115" type="line"/>
      <point x="564" y="201" type="line"/>
      <point x="557" y="211" type="line"/>
      <point x="557" y="211"/>
      <point x="488" y="209"/>
      <point x="412" y="208" type="curve"/>
      <point x="416" y="213"/>
      <point x="419" y="218"/>
      <point x="423" y="223" type="curve"/>
      <point x="442" y="254" type="line"/>
      <point x="567" y="254" type="line"/>
      <point x="584" y="340" type="line"/>
      <point x="577" y="350" type="line"/>
      <point x="507" y="348" type="line"/>
      <point x="512" y="357" type="line" smooth="yes"/>
      <point x="530" y="389"/>
      <point x="550" y="403"/>
      <point x="591" y="425" type="curve"/>
      <point x="608" y="500" type="line"/>
      <point x="604" y="506" type="line"/>
      <point x="604" y="506"/>
      <point x="554" y="503"/>
      <point x="510" y="503" type="curve" smooth="yes"/>
      <point x="466" y="503"/>
      <point x="427" y="502"/>
      <point x="376" y="502" type="curve"/>
      <point x="364" y="444" type="line"/>
      <point x="369" y="435" type="line"/>
      <point x="386" y="435"/>
      <point x="389" y="430"/>
      <point x="389" y="423" type="curve" smooth="yes"/>
      <point x="389" y="419"/>
      <point x="388" y="414"/>
      <point x="386" y="410" type="curve" smooth="yes"/>
      <point x="343" y="312" type="line"/>
      <point x="335" y="312" type="line"/>
      <point x="321" y="359" type="line"/>
      <point x="313" y="384"/>
      <point x="307" y="404"/>
    </contour>
  </outline>
</glyph>
<glyph name="section" format="2">
  <advance width="470"/>
  <unicode hex="00A7"/>
  <outline>
    <contour>
      <point x="388" y="67" type="curve"/>
      <point x="404" y="203"/>
      <point x="185" y="209"/>
      <point x="185" y="307" type="curve" smooth="yes"/>
      <point x="185" y="329"/>
      <point x="195" y="346"/>
      <point x="218" y="366" type="curve"/>
      <point x="154" y="406" type="line"/>
      <point x="68" y="366"/>
      <point x="22" y="311"/>
      <point x="22" y="248" type="curve" smooth="yes"/>
      <point x="22" y="122"/>
      <point x="199" y="112"/>
      <point x="199" y="50" type="curve" smooth="yes"/>
      <point x="199" y="33"/>
      <point x="188" y="23"/>
      <point x="168" y="23" type="curve" smooth="yes"/>
      <point x="126" y="23"/>
      <point x="91" y="60"/>
      <point x="90" y="105" type="curve"/>
      <point x="63" y="107" type="line"/>
      <point x="29" y="69"/>
      <point x="7" y="18"/>
      <point x="7" y="-21" type="curve" smooth="yes"/>
      <point x="7" y="-59"/>
      <point x="77" y="-95"/>
      <point x="152" y="-95" type="curve" smooth="yes"/>
      <point x="274" y="-95"/>
      <point x="376" y="-25"/>
    </contour>
    <contour>
      <point x="267" y="198" type="curve"/>
      <point x="338" y="154" type="line"/>
      <point x="419" y="195"/>
      <point x="462" y="247"/>
      <point x="462" y="304" type="curve" smooth="yes"/>
      <point x="462" y="424"/>
      <point x="292" y="454"/>
      <point x="292" y="508" type="curve" smooth="yes"/>
      <point x="292" y="523"/>
      <point x="307" y="536"/>
      <point x="325" y="536" type="curve" smooth="yes"/>
      <point x="349" y="536"/>
      <point x="372" y="512"/>
      <point x="379" y="479" type="curve"/>
      <point x="404" y="479" type="line"/>
      <point x="425" y="495"/>
      <point x="462" y="579"/>
      <point x="462" y="610" type="curve" smooth="yes"/>
      <point x="462" y="636"/>
      <point x="397" y="659"/>
      <point x="323" y="659" type="curve" smooth="yes"/>
      <point x="198" y="659"/>
      <point x="100" y="584"/>
      <point x="100" y="488" type="curve" smooth="yes"/>
      <point x="100" y="362"/>
      <point x="294" y="350"/>
      <point x="294" y="253" type="curve" smooth="yes"/>
      <point x="294" y="232"/>
      <point x="286" y="216"/>
    </contour>
  </outline>
</glyph>
<glyph name="copyright" format="2">
  <advance width="678"/>
  <unicode hex="00A9"/>
  <anchor x="321.776" y="138" name="bottom"/>
  <anchor x="360.96" y="455.896" name="top"/>
  <outline>
    <contour>
      <point x="48" y="261" type="curve" smooth="yes"/>
      <point x="48" y="108"/>
      <point x="158" y="-12"/>
      <point x="308" y="-12" type="curve" smooth="yes"/>
      <point x="484" y="-12"/>
      <point x="644" y="141"/>
      <point x="644" y="324" type="curve" smooth="yes"/>
      <point x="644" y="476"/>
      <point x="533" y="598"/>
      <point x="383" y="598" type="curve" smooth="yes"/>
      <point x="207" y="598"/>
      <point x="48" y="445"/>
    </contour>
    <contour>
      <point x="108" y="267" type="curve" smooth="yes"/>
      <point x="108" y="415"/>
      <point x="235" y="539"/>
      <point x="376" y="539" type="curve" smooth="yes"/>
      <point x="496" y="539"/>
      <point x="584" y="442"/>
      <point x="584" y="319" type="curve" smooth="yes"/>
      <point x="584" y="171"/>
      <point x="456" y="47"/>
      <point x="315" y="47" type="curve" smooth="yes"/>
      <point x="195" y="47"/>
      <point x="108" y="144"/>
    </contour>
    <contour>
      <point x="315.456" y="132.944" type="curve" smooth="yes"/>
      <point x="382.448" y="132.944"/>
      <point x="436.168" y="151.272"/>
      <point x="436.168" y="151.272" type="curve"/>
      <point x="444.384" y="159.488" type="line"/>
      <point x="449.44" y="208.784"/>
      <point x="462.08" y="268.824"/>
      <point x="462.08" y="268.824" type="curve"/>
      <point x="373.6" y="263.136" type="line"/>
      <point x="365.384" y="219.528"/>
      <point x="358.432" y="210.048"/>
      <point x="335.68" y="210.048" type="curve" smooth="yes"/>
      <point x="313.56" y="210.048"/>
      <point x="307.24" y="223.952"/>
      <point x="307.24" y="275.776" type="curve" smooth="yes"/>
      <point x="307.24" y="359.2"/>
      <point x="317.352" y="387.64"/>
      <point x="349.584" y="387.64" type="curve" smooth="yes"/>
      <point x="368.544" y="387.64"/>
      <point x="379.92" y="378.16"/>
      <point x="379.92" y="362.36" type="curve" smooth="yes"/>
      <point x="379.92" y="353.512"/>
      <point x="374.232" y="324.44"/>
      <point x="374.232" y="324.44" type="curve"/>
      <point x="463.976" y="329.496" type="line"/>
      <point x="475.352" y="392.064"/>
      <point x="491.784" y="438.2"/>
      <point x="491.784" y="438.2" type="curve"/>
      <point x="487.992" y="449.576" type="line"/>
      <point x="487.992" y="449.576"/>
      <point x="412.152" y="462.848"/>
      <point x="368.544" y="462.848" type="curve" smooth="yes"/>
      <point x="241.512" y="462.848"/>
      <point x="177.68" y="397.752"/>
      <point x="177.68" y="268.192" type="curve" smooth="yes"/>
      <point x="177.68" y="180.344"/>
      <point x="226.344" y="132.944"/>
    </contour>
  </outline>
</glyph>
<glyph name="registered" format="2">
  <advance width="454"/>
  <unicode hex="00AE"/>
  <outline>
    <contour>
      <point x="61" y="486" type="curve" smooth="yes"/>
      <point x="61" y="384"/>
      <point x="134" y="303"/>
      <point x="235" y="303" type="curve" smooth="yes"/>
      <point x="353" y="303"/>
      <point x="460" y="405"/>
      <point x="460" y="528" type="curve" smooth="yes"/>
      <point x="460" y="630"/>
      <point x="386" y="711"/>
      <point x="285" y="711" type="curve" smooth="yes"/>
      <point x="167" y="711"/>
      <point x="61" y="609"/>
    </contour>
    <contour>
      <point x="102" y="490" type="curve" smooth="yes"/>
      <point x="102" y="587"/>
      <point x="187" y="669"/>
      <point x="280" y="669" type="curve" smooth="yes"/>
      <point x="360" y="669"/>
      <point x="418" y="604"/>
      <point x="418" y="524" type="curve" smooth="yes"/>
      <point x="418" y="427"/>
      <point x="333" y="345"/>
      <point x="240" y="345" type="curve" smooth="yes"/>
      <point x="161" y="345"/>
      <point x="102" y="410"/>
    </contour>
    <contour>
      <point x="158" y="441" type="curve"/>
      <point x="152" y="414" type="line"/>
      <point x="152" y="414"/>
      <point x="178" y="416"/>
      <point x="196" y="417" type="curve" smooth="yes"/>
      <point x="207" y="417" type="line" smooth="yes"/>
      <point x="220" y="417"/>
      <point x="253" y="415"/>
      <point x="253" y="415" type="curve"/>
      <point x="259" y="441" type="line"/>
      <point x="260" y="442"/>
      <point x="259" y="442"/>
      <point x="259" y="443" type="curve"/>
      <point x="243" y="444"/>
      <point x="238" y="445"/>
      <point x="238" y="457" type="curve" smooth="yes"/>
      <point x="238" y="460"/>
      <point x="241" y="479"/>
      <point x="242" y="486" type="curve"/>
      <point x="258" y="486" type="line"/>
      <point x="270" y="439" type="line" smooth="yes"/>
      <point x="277" y="413"/>
      <point x="285" y="412"/>
      <point x="312" y="412" type="curve" smooth="yes"/>
      <point x="363" y="415"/>
      <point x="350" y="420"/>
      <point x="354" y="438" type="curve"/>
      <point x="352" y="441" type="line"/>
      <point x="344" y="442"/>
      <point x="332" y="455"/>
      <point x="327" y="469" type="curve" smooth="yes"/>
      <point x="312" y="501" type="line"/>
      <point x="342" y="518"/>
      <point x="355" y="539"/>
      <point x="355" y="567" type="curve" smooth="yes"/>
      <point x="355" y="602"/>
      <point x="327" y="617"/>
      <point x="273" y="617" type="curve" smooth="yes"/>
      <point x="263" y="616"/>
      <point x="241" y="615"/>
      <point x="232" y="615" type="curve" smooth="yes"/>
      <point x="222" y="615" type="line" smooth="yes"/>
      <point x="208" y="615"/>
      <point x="194" y="615"/>
      <point x="180" y="615" type="curve"/>
      <point x="174" y="590" type="line"/>
      <point x="177" y="588" type="line"/>
      <point x="177" y="588"/>
      <point x="182" y="589"/>
      <point x="188" y="589" type="curve" smooth="yes"/>
      <point x="193" y="589"/>
      <point x="195" y="585"/>
      <point x="193" y="571" type="curve" smooth="yes"/>
      <point x="180" y="468" type="line" smooth="yes"/>
      <point x="178" y="451"/>
      <point x="171" y="444"/>
    </contour>
    <contour>
      <point x="256" y="571" type="curve" smooth="yes"/>
      <point x="257" y="578"/>
      <point x="258" y="579"/>
      <point x="262" y="579" type="curve" smooth="yes"/>
      <point x="282" y="579"/>
      <point x="291" y="571"/>
      <point x="291" y="557" type="curve" smooth="yes"/>
      <point x="291" y="539"/>
      <point x="284" y="527"/>
      <point x="270" y="523" type="curve"/>
      <point x="263" y="523"/>
      <point x="251" y="524"/>
      <point x="247" y="524" type="curve"/>
      <point x="249" y="539"/>
      <point x="253" y="554"/>
    </contour>
  </outline>
</glyph>
<glyph name="degree" format="2">
  <advance width="293"/>
  <unicode hex="00B0"/>
  <outline>
    <contour>
      <point x="49" y="510" type="curve" smooth="yes"/>
      <point x="49" y="442"/>
      <point x="98" y="389"/>
      <point x="165" y="389" type="curve" smooth="yes"/>
      <point x="244" y="389"/>
      <point x="314" y="456"/>
      <point x="314" y="538" type="curve" smooth="yes"/>
      <point x="314" y="606"/>
      <point x="266" y="659"/>
      <point x="198" y="659" type="curve" smooth="yes"/>
      <point x="120" y="659"/>
      <point x="49" y="592"/>
    </contour>
    <contour>
      <point x="124" y="516" type="curve" smooth="yes"/>
      <point x="124" y="555"/>
      <point x="151" y="584"/>
      <point x="189" y="584" type="curve" smooth="yes"/>
      <point x="220" y="584"/>
      <point x="239" y="562"/>
      <point x="239" y="531" type="curve" smooth="yes"/>
      <point x="239" y="492"/>
      <point x="211" y="464"/>
      <point x="174" y="464" type="curve" smooth="yes"/>
      <point x="143" y="464"/>
      <point x="124" y="485"/>
    </contour>
  </outline>
</glyph>
<glyph name="plusminus" format="2">
  <advance width="491"/>
  <unicode hex="00B1"/>
  <outline>
    <contour>
      <point x="353" y="508" type="curve"/>
      <point x="339" y="515" type="line"/>
      <point x="206" y="502" type="line"/>
      <point x="200" y="450"/>
      <point x="192" y="397"/>
      <point x="186" y="345" type="curve"/>
      <point x="115" y="345"/>
      <point x="46" y="346"/>
      <point x="46" y="346" type="curve"/>
      <point x="11" y="211" type="line"/>
      <point x="19" y="198" type="line"/>
      <point x="19" y="198"/>
      <point x="93" y="198"/>
      <point x="168" y="199" type="curve"/>
      <point x="158" y="123"/>
      <point x="148" y="49"/>
      <point x="148" y="49" type="curve"/>
      <point x="160" y="40" type="line"/>
      <point x="293" y="58" type="line"/>
      <point x="293" y="58"/>
      <point x="300" y="127"/>
      <point x="309" y="199" type="curve"/>
      <point x="359" y="199"/>
      <point x="408" y="200"/>
      <point x="458" y="200" type="curve"/>
      <point x="488" y="336" type="line"/>
      <point x="483" y="351" type="line"/>
      <point x="483" y="351"/>
      <point x="401" y="347"/>
      <point x="327" y="345" type="curve"/>
      <point x="338" y="420"/>
      <point x="353" y="508"/>
    </contour>
    <contour>
      <point x="428" y="-17" type="line"/>
      <point x="420" y="2" type="line"/>
      <point x="420" y="2"/>
      <point x="398" y="0"/>
      <point x="335" y="0" type="curve" smooth="yes"/>
      <point x="300" y="0"/>
      <point x="264" y="0"/>
      <point x="228" y="0" type="curve" smooth="yes"/>
      <point x="157" y="0"/>
      <point x="89" y="0"/>
      <point x="12" y="0" type="curve"/>
      <point x="-11" y="-105" type="line"/>
      <point x="-3" y="-124" type="line"/>
      <point x="137" y="-124"/>
      <point x="267" y="-123"/>
      <point x="401" y="-123" type="curve"/>
    </contour>
  </outline>
</glyph>
<glyph name="threesuperior" format="2">
  <advance width="322"/>
  <unicode hex="00B3"/>
  <outline>
    <contour>
      <point x="15" y="431" type="curve"/>
      <point x="-4" y="414" type="line"/>
      <point x="-7" y="344"/>
      <point x="6" y="319"/>
      <point x="55" y="319" type="curve" smooth="yes"/>
      <point x="173" y="319"/>
      <point x="290" y="385"/>
      <point x="290" y="460" type="curve" smooth="yes"/>
      <point x="290" y="500"/>
      <point x="264" y="528"/>
      <point x="205" y="550" type="curve"/>
      <point x="205" y="558" type="line"/>
      <point x="257" y="572"/>
      <point x="291" y="610"/>
      <point x="291" y="654" type="curve" smooth="yes"/>
      <point x="291" y="699"/>
      <point x="251" y="728"/>
      <point x="184" y="728" type="curve" smooth="yes"/>
      <point x="145" y="728"/>
      <point x="82" y="711"/>
      <point x="34" y="681" type="curve"/>
      <point x="48" y="607" type="line"/>
      <point x="59" y="607" type="line"/>
      <point x="89" y="625"/>
      <point x="113" y="634"/>
      <point x="130" y="634" type="curve" smooth="yes"/>
      <point x="145" y="634"/>
      <point x="154" y="626"/>
      <point x="154" y="614" type="curve" smooth="yes"/>
      <point x="154" y="594"/>
      <point x="140" y="576"/>
      <point x="113" y="566" type="curve"/>
      <point x="68" y="558" type="line"/>
      <point x="68" y="492" type="line"/>
      <point x="77" y="481" type="line"/>
      <point x="121" y="481"/>
      <point x="141" y="473"/>
      <point x="141" y="455" type="curve" smooth="yes"/>
      <point x="141" y="432"/>
      <point x="116" y="418"/>
      <point x="77" y="418" type="curve" smooth="yes"/>
      <point x="51" y="418"/>
      <point x="31" y="423"/>
    </contour>
  </outline>
</glyph>
<glyph name="periodcentered" format="2">
  <advance width="231"/>
  <unicode hex="00B7"/>
  <outline>
    <contour>
      <point x="101" y="154" type="curve" smooth="yes"/>
      <point x="169" y="154"/>
      <point x="215" y="201"/>
      <point x="215" y="272" type="curve" smooth="yes"/>
      <point x="215" y="323"/>
      <point x="186" y="353"/>
      <point x="134" y="353" type="curve" smooth="yes"/>
      <point x="65" y="353"/>
      <point x="19" y="306"/>
      <point x="19" y="234" type="curve" smooth="yes"/>
      <point x="19" y="183"/>
      <point x="47" y="154"/>
    </contour>
  </outline>
</glyph>
<glyph name="Eth" format="2">
  <advance width="680"/>
  <unicode hex="00D0"/>
  <outline>
    <contour>
      <point x="121" y="266" type="line"/>
      <point x="133" y="363" type="line"/>
      <point x="35" y="363" type="line"/>
      <point x="11" y="274" type="line"/>
      <point x="20" y="266" type="line"/>
    </contour>
    <contour>
      <point x="310" y="364" type="line"/>
      <point x="295" y="267" type="line"/>
      <point x="377" y="267" type="line"/>
      <point x="395" y="357" type="line"/>
      <point x="388" y="367" type="line"/>
    </contour>
    <component base="D" xOffset="20"/>
  </outline>
</glyph>
<glyph name="multiply" format="2">
  <advance width="491"/>
  <unicode hex="00D7"/>
  <outline>
    <contour>
      <point x="393" y="449" type="line"/>
      <point x="379" y="455" type="line"/>
      <point x="379" y="455"/>
      <point x="315" y="390"/>
      <point x="257" y="336" type="curve"/>
      <point x="213" y="389"/>
      <point x="169" y="444"/>
      <point x="169" y="444" type="curve"/>
      <point x="51" y="361" type="line"/>
      <point x="46" y="345" type="line"/>
      <point x="46" y="345"/>
      <point x="94" y="287"/>
      <point x="141" y="232" type="curve"/>
      <point x="86" y="182"/>
      <point x="34" y="133"/>
      <point x="34" y="133" type="curve"/>
      <point x="100" y="29" type="line"/>
      <point x="115" y="26" type="line"/>
      <point x="115" y="26"/>
      <point x="171" y="79"/>
      <point x="229" y="132" type="curve"/>
      <point x="319" y="26" type="line"/>
      <point x="434" y="113" type="line"/>
      <point x="442" y="129" type="line"/>
      <point x="442" y="129"/>
      <point x="391" y="184"/>
      <point x="346" y="236" type="curve"/>
      <point x="464" y="347" type="line"/>
    </contour>
  </outline>
</glyph>
<glyph name="Oslash" format="2">
  <advance width="633"/>
  <unicode hex="00D8"/>
  <anchor x="328" y="647" name="top"/>
  <outline>
    <contour>
      <point x="513" y="488" type="line"/>
      <point x="642" y="685" type="line"/>
      <point x="640" y="698" type="line"/>
      <point x="543" y="752" type="line"/>
      <point x="418" y="559" type="line"/>
    </contour>
    <contour>
      <point x="242" y="82" type="line"/>
      <point x="513" y="488" type="line"/>
      <point x="418" y="559" type="line"/>
      <point x="149" y="152" type="line"/>
    </contour>
    <contour>
      <point x="149" y="152" type="line"/>
      <point x="9" y="-52" type="line"/>
      <point x="13" y="-62" type="line"/>
      <point x="108" y="-117" type="line"/>
      <point x="242" y="82" type="line"/>
    </contour>
    <component base="O"/>
  </outline>
</glyph>
<glyph name="Thorn" format="2">
  <advance width="590"/>
  <unicode hex="00DE"/>
  <outline>
    <contour>
      <point x="324" y="522" type="line"/>
      <point x="325" y="527" type="line" smooth="yes"/>
      <point x="329" y="549"/>
      <point x="336" y="552"/>
      <point x="384" y="562" type="curve"/>
      <point x="402" y="652" type="line"/>
      <point x="402" y="652"/>
      <point x="273" y="647"/>
      <point x="232" y="647" type="curve" smooth="yes"/>
      <point x="179" y="647"/>
      <point x="129" y="647"/>
      <point x="73" y="647" type="curve"/>
      <point x="56" y="572" type="line"/>
      <point x="64" y="558" type="line"/>
      <point x="64" y="558"/>
      <point x="78" y="559"/>
      <point x="88" y="559" type="curve" smooth="yes"/>
      <point x="115" y="559"/>
      <point x="121" y="549"/>
      <point x="116" y="508" type="curve" smooth="yes"/>
      <point x="73" y="162" type="line" smooth="yes"/>
      <point x="67" y="106"/>
      <point x="53" y="91"/>
      <point x="1" y="80" type="curve"/>
      <point x="-17" y="-5" type="line"/>
      <point x="-17" y="-5"/>
      <point x="86" y="0"/>
      <point x="147" y="0" type="curve" smooth="yes"/>
      <point x="191" y="0"/>
      <point x="321" y="-4"/>
      <point x="321" y="-4" type="curve"/>
      <point x="340" y="80" type="line"/>
      <point x="333" y="90" type="line"/>
      <point x="333" y="90"/>
      <point x="320" y="87"/>
      <point x="292" y="87" type="curve" smooth="yes"/>
      <point x="268" y="87"/>
      <point x="262" y="92"/>
      <point x="265" y="116" type="curve" smooth="yes"/>
      <point x="268" y="139" type="line"/>
      <point x="337" y="139" type="line" smooth="yes"/>
      <point x="492" y="139"/>
      <point x="605" y="226"/>
      <point x="605" y="360" type="curve" smooth="yes"/>
      <point x="605" y="469"/>
      <point x="536" y="522"/>
      <point x="390" y="522" type="curve" smooth="yes"/>
    </contour>
    <contour>
      <point x="301" y="385" type="curve" smooth="yes"/>
      <point x="303" y="401"/>
      <point x="310" y="407"/>
      <point x="323" y="407" type="curve" smooth="yes"/>
      <point x="374" y="407"/>
      <point x="398" y="388"/>
      <point x="398" y="344" type="curve" smooth="yes"/>
      <point x="398" y="295"/>
      <point x="381" y="257"/>
      <point x="342" y="246" type="curve"/>
      <point x="333" y="246"/>
      <point x="309" y="250"/>
      <point x="284" y="256" type="curve"/>
      <point x="288" y="290"/>
      <point x="298" y="358"/>
    </contour>
  </outline>
</glyph>
<glyph name="ae" format="2">
  <advance width="686"/>
  <unicode hex="00E6"/>
  <outline>
    <contour>
      <point x="303" y="158" type="line"/>
      <point x="459" y="435" type="line"/>
      <point x="263" y="472" type="line"/>
      <point x="140" y="472"/>
      <point x="9" y="303"/>
      <point x="9" y="145" type="curve" smooth="yes"/>
      <point x="9" y="46"/>
      <point x="65" y="-12"/>
      <point x="160" y="-12" type="curve"/>
      <point x="202" y="17"/>
      <point x="239" y="64"/>
      <point x="293" y="158" type="curve"/>
    </contour>
    <contour>
      <point x="206" y="143" type="curve" smooth="yes"/>
      <point x="198" y="143"/>
      <point x="192" y="170"/>
      <point x="192" y="209" type="curve" smooth="yes"/>
      <point x="192" y="282"/>
      <point x="214" y="367"/>
      <point x="233" y="367" type="curve" smooth="yes"/>
      <point x="254" y="367"/>
      <point x="280" y="361"/>
      <point x="307" y="351" type="curve"/>
      <point x="280" y="250"/>
      <point x="228" y="143"/>
    </contour>
    <contour>
      <point x="691" y="371" type="curve" smooth="yes"/>
      <point x="691" y="440"/>
      <point x="638" y="483"/>
      <point x="553" y="483" type="curve" smooth="yes"/>
      <point x="399" y="483"/>
      <point x="271" y="343"/>
      <point x="271" y="173" type="curve" smooth="yes"/>
      <point x="271" y="61"/>
      <point x="336" y="-12"/>
      <point x="435" y="-12" type="curve" smooth="yes"/>
      <point x="528" y="-12"/>
      <point x="628" y="53"/>
      <point x="662" y="136" type="curve"/>
      <point x="610" y="194" type="line"/>
      <point x="588" y="197" type="line"/>
      <point x="560" y="148"/>
      <point x="531" y="126"/>
      <point x="497" y="126" type="curve" smooth="yes"/>
      <point x="465" y="126"/>
      <point x="447" y="143"/>
      <point x="442" y="175" type="curve"/>
      <point x="621" y="229"/>
      <point x="691" y="278"/>
    </contour>
    <contour>
      <point x="516" y="363" type="curve" smooth="yes"/>
      <point x="531" y="363"/>
      <point x="541" y="354"/>
      <point x="541" y="340" type="curve" smooth="yes"/>
      <point x="541" y="310"/>
      <point x="508" y="281"/>
      <point x="445" y="257" type="curve"/>
      <point x="455" y="326"/>
      <point x="480" y="363"/>
    </contour>
  </outline>
</glyph>
<glyph name="eth" format="2">
  <advance width="498"/>
  <unicode hex="00F0"/>
  <outline>
    <contour>
      <point x="204" y="-12" type="curve" smooth="yes"/>
      <point x="367" y="-12"/>
      <point x="474" y="107"/>
      <point x="474" y="287" type="curve" smooth="yes"/>
      <point x="474" y="406"/>
      <point x="411" y="472"/>
      <point x="295" y="472" type="curve" smooth="yes"/>
      <point x="132" y="472"/>
      <point x="25" y="356"/>
      <point x="25" y="179" type="curve" smooth="yes"/>
      <point x="25" y="57"/>
      <point x="90" y="-12"/>
    </contour>
    <contour>
      <point x="242" y="92" type="curve" smooth="yes"/>
      <point x="215" y="92"/>
      <point x="203" y="123"/>
      <point x="203" y="190" type="curve" smooth="yes"/>
      <point x="203" y="291"/>
      <point x="223" y="355"/>
      <point x="255" y="355" type="curve" smooth="yes"/>
      <point x="283" y="355"/>
      <point x="293" y="330"/>
      <point x="293" y="260" type="curve" smooth="yes"/>
      <point x="293" y="142"/>
      <point x="278" y="92"/>
    </contour>
    <contour>
      <point x="305" y="287" type="curve"/>
      <point x="474" y="287" type="line"/>
      <point x="474" y="400"/>
      <point x="431" y="509"/>
      <point x="350" y="599" type="curve"/>
      <point x="440" y="645" type="line"/>
      <point x="417" y="738" type="line"/>
      <point x="409" y="742" type="line"/>
      <point x="263" y="668" type="line"/>
      <point x="219" y="697"/>
      <point x="178" y="721"/>
      <point x="135" y="742" type="curve"/>
      <point x="118" y="734" type="line"/>
      <point x="60" y="653" type="line"/>
      <point x="83" y="634"/>
      <point x="104" y="617"/>
      <point x="123" y="600" type="curve"/>
      <point x="47" y="559" type="line"/>
      <point x="70" y="465" type="line"/>
      <point x="79" y="463" type="line"/>
      <point x="205" y="527" type="line"/>
      <point x="275" y="457"/>
      <point x="303" y="389"/>
    </contour>
  </outline>
</glyph>
<glyph name="oslash" format="2">
  <advance width="486"/>
  <unicode hex="00F8"/>
  <anchor x="255" y="472" name="top"/>
  <outline>
    <contour>
      <point x="395" y="343" type="line"/>
      <point x="524" y="540" type="line"/>
      <point x="522" y="553" type="line"/>
      <point x="425" y="607" type="line"/>
      <point x="300" y="414" type="line"/>
    </contour>
    <contour>
      <point x="210" y="69" type="line"/>
      <point x="395" y="343" type="line"/>
      <point x="300" y="414" type="line"/>
      <point x="117" y="139" type="line"/>
    </contour>
    <contour>
      <point x="117" y="139" type="line"/>
      <point x="-29" y="-73" type="line"/>
      <point x="-25" y="-83" type="line"/>
      <point x="70" y="-138" type="line"/>
      <point x="210" y="69" type="line"/>
    </contour>
    <component base="o"/>
  </outline>
</glyph>
<glyph name="thorn" format="2">
  <advance width="525"/>
  <unicode hex="00FE"/>
  <anchor x="170" y="0" name="bottom"/>
  <anchor x="170" y="463" name="top"/>
  <outline>
    <contour>
      <point x="-10" y="-89" type="curve"/>
      <point x="-18" y="-138"/>
      <point x="-33" y="-150"/>
      <point x="-70" y="-155" type="curve"/>
      <point x="-86" y="-237" type="line"/>
      <point x="-86" y="-237"/>
      <point x="86" y="-230"/>
      <point x="218" y="-230" type="curve"/>
      <point x="234" y="-151" type="line" smooth="yes"/>
      <point x="234" y="-149"/>
      <point x="233" y="-147"/>
      <point x="233" y="-145" type="curve"/>
      <point x="187" y="-145" type="line" smooth="yes"/>
      <point x="149" y="-145"/>
      <point x="140" y="-135"/>
      <point x="145" y="-96" type="curve" smooth="yes"/>
      <point x="157" y="-4" type="line"/>
      <point x="181" y="-9"/>
      <point x="208" y="-12"/>
      <point x="238" y="-12" type="curve" smooth="yes"/>
      <point x="385" y="-12"/>
      <point x="513" y="137"/>
      <point x="513" y="307" type="curve" smooth="yes"/>
      <point x="513" y="411"/>
      <point x="455" y="472"/>
      <point x="354" y="472" type="curve"/>
      <point x="313" y="443"/>
      <point x="278" y="398"/>
      <point x="224" y="302" type="curve"/>
      <point x="214" y="302" type="line"/>
      <point x="246" y="483"/>
      <point x="295" y="722"/>
      <point x="295" y="722" type="curve"/>
      <point x="279" y="742" type="line"/>
      <point x="279" y="742"/>
      <point x="143" y="730"/>
      <point x="52" y="730" type="curve"/>
      <point x="40" y="648" type="line"/>
      <point x="68" y="648" type="line" smooth="yes"/>
      <point x="91" y="648"/>
      <point x="101" y="638"/>
      <point x="101" y="615" type="curve" smooth="yes"/>
      <point x="101" y="593"/>
      <point x="-10" y="-89"/>
    </contour>
    <contour>
      <point x="320" y="334" type="curve" smooth="yes"/>
      <point x="328" y="334"/>
      <point x="333" y="305"/>
      <point x="333" y="266" type="curve" smooth="yes"/>
      <point x="333" y="178"/>
      <point x="308" y="110"/>
      <point x="276" y="110" type="curve" smooth="yes"/>
      <point x="249" y="110"/>
      <point x="219" y="136"/>
      <point x="219" y="136" type="curve"/>
      <point x="243" y="227"/>
      <point x="297" y="334"/>
    </contour>
  </outline>
</glyph>
<glyph name="dcroat" format="2">
  <advance width="529"/>
  <unicode hex="0111"/>
  <outline>
    <contour>
      <point x="432" y="586" type="line"/>
      <point x="432" y="586" type="line"/>
      <point x="233" y="587" type="line"/>
      <point x="225" y="529" type="line"/>
      <point x="236" y="519" type="line"/>
      <point x="406" y="520" type="line"/>
      <point x="583" y="521" type="line"/>
      <point x="588" y="576" type="line"/>
      <point x="573" y="591" type="line"/>
    </contour>
    <component base="d"/>
  </outline>
</glyph>
<glyph name="eogonek" format="2">
  <advance width="429"/>
  <unicode hex="0119"/>
  <outline>
    <contour>
      <point x="434" y="371" type="curve" smooth="yes"/>
      <point x="434" y="440"/>
      <point x="381" y="483"/>
      <point x="296" y="483" type="curve" smooth="yes"/>
      <point x="142" y="483"/>
      <point x="14" y="343"/>
      <point x="14" y="173" type="curve" smooth="yes"/>
      <point x="14" y="61"/>
      <point x="79" y="-12"/>
      <point x="178" y="-12" type="curve" smooth="yes"/>
      <point x="237" y="-12"/>
      <point x="259" y="11"/>
      <point x="405" y="136" type="curve"/>
      <point x="353" y="194" type="line"/>
      <point x="331" y="197" type="line"/>
      <point x="303" y="148"/>
      <point x="274" y="126"/>
      <point x="240" y="126" type="curve" smooth="yes"/>
      <point x="208" y="126"/>
      <point x="190" y="143"/>
      <point x="185" y="175" type="curve"/>
      <point x="370" y="231"/>
      <point x="434" y="281"/>
    </contour>
    <contour>
      <point x="259" y="363" type="curve" smooth="yes"/>
      <point x="274" y="363"/>
      <point x="284" y="354"/>
      <point x="284" y="340" type="curve" smooth="yes"/>
      <point x="284" y="310"/>
      <point x="250" y="280"/>
      <point x="188" y="257" type="curve"/>
      <point x="198" y="326"/>
      <point x="223" y="363"/>
    </contour>
    <contour>
      <point x="366" y="-167" type="curve"/>
      <point x="338" y="-120" type="line"/>
      <point x="315" y="-135"/>
      <point x="294" y="-143"/>
      <point x="279" y="-143" type="curve" smooth="yes"/>
      <point x="264" y="-143"/>
      <point x="254" y="-134"/>
      <point x="254" y="-117" type="curve" smooth="yes"/>
      <point x="254" y="-72"/>
      <point x="305" y="13"/>
      <point x="405" y="136" type="curve"/>
      <point x="359" y="135" type="line"/>
      <point x="170" y="-40"/>
      <point x="125" y="-95"/>
      <point x="125" y="-151" type="curve" smooth="yes"/>
      <point x="125" y="-208"/>
      <point x="172" y="-241"/>
      <point x="252" y="-241" type="curve"/>
      <point x="277" y="-232"/>
      <point x="321" y="-203"/>
    </contour>
  </outline>
</glyph>
<glyph name="Hbar" format="2">
  <advance width="716"/>
  <unicode hex="0126"/>
  <outline>
    <contour>
      <point x="422" y="503" type="curve" smooth="yes"/>
      <point x="257" y="503"/>
      <point x="23" y="504"/>
      <point x="23" y="504" type="curve"/>
      <point x="15" y="446" type="line"/>
      <point x="26" y="436" type="line"/>
      <point x="26" y="436"/>
      <point x="230" y="437"/>
      <point x="396" y="437" type="curve" smooth="yes"/>
      <point x="763" y="438" type="line"/>
      <point x="768" y="493" type="line"/>
      <point x="753" y="508" type="line"/>
      <point x="753" y="508"/>
      <point x="563" y="503"/>
    </contour>
    <component base="H"/>
  </outline>
</glyph>
<glyph name="hbar" format="2">
  <advance width="524"/>
  <unicode hex="0127"/>
  <outline>
    <contour>
      <point x="222" y="575" type="line"/>
      <point x="13" y="576" type="line"/>
      <point x="5" y="518" type="line"/>
      <point x="16" y="508" type="line"/>
      <point x="196" y="509" type="line"/>
      <point x="393" y="509" type="line"/>
      <point x="398" y="564" type="line"/>
      <point x="383" y="579" type="line"/>
    </contour>
    <component base="h"/>
  </outline>
</glyph>
<glyph name="kgreenlandic" format="2">
  <advance width="532"/>
  <unicode hex="0138"/>
  <anchor x="233" y="0" name="bottom"/>
  <anchor x="291" y="472" name="top"/>
  <outline>
    <contour>
      <point x="332" y="-13" type="line"/>
      <point x="494" y="9" type="line"/>
      <point x="498" y="30" type="line"/>
      <point x="498" y="30"/>
      <point x="445" y="132"/>
      <point x="416" y="197" type="curve"/>
      <point x="489" y="251"/>
      <point x="528" y="312"/>
      <point x="528" y="374" type="curve" smooth="yes"/>
      <point x="528" y="443"/>
      <point x="469" y="485"/>
      <point x="370" y="485" type="curve"/>
      <point x="333" y="461"/>
      <point x="293" y="398"/>
      <point x="252" y="303" type="curve"/>
      <point x="246" y="305" type="line"/>
      <point x="257" y="378"/>
      <point x="277" y="452"/>
      <point x="277" y="452" type="curve"/>
      <point x="264" y="473" type="line"/>
      <point x="264" y="473"/>
      <point x="132" y="461"/>
      <point x="44" y="461" type="curve"/>
      <point x="32" y="379" type="line"/>
      <point x="59" y="379" type="line" smooth="yes"/>
      <point x="85" y="379"/>
      <point x="94" y="368"/>
      <point x="89" y="336" type="curve" smooth="yes"/>
      <point x="80" y="278"/>
      <point x="38" y="16"/>
      <point x="38" y="16" type="curve"/>
      <point x="58" y="-7" type="line"/>
      <point x="134" y="-7"/>
      <point x="202" y="17"/>
      <point x="205" y="45" type="curve" smooth="yes"/>
      <point x="212" y="104" type="line"/>
      <point x="259" y="229"/>
      <point x="310" y="319"/>
      <point x="335" y="319" type="curve" smooth="yes"/>
      <point x="348" y="319"/>
      <point x="354" y="313"/>
      <point x="354" y="297" type="curve" smooth="yes"/>
      <point x="354" y="244"/>
      <point x="277" y="216"/>
      <point x="277" y="216" type="curve"/>
      <point x="267" y="197" type="line"/>
      <point x="319" y="-6" type="line"/>
    </contour>
  </outline>
</glyph>
<glyph name="Lcaron" format="2">
  <advance width="581"/>
  <unicode hex="013D"/>
  <outline>
    <contour>
      <point x="626" y="635" type="curve"/>
      <point x="619" y="647" type="line"/>
      <point x="483" y="633" type="line"/>
      <point x="483" y="633"/>
      <point x="480" y="515"/>
      <point x="463" y="395" type="curve"/>
      <point x="481" y="389" type="line"/>
      <point x="557" y="414" type="line"/>
      <point x="597" y="526"/>
      <point x="626" y="635"/>
    </contour>
    <component base="L"/>
  </outline>
</glyph>
<glyph name="Lslash" format="2">
  <advance width="553"/>
  <unicode hex="0141"/>
  <outline>
    <contour>
      <point x="215" y="290" type="line"/>
      <point x="215" y="268" type="line"/>
      <point x="435" y="378" type="line"/>
      <point x="404" y="471" type="line"/>
      <point x="395" y="475" type="line"/>
      <point x="215" y="385" type="line"/>
      <point x="215" y="407" type="line"/>
      <point x="13" y="306" type="line"/>
      <point x="44" y="212" type="line"/>
      <point x="54" y="210" type="line"/>
    </contour>
    <component base="L" xOffset="10"/>
  </outline>
</glyph>
<glyph name="eng" format="2">
  <advance width="539"/>
  <unicode hex="014B"/>
  <outline>
    <contour>
      <point x="277" y="32" type="curve" smooth="yes"/>
      <point x="251" y="-60"/>
      <point x="230" y="-134"/>
      <point x="158" y="-190" type="curve"/>
      <point x="154" y="-205" type="line"/>
      <point x="196" y="-248" type="line"/>
      <point x="324" y="-190"/>
      <point x="410" y="-95"/>
      <point x="436" y="14" type="curve" smooth="yes"/>
      <point x="446" y="56"/>
      <point x="511" y="337"/>
      <point x="511" y="378" type="curve" smooth="yes"/>
      <point x="511" y="445"/>
      <point x="455" y="485"/>
      <point x="362" y="485" type="curve"/>
      <point x="326" y="461"/>
      <point x="286" y="400"/>
      <point x="244" y="303" type="curve"/>
      <point x="237" y="302" type="line"/>
      <point x="248" y="375"/>
      <point x="270" y="452"/>
      <point x="270" y="452" type="curve"/>
      <point x="256" y="473" type="line"/>
      <point x="256" y="473"/>
      <point x="122" y="461"/>
      <point x="33" y="461" type="curve"/>
      <point x="21" y="379" type="line"/>
      <point x="49" y="379" type="line" smooth="yes"/>
      <point x="76" y="379"/>
      <point x="85" y="368"/>
      <point x="81" y="336" type="curve" smooth="yes"/>
      <point x="72" y="278"/>
      <point x="29" y="16"/>
      <point x="29" y="16" type="curve"/>
      <point x="49" y="-7" type="line"/>
      <point x="125" y="-7"/>
      <point x="193" y="17"/>
      <point x="197" y="45" type="curve" smooth="yes"/>
      <point x="204" y="104" type="line"/>
      <point x="248" y="229"/>
      <point x="295" y="319"/>
      <point x="317" y="319" type="curve" smooth="yes"/>
      <point x="329" y="319"/>
      <point x="335" y="310"/>
      <point x="335" y="291" type="curve" smooth="yes"/>
      <point x="335" y="253"/>
      <point x="293" y="88"/>
    </contour>
  </outline>
</glyph>
<glyph name="OE" format="2">
  <advance width="885"/>
  <unicode hex="0152"/>
  <anchor x="508" y="647" name="top"/>
  <outline>
    <contour>
      <point x="571" y="175" type="curve" smooth="yes"/>
      <point x="583" y="260" type="line"/>
      <point x="656" y="266" type="line" smooth="yes"/>
      <point x="700" y="266"/>
      <point x="771" y="263"/>
      <point x="771" y="263" type="curve"/>
      <point x="799" y="378" type="line"/>
      <point x="788" y="392" type="line"/>
      <point x="788" y="392"/>
      <point x="710" y="386"/>
      <point x="681" y="386" type="curve" smooth="yes"/>
      <point x="603" y="387" type="line"/>
      <point x="623" y="500" type="line" smooth="yes"/>
      <point x="625" y="522"/>
      <point x="631" y="527"/>
      <point x="657" y="527" type="curve" smooth="yes"/>
      <point x="726" y="527"/>
      <point x="744" y="518"/>
      <point x="744" y="484" type="curve" smooth="yes"/>
      <point x="744" y="467"/>
      <point x="736" y="435"/>
      <point x="736" y="435" type="curve"/>
      <point x="876" y="444" type="line"/>
      <point x="892" y="538"/>
      <point x="922" y="643"/>
      <point x="922" y="643" type="curve"/>
      <point x="911" y="659" type="line"/>
      <point x="819" y="647"/>
      <point x="684" y="638"/>
      <point x="598" y="638" type="curve" smooth="yes"/>
      <point x="509" y="638"/>
      <point x="429" y="650"/>
      <point x="366" y="650" type="curve" smooth="yes"/>
      <point x="133" y="650"/>
      <point x="18" y="513"/>
      <point x="18" y="259" type="curve" smooth="yes"/>
      <point x="18" y="85"/>
      <point x="120" y="-10"/>
      <point x="289" y="-10" type="curve" smooth="yes"/>
      <point x="341" y="-10"/>
      <point x="415" y="3"/>
      <point x="487" y="3" type="curve" smooth="yes"/>
      <point x="640" y="3"/>
      <point x="801" y="-7"/>
      <point x="801" y="-7" type="curve"/>
      <point x="818" y="9" type="line"/>
      <point x="841" y="118"/>
      <point x="870" y="215"/>
      <point x="870" y="215" type="curve"/>
      <point x="860" y="230" type="line"/>
      <point x="730" y="221" type="line"/>
      <point x="708" y="131"/>
      <point x="689" y="115"/>
      <point x="609" y="115" type="curve" smooth="yes"/>
      <point x="570" y="115"/>
      <point x="565" y="123"/>
    </contour>
    <contour>
      <point x="309" y="108" type="curve" smooth="yes"/>
      <point x="263" y="108"/>
      <point x="245" y="144"/>
      <point x="245" y="235" type="curve" smooth="yes"/>
      <point x="245" y="428"/>
      <point x="279" y="528"/>
      <point x="344" y="528" type="curve" smooth="yes"/>
      <point x="395" y="528"/>
      <point x="419" y="498"/>
      <point x="412" y="439" type="curve" smooth="yes"/>
      <point x="381" y="196" type="line"/>
      <point x="374" y="137"/>
      <point x="350" y="108"/>
    </contour>
  </outline>
</glyph>
<glyph name="oe" format="2">
  <advance width="749"/>
  <unicode hex="0153"/>
  <outline>
    <contour>
      <point x="198" y="-12" type="curve" smooth="yes"/>
      <point x="355" y="-12"/>
      <point x="448" y="106"/>
      <point x="448" y="285" type="curve" smooth="yes"/>
      <point x="448" y="413"/>
      <point x="398" y="484"/>
      <point x="289" y="484" type="curve" smooth="yes"/>
      <point x="126" y="484"/>
      <point x="19" y="365"/>
      <point x="19" y="184" type="curve" smooth="yes"/>
      <point x="19" y="59"/>
      <point x="84" y="-12"/>
    </contour>
    <contour>
      <point x="236" y="95" type="curve" smooth="yes"/>
      <point x="209" y="95"/>
      <point x="197" y="126"/>
      <point x="197" y="195" type="curve" smooth="yes"/>
      <point x="197" y="299"/>
      <point x="217" y="364"/>
      <point x="249" y="364" type="curve" smooth="yes"/>
      <point x="277" y="364"/>
      <point x="287" y="339"/>
      <point x="287" y="267" type="curve" smooth="yes"/>
      <point x="287" y="146"/>
      <point x="272" y="95"/>
    </contour>
    <contour>
      <point x="498" y="-12" type="curve" smooth="yes"/>
      <point x="591" y="-12"/>
      <point x="691" y="53"/>
      <point x="725" y="136" type="curve"/>
      <point x="673" y="194" type="line"/>
      <point x="651" y="197" type="line"/>
      <point x="623" y="148"/>
      <point x="594" y="126"/>
      <point x="560" y="126" type="curve" smooth="yes"/>
      <point x="528" y="126"/>
      <point x="510" y="143"/>
      <point x="505" y="175" type="curve"/>
      <point x="684" y="229"/>
      <point x="754" y="278"/>
      <point x="754" y="371" type="curve" smooth="yes"/>
      <point x="754" y="440"/>
      <point x="701" y="483"/>
      <point x="616" y="483" type="curve" smooth="yes"/>
      <point x="468" y="483"/>
      <point x="354" y="348"/>
      <point x="354" y="183" type="curve" smooth="yes"/>
      <point x="354" y="65"/>
      <point x="405" y="-12"/>
    </contour>
    <contour>
      <point x="509" y="257" type="curve"/>
      <point x="519" y="326"/>
      <point x="544" y="363"/>
      <point x="580" y="363" type="curve" smooth="yes"/>
      <point x="595" y="363"/>
      <point x="605" y="354"/>
      <point x="605" y="340" type="curve" smooth="yes"/>
      <point x="605" y="310"/>
      <point x="572" y="281"/>
    </contour>
  </outline>
</glyph>
<glyph name="Tbar" format="2">
  <advance width="578"/>
  <unicode hex="0166"/>
  <outline>
    <contour>
      <point x="488" y="300" type="line"/>
      <point x="317" y="296" type="line"/>
      <point x="88" y="297" type="line"/>
      <point x="80" y="239" type="line"/>
      <point x="91" y="229" type="line"/>
      <point x="291" y="230" type="line"/>
      <point x="498" y="230" type="line"/>
      <point x="503" y="285" type="line"/>
    </contour>
    <component base="T"/>
  </outline>
</glyph>
<glyph name="tbar" format="2">
  <advance width="331"/>
  <unicode hex="0167"/>
  <outline>
    <contour>
      <point x="192" y="296" type="line"/>
      <point x="192" y="296" type="line"/>
      <point x="-7" y="297" type="line"/>
      <point x="-15" y="239" type="line"/>
      <point x="-4" y="229" type="line"/>
      <point x="166" y="230" type="line"/>
      <point x="333" y="230" type="line"/>
      <point x="338" y="285" type="line"/>
      <point x="323" y="300" type="line"/>
    </contour>
    <component base="t"/>
  </outline>
</glyph>
<glyph name="Uogonek" format="2">
  <advance width="605"/>
  <unicode hex="0172"/>
  <outline>
    <contour>
      <point x="59" y="650"/>
      <point x="59" y="650" type="curve"/>
      <point x="38" y="561" type="line"/>
      <point x="40" y="557" type="line"/>
      <point x="40" y="557"/>
      <point x="58" y="559"/>
      <point x="68" y="559" type="curve" smooth="yes"/>
      <point x="90" y="559"/>
      <point x="93" y="550"/>
      <point x="88" y="505" type="curve" smooth="yes"/>
      <point x="50" y="199" type="line" smooth="yes"/>
      <point x="48" y="185"/>
      <point x="47" y="172"/>
      <point x="47" y="159" type="curve" smooth="yes"/>
      <point x="47" y="43"/>
      <point x="120" y="-12"/>
      <point x="274" y="-12" type="curve" smooth="yes"/>
      <point x="310" y="-12"/>
      <point x="344" y="-7"/>
      <point x="370" y="1" type="curve"/>
      <point x="396" y="59" type="line"/>
      <point x="275" y="-58"/>
      <point x="243" y="-104"/>
      <point x="243" y="-151" type="curve" smooth="yes"/>
      <point x="243" y="-208"/>
      <point x="290" y="-241"/>
      <point x="370" y="-241" type="curve"/>
      <point x="395" y="-232"/>
      <point x="439" y="-203"/>
      <point x="484" y="-167" type="curve"/>
      <point x="456" y="-120" type="line"/>
      <point x="433" y="-135"/>
      <point x="412" y="-143"/>
      <point x="397" y="-143" type="curve" smooth="yes"/>
      <point x="382" y="-143"/>
      <point x="372" y="-134"/>
      <point x="372" y="-117" type="curve" smooth="yes"/>
      <point x="372" y="-32"/>
      <point x="530" y="47"/>
      <point x="554" y="234" type="curve" smooth="yes"/>
      <point x="589" y="516" type="line" smooth="yes"/>
      <point x="592" y="540"/>
      <point x="598" y="546"/>
      <point x="640" y="560" type="curve"/>
      <point x="659" y="650" type="line"/>
      <point x="659" y="650"/>
      <point x="577" y="647"/>
      <point x="516" y="647" type="curve" smooth="yes"/>
      <point x="481" y="647"/>
      <point x="400" y="650"/>
      <point x="400" y="650" type="curve"/>
      <point x="378" y="561" type="line"/>
      <point x="381" y="557" type="line"/>
      <point x="381" y="557"/>
      <point x="393" y="559"/>
      <point x="402" y="559" type="curve" smooth="yes"/>
      <point x="421" y="559"/>
      <point x="425" y="547"/>
      <point x="420" y="505" type="curve"/>
      <point x="420" y="505"/>
      <point x="392" y="265"/>
      <point x="384" y="203" type="curve" smooth="yes"/>
      <point x="375" y="139"/>
      <point x="354" y="115"/>
      <point x="308" y="115" type="curve" smooth="yes"/>
      <point x="268" y="115"/>
      <point x="248" y="141"/>
      <point x="249" y="192" type="curve" smooth="yes"/>
      <point x="249" y="197"/>
      <point x="250" y="210"/>
      <point x="251" y="220" type="curve"/>
      <point x="292" y="509" type="line" smooth="yes"/>
      <point x="296" y="541"/>
      <point x="310" y="554"/>
      <point x="344" y="558" type="curve"/>
      <point x="365" y="651" type="line"/>
      <point x="365" y="651"/>
      <point x="271" y="647"/>
      <point x="233" y="647" type="curve" smooth="yes"/>
      <point x="155" y="647"/>
    </contour>
  </outline>
</glyph>
<glyph name="Schwa" format="2">
  <advance width="630"/>
  <unicode hex="018F"/>
  <anchor x="286" y="0" name="bottom"/>
  <anchor x="365" y="647" name="top"/>
  <outline>
    <contour>
      <point x="274" y="-12" type="curve" smooth="yes"/>
      <point x="472" y="-12"/>
      <point x="606" y="112"/>
      <point x="631" y="317" type="curve" smooth="yes"/>
      <point x="656" y="525"/>
      <point x="549" y="659"/>
      <point x="354" y="659" type="curve" smooth="yes"/>
      <point x="265" y="659"/>
      <point x="190" y="634"/>
      <point x="68" y="557" type="curve"/>
      <point x="86" y="477" type="line"/>
      <point x="99" y="470" type="line"/>
      <point x="153" y="494"/>
      <point x="227" y="512"/>
      <point x="286" y="512" type="curve" smooth="yes"/>
      <point x="394" y="512"/>
      <point x="421" y="462"/>
      <point x="402" y="302" type="curve" smooth="yes"/>
      <point x="386" y="171"/>
      <point x="354" y="114"/>
      <point x="297" y="114" type="curve" smooth="yes"/>
      <point x="243" y="114"/>
      <point x="229" y="165"/>
      <point x="244" y="303" type="curve"/>
      <point x="16" y="318" type="line"/>
      <point x="-8" y="104"/>
      <point x="81" y="-12"/>
    </contour>
    <contour>
      <point x="49" y="237" type="line"/>
      <point x="497" y="256" type="line"/>
      <point x="507" y="336" type="line"/>
      <point x="28" y="336" type="line"/>
      <point x="16" y="314" type="line"/>
    </contour>
  </outline>
</glyph>
<glyph name="Ohorn" format="2">
  <advance width="666"/>
  <unicode hex="01A0"/>
  <anchor x="286" y="0" name="bottom"/>
  <anchor x="295" y="647" name="top"/>
  <outline>
    <contour>
      <point x="564" y="745" type="curve"/>
      <point x="559" y="731" type="line"/>
      <point x="573" y="718"/>
      <point x="581" y="698"/>
      <point x="581" y="680" type="curve" smooth="yes"/>
      <point x="581" y="653"/>
      <point x="564" y="631"/>
      <point x="537" y="631" type="curve" smooth="yes"/>
      <point x="505" y="631"/>
      <point x="471" y="659"/>
      <point x="372" y="659" type="curve"/>
      <point x="592" y="562" type="line"/>
      <point x="654" y="562"/>
      <point x="734" y="640"/>
      <point x="734" y="711" type="curve" smooth="yes"/>
      <point x="734" y="758"/>
      <point x="706" y="789"/>
      <point x="660" y="789" type="curve" smooth="yes"/>
      <point x="635" y="789"/>
      <point x="598" y="772"/>
    </contour>
    <contour>
      <point x="310" y="114" type="curve" smooth="yes"/>
      <point x="267" y="114"/>
      <point x="247" y="152"/>
      <point x="247" y="234" type="curve" smooth="yes"/>
      <point x="247" y="438"/>
      <point x="275" y="522"/>
      <point x="342" y="522" type="curve" smooth="yes"/>
      <point x="386" y="522"/>
      <point x="407" y="484"/>
      <point x="407" y="402" type="curve" smooth="yes"/>
      <point x="407" y="197"/>
      <point x="379" y="114"/>
    </contour>
    <contour>
      <point x="283" y="-12" type="curve" smooth="yes"/>
      <point x="512" y="-12"/>
      <point x="638" y="141"/>
      <point x="638" y="398" type="curve" smooth="yes"/>
      <point x="638" y="571"/>
      <point x="541" y="659"/>
      <point x="372" y="659" type="curve" smooth="yes"/>
      <point x="140" y="659"/>
      <point x="18" y="513"/>
      <point x="18" y="256" type="curve" smooth="yes"/>
      <point x="18" y="82"/>
      <point x="118" y="-12"/>
    </contour>
  </outline>
</glyph>
<glyph name="ohorn" format="2">
  <advance width="509"/>
  <unicode hex="01A1"/>
  <outline>
    <contour>
      <point x="198" y="-12" type="curve" smooth="yes"/>
      <point x="361" y="-12"/>
      <point x="468" y="110"/>
      <point x="468" y="295" type="curve" smooth="yes"/>
      <point x="468" y="330"/>
      <point x="460" y="361"/>
      <point x="447" y="387" type="curve"/>
      <point x="516" y="392"/>
      <point x="589" y="461"/>
      <point x="589" y="523" type="curve" smooth="yes"/>
      <point x="589" y="563"/>
      <point x="571" y="595"/>
      <point x="539" y="608" type="curve" smooth="yes"/>
      <point x="529" y="612"/>
      <point x="517" y="614"/>
      <point x="504" y="614" type="curve" smooth="yes"/>
      <point x="478" y="614"/>
      <point x="443" y="597"/>
      <point x="412" y="570" type="curve"/>
      <point x="409" y="556" type="line"/>
      <point x="427" y="541"/>
      <point x="438" y="519"/>
      <point x="438" y="500" type="curve" smooth="yes"/>
      <point x="438" y="473"/>
      <point x="426" y="458"/>
      <point x="406" y="458" type="curve" smooth="yes"/>
      <point x="377" y="458"/>
      <point x="348" y="484"/>
      <point x="279" y="484" type="curve" smooth="yes"/>
      <point x="122" y="484"/>
      <point x="19" y="365"/>
      <point x="19" y="184" type="curve" smooth="yes"/>
      <point x="19" y="163"/>
      <point x="20" y="144"/>
      <point x="24" y="126" type="curve" smooth="yes"/>
      <point x="42" y="37"/>
      <point x="103" y="-12"/>
    </contour>
    <contour>
      <point x="236" y="95" type="curve" smooth="yes"/>
      <point x="209" y="95"/>
      <point x="197" y="126"/>
      <point x="197" y="195" type="curve" smooth="yes"/>
      <point x="197" y="299"/>
      <point x="217" y="364"/>
      <point x="249" y="364" type="curve" smooth="yes"/>
      <point x="277" y="364"/>
      <point x="287" y="339"/>
      <point x="287" y="267" type="curve" smooth="yes"/>
      <point x="287" y="146"/>
      <point x="272" y="95"/>
    </contour>
  </outline>
</glyph>
<glyph name="Uhorn" format="2">
  <advance width="649"/>
  <unicode hex="01AF"/>
  <anchor x="296" y="0" name="bottom"/>
  <anchor x="355" y="647" name="top"/>
  <outline>
    <contour>
      <point x="532" y="647" type="curve"/>
      <point x="589" y="516" type="line"/>
      <point x="594" y="554"/>
      <point x="599" y="568"/>
      <point x="663" y="604" type="curve" smooth="yes"/>
      <point x="729" y="645"/>
      <point x="750" y="680"/>
      <point x="750" y="744" type="curve" smooth="yes"/>
      <point x="750" y="791"/>
      <point x="722" y="822"/>
      <point x="676" y="822" type="curve" smooth="yes"/>
      <point x="650" y="822"/>
      <point x="613" y="805"/>
      <point x="580" y="778" type="curve"/>
      <point x="575" y="764" type="line"/>
      <point x="588" y="749"/>
      <point x="595" y="727"/>
      <point x="595" y="706" type="curve" smooth="yes"/>
      <point x="595" y="667"/>
      <point x="578" y="647"/>
    </contour>
    <contour>
      <point x="251" y="220" type="curve"/>
      <point x="292" y="509" type="line"/>
      <point x="296" y="541"/>
      <point x="310" y="554"/>
      <point x="344" y="558" type="curve"/>
      <point x="365" y="651" type="line"/>
      <point x="365" y="651"/>
      <point x="271" y="647"/>
      <point x="233" y="647" type="curve" smooth="yes"/>
      <point x="155" y="647"/>
      <point x="59" y="650"/>
      <point x="59" y="650" type="curve"/>
      <point x="38" y="561" type="line"/>
      <point x="40" y="557" type="line"/>
      <point x="40" y="557"/>
      <point x="58" y="559"/>
      <point x="68" y="559" type="curve" smooth="yes"/>
      <point x="90" y="559"/>
      <point x="93" y="550"/>
      <point x="88" y="505" type="curve" smooth="yes"/>
      <point x="50" y="199" type="line" smooth="yes"/>
      <point x="48" y="185"/>
      <point x="47" y="172"/>
      <point x="47" y="159" type="curve" smooth="yes"/>
      <point x="47" y="43"/>
      <point x="120" y="-12"/>
      <point x="274" y="-12" type="curve" smooth="yes"/>
      <point x="442" y="-12"/>
      <point x="532" y="68"/>
      <point x="554" y="234" type="curve" smooth="yes"/>
      <point x="589" y="516" type="line"/>
      <point x="532" y="647" type="line"/>
      <point x="497" y="647"/>
      <point x="400" y="650"/>
      <point x="400" y="650" type="curve"/>
      <point x="378" y="561" type="line"/>
      <point x="381" y="557" type="line"/>
      <point x="381" y="557"/>
      <point x="393" y="559"/>
      <point x="402" y="559" type="curve" smooth="yes"/>
      <point x="421" y="559"/>
      <point x="425" y="547"/>
      <point x="420" y="505" type="curve"/>
      <point x="420" y="505"/>
      <point x="392" y="265"/>
      <point x="384" y="203" type="curve"/>
      <point x="375" y="139"/>
      <point x="354" y="115"/>
      <point x="308" y="115" type="curve" smooth="yes"/>
      <point x="268" y="115"/>
      <point x="248" y="141"/>
      <point x="249" y="192" type="curve" smooth="yes"/>
      <point x="249" y="198"/>
      <point x="250" y="211"/>
    </contour>
  </outline>
</glyph>
<glyph name="uhorn" format="2">
  <advance width="531"/>
  <unicode hex="01B0"/>
  <anchor x="237" y="0" name="bottom"/>
  <anchor x="295" y="472" name="top"/>
  <outline>
    <contour>
      <point x="365" y="474" type="curve"/>
      <point x="468" y="414" type="line"/>
      <point x="530" y="432"/>
      <point x="578" y="480"/>
      <point x="578" y="521" type="curve" smooth="yes"/>
      <point x="578" y="561"/>
      <point x="560" y="593"/>
      <point x="528" y="606" type="curve" smooth="yes"/>
      <point x="518" y="610"/>
      <point x="506" y="612"/>
      <point x="493" y="612" type="curve" smooth="yes"/>
      <point x="467" y="612"/>
      <point x="432" y="595"/>
      <point x="401" y="568" type="curve"/>
      <point x="398" y="554" type="line"/>
      <point x="416" y="543"/>
      <point x="427" y="529"/>
      <point x="427" y="516" type="curve" smooth="yes"/>
      <point x="427" y="492"/>
      <point x="410" y="476"/>
    </contour>
    <contour>
      <point x="174" y="-9" type="curve"/>
      <point x="214" y="19"/>
      <point x="252" y="80"/>
      <point x="293" y="175" type="curve"/>
      <point x="318" y="169" type="line"/>
      <point x="359" y="435" type="line"/>
      <point x="295" y="255"/>
      <point x="246" y="157"/>
      <point x="222" y="157" type="curve" smooth="yes"/>
      <point x="211" y="157"/>
      <point x="209" y="164"/>
      <point x="209" y="179" type="curve" smooth="yes"/>
      <point x="209" y="197"/>
      <point x="237" y="301"/>
      <point x="282" y="453" type="curve"/>
      <point x="266" y="473" type="line"/>
      <point x="175" y="466"/>
      <point x="90" y="461"/>
      <point x="43" y="461" type="curve"/>
      <point x="31" y="379" type="line"/>
      <point x="59" y="379" type="line" smooth="yes"/>
      <point x="82" y="379"/>
      <point x="92" y="369"/>
      <point x="92" y="346" type="curve" smooth="yes"/>
      <point x="92" y="298"/>
      <point x="35" y="149"/>
      <point x="35" y="98" type="curve" smooth="yes"/>
      <point x="35" y="31"/>
      <point x="86" y="-9"/>
    </contour>
    <contour>
      <point x="323" y="-12" type="curve" smooth="yes"/>
      <point x="380" y="-12"/>
      <point x="425" y="21"/>
      <point x="535" y="143" type="curve"/>
      <point x="515" y="191" type="line"/>
      <point x="492" y="195" type="line"/>
      <point x="482" y="187"/>
      <point x="471" y="179"/>
      <point x="461" y="174" type="curve"/>
      <point x="457" y="178" type="line"/>
      <point x="472" y="257"/>
      <point x="501" y="370"/>
      <point x="527" y="453" type="curve"/>
      <point x="512" y="473" type="line"/>
      <point x="365" y="474" type="line"/>
      <point x="345" y="462" type="line"/>
      <point x="324" y="297" type="line"/>
      <point x="313" y="221" type="line"/>
      <point x="276" y="69"/>
      <point x="272" y="51"/>
      <point x="272" y="36" type="curve" smooth="yes"/>
      <point x="272" y="4"/>
      <point x="289" y="-12"/>
    </contour>
  </outline>
</glyph>
<glyph name="Ezh" format="2">
  <advance width="592"/>
  <unicode hex="01B7"/>
  <anchor x="268" y="0" name="bottom"/>
  <anchor x="358" y="647" name="top"/>
  <outline>
    <contour>
      <point x="212" y="-12" type="curve" smooth="yes"/>
      <point x="448" y="-12"/>
      <point x="569" y="66"/>
      <point x="569" y="219" type="curve" smooth="yes"/>
      <point x="569" y="327"/>
      <point x="486" y="377"/>
      <point x="295" y="386" type="curve"/>
      <point x="223" y="347" type="line"/>
      <point x="209" y="285" type="line"/>
      <point x="220" y="271" type="line"/>
      <point x="309" y="270"/>
      <point x="343" y="251"/>
      <point x="343" y="204" type="curve" smooth="yes"/>
      <point x="343" y="149"/>
      <point x="311" y="121"/>
      <point x="250" y="121" type="curve" smooth="yes"/>
      <point x="190" y="121"/>
      <point x="169" y="149"/>
      <point x="178" y="217" type="curve"/>
      <point x="64" y="210" type="line"/>
      <point x="48" y="195" type="line"/>
      <point x="14" y="43" type="line"/>
      <point x="24" y="23" type="line"/>
      <point x="68" y="2"/>
      <point x="143" y="-12"/>
    </contour>
    <contour>
      <point x="223" y="347" type="line"/>
      <point x="366" y="347" type="line"/>
      <point x="608" y="583" type="line"/>
      <point x="591" y="647" type="line"/>
      <point x="298" y="647" type="line"/>
      <point x="127" y="658" type="line"/>
      <point x="113" y="647" type="line"/>
      <point x="98" y="552"/>
      <point x="83" y="474"/>
      <point x="72" y="431" type="curve"/>
      <point x="209" y="439" type="line"/>
      <point x="224" y="499"/>
      <point x="238" y="510"/>
      <point x="291" y="510" type="curve" smooth="yes"/>
      <point x="463" y="510" type="line"/>
      <point x="486" y="607" type="line"/>
    </contour>
  </outline>
</glyph>
<glyph name="Aringacute" format="2">
  <advance width="661"/>
  <unicode hex="01FA"/>
  <outline>
    <contour>
      <point x="593" y="153" type="curve" smooth="yes"/>
      <point x="579" y="261"/>
      <point x="531" y="646"/>
      <point x="531" y="646" type="curve"/>
      <point x="517" y="658" type="line"/>
      <point x="250" y="642" type="line"/>
      <point x="39" y="140" type="line" smooth="yes"/>
      <point x="26" y="109"/>
      <point x="7" y="91"/>
      <point x="-16" y="85" type="curve"/>
      <point x="-33" y="-2" type="line"/>
      <point x="-33" y="-2"/>
      <point x="36" y="-1"/>
      <point x="97" y="-1" type="curve" smooth="yes"/>
      <point x="156" y="-1"/>
      <point x="247" y="-4"/>
      <point x="247" y="-4" type="curve"/>
      <point x="265" y="79" type="line"/>
      <point x="258" y="89" type="line"/>
      <point x="231" y="89" type="line" smooth="yes"/>
      <point x="215" y="89"/>
      <point x="208" y="93"/>
      <point x="208" y="104" type="curve" smooth="yes"/>
      <point x="208" y="110"/>
      <point x="210" y="118"/>
      <point x="214" y="131" type="curve" smooth="yes"/>
      <point x="227" y="175" type="line"/>
      <point x="227" y="175"/>
      <point x="286" y="180"/>
      <point x="304" y="180" type="curve" smooth="yes"/>
      <point x="312" y="180"/>
      <point x="377" y="178"/>
      <point x="377" y="178" type="curve"/>
      <point x="377" y="139" type="line" smooth="yes"/>
      <point x="377" y="131"/>
      <point x="377" y="125"/>
      <point x="377" y="121" type="curve" smooth="yes"/>
      <point x="377" y="98"/>
      <point x="367" y="93"/>
      <point x="311" y="87" type="curve"/>
      <point x="295" y="3" type="line"/>
      <point x="302" y="-6" type="line"/>
      <point x="302" y="-6"/>
      <point x="397" y="-1"/>
      <point x="490" y="-1" type="curve" smooth="yes"/>
      <point x="544" y="-1"/>
      <point x="628" y="-3"/>
      <point x="628" y="-3" type="curve"/>
      <point x="646" y="76" type="line"/>
      <point x="640" y="86" type="line"/>
      <point x="613" y="90"/>
      <point x="599" y="107"/>
    </contour>
    <contour>
      <point x="274" y="301" type="line"/>
      <point x="339" y="478" type="line"/>
      <point x="361" y="478" type="line"/>
      <point x="371" y="303" type="line"/>
      <point x="350" y="302"/>
      <point x="337" y="301"/>
      <point x="322" y="301" type="curve" smooth="yes"/>
    </contour>
    <contour>
      <point x="380.6" y="678.8000000000001" type="curve" smooth="yes"/>
      <point x="449.90000000000003" y="678.8000000000001"/>
      <point x="492.2" y="734.6"/>
      <point x="492.2" y="791.3000000000001" type="curve" smooth="yes"/>
      <point x="492.2" y="830.9"/>
      <point x="470.6" y="867.8000000000001"/>
      <point x="412.1" y="867.8000000000001" type="curve" smooth="yes"/>
      <point x="347.3" y="867.8000000000001"/>
      <point x="302.3" y="820.1"/>
      <point x="302.3" y="758.9" type="curve" smooth="yes"/>
      <point x="302.3" y="711.2"/>
      <point x="329.3" y="678.8000000000001"/>
    </contour>
    <contour>
      <point x="395.0" y="741.8000000000001" type="curve" smooth="yes"/>
      <point x="382.4" y="741.8000000000001"/>
      <point x="365.3" y="748.1"/>
      <point x="365.3" y="769.7" type="curve" smooth="yes"/>
      <point x="365.3" y="788.6"/>
      <point x="376.1" y="803.0"/>
      <point x="398.6" y="803.0" type="curve" smooth="yes"/>
      <point x="418.40000000000003" y="803.0"/>
      <point x="429.2" y="793.1"/>
      <point x="429.2" y="776.0" type="curve" smooth="yes"/>
      <point x="429.2" y="748.1"/>
      <point x="406.70000000000005" y="741.8000000000001"/>
    </contour>
    <contour>
      <point x="552.3" y="924.7" type="curve"/>
      <point x="558.6" y="939.1" type="line"/>
      <point x="526.2" y="1036.3000000000002" type="line"/>
      <point x="511.8" y="1040.8000000000002" type="line"/>
      <point x="511.8" y="1040.8000000000002"/>
      <point x="398.4" y="992.2"/>
      <point x="287.7" y="950.8000000000001" type="curve"/>
      <point x="306.6" y="886.9" type="line"/>
      <point x="323.7" y="875.2" type="line"/>
      <point x="435.3" y="903.1"/>
      <point x="552.3" y="924.7"/>
    </contour>
  </outline>
</glyph>
<glyph name="aringacute" format="2">
  <advance width="528"/>
  <unicode hex="01FB"/>
  <outline>
    <contour>
      <point x="446" y="154" type="curve"/>
      <point x="442" y="157" type="line"/>
      <point x="453" y="224"/>
      <point x="475" y="332"/>
      <point x="501" y="449" type="curve"/>
      <point x="493" y="472" type="line"/>
      <point x="359" y="484" type="line"/>
      <point x="340" y="472" type="line"/>
      <point x="335" y="452" type="line"/>
      <point x="263" y="472" type="line"/>
      <point x="140" y="472"/>
      <point x="9" y="303"/>
      <point x="9" y="145" type="curve" smooth="yes"/>
      <point x="9" y="46"/>
      <point x="65" y="-12"/>
      <point x="160" y="-12" type="curve"/>
      <point x="201" y="17"/>
      <point x="238" y="64"/>
      <point x="293" y="158" type="curve"/>
      <point x="303" y="158" type="line"/>
      <point x="285" y="83"/>
      <point x="278" y="51"/>
      <point x="278" y="36" type="curve" smooth="yes"/>
      <point x="278" y="4"/>
      <point x="295" y="-12"/>
      <point x="329" y="-12" type="curve" smooth="yes"/>
      <point x="386" y="-12"/>
      <point x="431" y="21"/>
      <point x="541" y="143" type="curve"/>
      <point x="521" y="191" type="line"/>
      <point x="498" y="195" type="line"/>
      <point x="469" y="167"/>
      <point x="453" y="154"/>
    </contour>
    <contour>
      <point x="206" y="143" type="curve" smooth="yes"/>
      <point x="198" y="143"/>
      <point x="192" y="171"/>
      <point x="192" y="209" type="curve" smooth="yes"/>
      <point x="192" y="282"/>
      <point x="214" y="367"/>
      <point x="233" y="367" type="curve" smooth="yes"/>
      <point x="254" y="367"/>
      <point x="280" y="358"/>
      <point x="307" y="341" type="curve"/>
      <point x="280" y="245"/>
      <point x="228" y="143"/>
    </contour>
    <contour>
      <point x="288.6" y="505.80000000000007" type="curve" smooth="yes"/>
      <point x="357.90000000000003" y="505.80000000000007"/>
      <point x="400.2" y="561.6"/>
      <point x="400.2" y="618.3000000000001" type="curve" smooth="yes"/>
      <point x="400.2" y="657.9"/>
      <point x="378.6" y="694.8000000000001"/>
      <point x="320.1" y="694.8000000000001" type="curve" smooth="yes"/>
      <point x="255.3" y="694.8000000000001"/>
      <point x="210.3" y="647.1"/>
      <point x="210.3" y="585.9" type="curve" smooth="yes"/>
      <point x="210.3" y="538.2"/>
      <point x="237.3" y="505.80000000000007"/>
    </contour>
    <contour>
      <point x="303.0" y="568.8000000000001" type="curve" smooth="yes"/>
      <point x="290.4" y="568.8000000000001"/>
      <point x="273.3" y="575.1"/>
      <point x="273.3" y="596.7" type="curve" smooth="yes"/>
      <point x="273.3" y="615.6"/>
      <point x="284.1" y="630.0"/>
      <point x="306.6" y="630.0" type="curve" smooth="yes"/>
      <point x="326.40000000000003" y="630.0"/>
      <point x="337.2" y="620.1"/>
      <point x="337.2" y="603.0" type="curve" smooth="yes"/>
      <point x="337.2" y="575.1"/>
      <point x="314.70000000000005" y="568.8000000000001"/>
    </contour>
    <contour>
      <point x="460.3" y="751.7" type="curve"/>
      <point x="466.6" y="766.1" type="line"/>
      <point x="434.2" y="863.3000000000001" type="line"/>
      <point x="419.8" y="867.8000000000001" type="line"/>
      <point x="419.8" y="867.8000000000001"/>
      <point x="306.4" y="819.2"/>
      <point x="195.7" y="777.8000000000001" type="curve"/>
      <point x="214.60000000000002" y="713.9" type="line"/>
      <point x="231.7" y="702.2" type="line"/>
      <point x="343.3" y="730.1"/>
      <point x="460.3" y="751.7"/>
    </contour>
  </outline>
</glyph>
<glyph name="jdotless" format="2">
  <advance width="300"/>
  <unicode hex="0237"/>
  <anchor x="121" y="0" name="bottom"/>
  <anchor x="179" y="472" name="top"/>
  <outline>
    <contour>
      <point x="208" y="14" type="curve" smooth="yes"/>
      <point x="252" y="306"/>
      <point x="289" y="453"/>
      <point x="289" y="453" type="curve"/>
      <point x="273" y="473" type="line"/>
      <point x="273" y="473"/>
      <point x="139" y="461"/>
      <point x="50" y="461" type="curve"/>
      <point x="38" y="379" type="line"/>
      <point x="66" y="379" type="line" smooth="yes"/>
      <point x="89" y="379"/>
      <point x="99" y="369"/>
      <point x="99" y="346" type="curve" smooth="yes"/>
      <point x="99" y="317"/>
      <point x="50" y="33"/>
      <point x="50" y="33" type="curve"/>
      <point x="35" y="-86"/>
      <point x="12" y="-134"/>
      <point x="-60" y="-190" type="curve"/>
      <point x="-64" y="-205" type="line"/>
      <point x="-22" y="-248" type="line"/>
      <point x="106" y="-190"/>
      <point x="195" y="-88"/>
    </contour>
  </outline>
</glyph>
<glyph name="ezh" format="2">
  <advance width="427"/>
  <unicode hex="0292"/>
  <anchor x="182" y="0" name="bottom"/>
  <anchor x="250" y="472" name="top"/>
  <outline>
    <contour>
      <point x="51" y="-243" type="curve" smooth="yes"/>
      <point x="206" y="-243"/>
      <point x="377" y="-115"/>
      <point x="377" y="7" type="curve" smooth="yes"/>
      <point x="377" y="84"/>
      <point x="309" y="141"/>
      <point x="158" y="172" type="curve"/>
      <point x="77" y="164" type="line"/>
      <point x="57" y="65" type="line"/>
      <point x="72" y="51" type="line"/>
      <point x="140" y="42"/>
      <point x="177" y="20"/>
      <point x="177" y="-25" type="curve" smooth="yes"/>
      <point x="177" y="-73"/>
      <point x="134" y="-103"/>
      <point x="68" y="-103" type="curve" smooth="yes"/>
      <point x="27" y="-103"/>
      <point x="-6" y="-91"/>
      <point x="-37" y="-64" type="curve"/>
      <point x="-60" y="-82" type="line"/>
      <point x="-87" y="-189"/>
      <point x="-50" y="-243"/>
    </contour>
    <contour>
      <point x="152" y="104" type="line"/>
      <point x="462" y="426" type="line"/>
      <point x="459" y="444" type="line"/>
      <point x="390" y="508" type="line"/>
      <point x="364" y="479" type="line" smooth="yes"/>
      <point x="348" y="461"/>
      <point x="333" y="455"/>
      <point x="301" y="455" type="curve" smooth="yes"/>
      <point x="257" y="455"/>
      <point x="183" y="466"/>
      <point x="98" y="484" type="curve"/>
      <point x="55" y="473" type="line"/>
      <point x="49" y="431"/>
      <point x="33" y="354"/>
      <point x="10" y="257" type="curve"/>
      <point x="83" y="262" type="line"/>
      <point x="100" y="315"/>
      <point x="125" y="332"/>
      <point x="184" y="331" type="curve" smooth="yes"/>
      <point x="232" y="330" type="line"/>
      <point x="77" y="164" type="line"/>
    </contour>
  </outline>
</glyph>
<glyph name="primemod" format="2">
  <advance width="171"/>
  <unicode hex="02B9"/>
  <outline>
    <contour>
      <point x="215" y="647" type="curve"/>
      <point x="208" y="659" type="line"/>
      <point x="73" y="645" type="line"/>
      <point x="71" y="594"/>
      <point x="64" y="495"/>
      <point x="52" y="407" type="curve"/>
      <point x="70" y="401" type="line"/>
      <point x="147" y="426" type="line"/>
      <point x="175" y="508"/>
      <point x="203" y="600"/>
    </contour>
  </outline>
</glyph>
<glyph name="commaturnedmod" format="2">
  <advance width="261"/>
  <unicode hex="02BB"/>
  <outline>
    <contour>
      <point x="249" y="396" type="curve"/>
      <point x="251" y="411" type="line"/>
      <point x="230" y="430"/>
      <point x="216" y="462"/>
      <point x="216" y="490" type="curve" smooth="yes"/>
      <point x="216" y="525"/>
      <point x="238" y="566"/>
      <point x="273" y="595" type="curve"/>
      <point x="271" y="620" type="line"/>
      <point x="210" y="661" type="line"/>
      <point x="114" y="597"/>
      <point x="58" y="518"/>
      <point x="58" y="445" type="curve" smooth="yes"/>
      <point x="58" y="387"/>
      <point x="94" y="345"/>
      <point x="142" y="345" type="curve" smooth="yes"/>
      <point x="174" y="345"/>
      <point x="212" y="363"/>
    </contour>
  </outline>
</glyph>
<glyph name="ringhalfleft" format="2">
  <advance width="296"/>
  <unicode hex="02BF"/>
  <outline>
    <contour>
      <point x="245" y="542" type="curve"/>
      <point x="245" y="612" type="line"/>
      <point x="224" y="612"/>
      <point x="208" y="627"/>
      <point x="208" y="648" type="curve" smooth="yes"/>
      <point x="208" y="669"/>
      <point x="221" y="680"/>
      <point x="245" y="680" type="curve"/>
      <point x="245" y="752" type="line"/>
      <point x="183" y="752"/>
      <point x="139" y="707"/>
      <point x="139" y="645" type="curve" smooth="yes"/>
      <point x="139" y="580"/>
      <point x="179" y="542"/>
    </contour>
  </outline>
</glyph>
<glyph name="verticallinemod" format="2">
  <advance width="300"/>
  <unicode hex="02C8"/>
  <outline>
    <contour>
      <point x="118" y="463" type="line"/>
      <point x="238" y="463" type="line"/>
      <point x="260" y="647" type="line"/>
      <point x="140" y="647" type="line"/>
    </contour>
  </outline>
</glyph>
<glyph name="verticallinelowmod" format="2">
  <advance width="300"/>
  <unicode hex="02CC"/>
  <outline>
    <contour>
      <point x="33" y="-230" type="line"/>
      <point x="153" y="-230" type="line"/>
      <point x="175" y="-46" type="line"/>
      <point x="55" y="-46" type="line"/>
    </contour>
  </outline>
</glyph>
<glyph name="gravecomb" format="2">
  <unicode hex="0300"/>
  <anchor x="202" y="472" name="_top"/>
  <anchor x="181" y="760" name="top"/>
  <outline>
    <contour>
      <point x="29" y="659" type="line"/>
      <point x="31" y="642" type="line"/>
      <point x="31" y="642"/>
      <point x="139" y="586"/>
      <point x="242" y="525" type="curve"/>
      <point x="264" y="532" type="line"/>
      <point x="305" y="593" type="line"/>
      <point x="211" y="674"/>
      <point x="118" y="760"/>
      <point x="118" y="760" type="curve"/>
      <point x="101" y="760" type="line"/>
    </contour>
  </outline>
</glyph>
<glyph name="tildecomb" format="2">
  <unicode hex="0303"/>
  <anchor x="222" y="472" name="_top"/>
  <anchor x="238" y="663" name="top"/>
  <outline>
    <contour>
      <point x="95" y="525" type="line"/>
      <point x="111" y="525" type="line"/>
      <point x="111" y="525"/>
      <point x="159" y="583"/>
      <point x="183" y="583" type="curve" smooth="yes"/>
      <point x="212" y="583"/>
      <point x="295" y="549"/>
      <point x="329" y="549" type="curve"/>
      <point x="346" y="553" type="line"/>
      <point x="439" y="668" type="line"/>
      <point x="441" y="684" type="line"/>
      <point x="388" y="738" type="line"/>
      <point x="372" y="738" type="line"/>
      <point x="372" y="738"/>
      <point x="323" y="680"/>
      <point x="300" y="680" type="curve" smooth="yes"/>
      <point x="271" y="680"/>
      <point x="188" y="714"/>
      <point x="154" y="714" type="curve"/>
      <point x="137" y="710" type="line"/>
      <point x="44" y="595" type="line"/>
      <point x="42" y="579" type="line"/>
    </contour>
  </outline>
</glyph>
<glyph name="macroncomb" format="2">
  <unicode hex="0304"/>
  <anchor x="227" y="472" name="_top"/>
  <anchor x="254" y="693" name="top"/>
  <outline>
    <contour>
      <point x="402" y="675" type="line"/>
      <point x="393" y="693" type="line"/>
      <point x="393" y="693"/>
      <point x="321" y="687"/>
      <point x="272" y="687" type="curve" smooth="yes"/>
      <point x="215" y="687"/>
      <point x="123" y="688"/>
      <point x="123" y="688" type="curve"/>
      <point x="91" y="579" type="line"/>
      <point x="105" y="564" type="line"/>
      <point x="105" y="564"/>
      <point x="177" y="565"/>
      <point x="234" y="565" type="curve" smooth="yes"/>
      <point x="370" y="566" type="line"/>
    </contour>
  </outline>
</glyph>
<glyph name="dotaccentcomb" format="2">
  <unicode hex="0307"/>
  <anchor x="221" y="472" name="_top"/>
  <anchor x="247" y="652" name="top"/>
  <outline>
    <contour>
      <point x="227" y="529" type="curve" smooth="yes"/>
      <point x="295" y="529"/>
      <point x="341" y="576"/>
      <point x="341" y="647" type="curve" smooth="yes"/>
      <point x="341" y="698"/>
      <point x="312" y="728"/>
      <point x="259" y="728" type="curve" smooth="yes"/>
      <point x="190" y="728"/>
      <point x="144" y="681"/>
      <point x="144" y="609" type="curve" smooth="yes"/>
      <point x="144" y="558"/>
      <point x="173" y="529"/>
    </contour>
  </outline>
</glyph>
<glyph name="hookabovecomb" format="2">
  <unicode hex="0309"/>
  <anchor x="203" y="472" name="_top"/>
  <anchor x="244" y="800" name="top"/>
  <outline>
    <contour>
      <point x="106" y="725" type="curve"/>
      <point x="127" y="684" type="line"/>
      <point x="127" y="684"/>
      <point x="168" y="711"/>
      <point x="199" y="711" type="curve" smooth="yes"/>
      <point x="223" y="711"/>
      <point x="235" y="700"/>
      <point x="235" y="681" type="curve" smooth="yes"/>
      <point x="235" y="655"/>
      <point x="215" y="630"/>
      <point x="168" y="600" type="curve"/>
      <point x="215" y="512" type="line"/>
      <point x="291" y="555" type="line"/>
      <point x="267" y="602" type="line"/>
      <point x="331" y="654"/>
      <point x="346" y="676"/>
      <point x="346" y="712" type="curve" smooth="yes"/>
      <point x="346" y="768"/>
      <point x="300" y="800"/>
      <point x="222" y="800" type="curve"/>
      <point x="171" y="782"/>
      <point x="106" y="725"/>
    </contour>
  </outline>
</glyph>
<glyph name="hungarumlautcomb" format="2">
  <unicode hex="030B"/>
  <anchor x="204" y="472" name="_top"/>
  <anchor x="239" y="754" name="top"/>
  <outline>
    <contour>
      <point x="278" y="677" type="curve"/>
      <point x="275" y="691" type="line"/>
      <point x="191" y="754" type="line"/>
      <point x="177" y="749" type="line"/>
      <point x="177" y="749"/>
      <point x="124" y="656"/>
      <point x="69" y="566" type="curve"/>
      <point x="118" y="528" type="line"/>
      <point x="137" y="528" type="line"/>
      <point x="205" y="604"/>
      <point x="278" y="677"/>
    </contour>
    <contour>
      <point x="441" y="677" type="curve"/>
      <point x="438" y="691" type="line"/>
      <point x="354" y="754" type="line"/>
      <point x="340" y="749" type="line"/>
      <point x="340" y="749"/>
      <point x="287" y="656"/>
      <point x="232" y="566" type="curve"/>
      <point x="281" y="528" type="line"/>
      <point x="300" y="528" type="line"/>
      <point x="368" y="604"/>
      <point x="441" y="677"/>
    </contour>
  </outline>
</glyph>
<glyph name="breveinvertedcomb" format="2">
  <unicode hex="0311"/>
  <anchor x="240" y="472" name="_top"/>
  <anchor x="270" y="720" name="top"/>
  <outline>
    <contour>
      <point x="260" y="585" type="curve" smooth="yes"/>
      <point x="306" y="585"/>
      <point x="344" y="566"/>
      <point x="358" y="519" type="curve"/>
      <point x="385" y="522" type="line"/>
      <point x="432" y="580" type="line"/>
      <point x="418" y="648"/>
      <point x="369" y="720"/>
      <point x="264" y="720" type="curve" smooth="yes"/>
      <point x="165" y="720"/>
      <point x="105" y="656"/>
      <point x="75" y="588" type="curve"/>
      <point x="110" y="522" type="line"/>
      <point x="135" y="511" type="line"/>
      <point x="161" y="558"/>
      <point x="208" y="585"/>
    </contour>
  </outline>
</glyph>
<glyph name="horncomb" format="2">
  <unicode hex="031B"/>
  <anchor x="142" y="472" name="_topright"/>
  <anchor x="142" y="472" name="topright"/>
  <outline>
    <contour>
      <point x="46" y="469" type="line"/>
      <point x="162" y="463"/>
      <point x="238" y="518"/>
      <point x="238" y="607" type="curve" smooth="yes"/>
      <point x="238" y="662"/>
      <point x="205" y="699"/>
      <point x="157" y="699" type="curve" smooth="yes"/>
      <point x="127" y="699"/>
      <point x="95" y="684"/>
      <point x="61" y="655" type="curve"/>
      <point x="58" y="641" type="line"/>
      <point x="76" y="626"/>
      <point x="87" y="605"/>
      <point x="87" y="584" type="curve" smooth="yes"/>
      <point x="87" y="558"/>
      <point x="70" y="541"/>
      <point x="46" y="541" type="curve"/>
    </contour>
  </outline>
</glyph>
<glyph name="dotbelowcomb" format="2">
  <unicode hex="0323"/>
  <anchor x="82" y="0" name="_bottom"/>
  <anchor x="53" y="-232" name="bottom"/>
  <outline>
    <contour>
      <point x="50" y="-232" type="curve" smooth="yes"/>
      <point x="118" y="-232"/>
      <point x="164" y="-185"/>
      <point x="164" y="-114" type="curve" smooth="yes"/>
      <point x="164" y="-63"/>
      <point x="135" y="-33"/>
      <point x="82" y="-33" type="curve" smooth="yes"/>
      <point x="13" y="-33"/>
      <point x="-33" y="-80"/>
      <point x="-33" y="-152" type="curve" smooth="yes"/>
      <point x="-33" y="-203"/>
      <point x="-4" y="-232"/>
    </contour>
  </outline>
</glyph>
<glyph name="commaaccentcomb" format="2">
  <unicode hex="0326"/>
  <anchor x="143" y="0" name="_bottom"/>
  <anchor x="100" y="-345" name="bottom"/>
  <outline>
    <contour>
      <point x="45" y="-78" type="curve"/>
      <point x="42" y="-92" type="line"/>
      <point x="59" y="-111"/>
      <point x="71" y="-141"/>
      <point x="71" y="-168" type="curve" smooth="yes"/>
      <point x="71" y="-204"/>
      <point x="46" y="-246"/>
      <point x="7" y="-274" type="curve"/>
      <point x="7" y="-299" type="line"/>
      <point x="65" y="-345" type="line"/>
      <point x="168" y="-286"/>
      <point x="232" y="-205"/>
      <point x="232" y="-135" type="curve" smooth="yes"/>
      <point x="232" y="-74"/>
      <point x="198" y="-34"/>
      <point x="147" y="-34" type="curve" smooth="yes"/>
      <point x="119" y="-34"/>
      <point x="81" y="-50"/>
    </contour>
  </outline>
</glyph>
<glyph name="strokeshortcomb" format="2">
  <unicode hex="0335"/>
  <anchor x="258" y="257" name="_center"/>
  <outline>
    <contour>
      <point x="49" y="210" type="line"/>
      <point x="49" y="210"/>
      <point x="175" y="211"/>
      <point x="258" y="211" type="curve" smooth="yes"/>
      <point x="464" y="211" type="line"/>
      <point x="476" y="283" type="line"/>
      <point x="461" y="303" type="line"/>
      <point x="461" y="303"/>
      <point x="357" y="298"/>
      <point x="295" y="298" type="curve" smooth="yes"/>
      <point x="204" y="298"/>
      <point x="54" y="299"/>
      <point x="54" y="299" type="curve"/>
      <point x="38" y="223" type="line"/>
    </contour>
  </outline>
</glyph>
<glyph name="tonos" format="2">
  <advance width="399"/>
  <unicode hex="0384"/>
  <anchor x="211" y="472" name="_top"/>
  <anchor x="267" y="759" name="_topleft"/>
  <outline>
    <contour>
      <point x="386" y="700" type="line"/>
      <point x="380" y="716" type="line"/>
      <point x="270" y="773" type="line"/>
      <point x="255" y="765" type="line"/>
      <point x="231" y="691"/>
      <point x="204" y="618"/>
      <point x="175" y="547" type="curve"/>
      <point x="239" y="511" type="line"/>
      <point x="263" y="515" type="line"/>
    </contour>
  </outline>
</glyph>
<glyph name="dieresistonos" format="2">
  <advance width="509"/>
  <unicode hex="0385"/>
  <anchor x="285" y="472" name="_top"/>
  <outline>
    <contour>
      <point x="461" y="564" type="curve" smooth="yes"/>
      <point x="509" y="564"/>
      <point x="538" y="595"/>
      <point x="538" y="643" type="curve" smooth="yes"/>
      <point x="538" y="689"/>
      <point x="512" y="715"/>
      <point x="467" y="715" type="curve" smooth="yes"/>
      <point x="419" y="715"/>
      <point x="389" y="684"/>
      <point x="389" y="636" type="curve" smooth="yes"/>
      <point x="389" y="589"/>
      <point x="414" y="564"/>
    </contour>
    <contour>
      <point x="141" y="564" type="curve" smooth="yes"/>
      <point x="189" y="564"/>
      <point x="219" y="595"/>
      <point x="219" y="643" type="curve" smooth="yes"/>
      <point x="219" y="689"/>
      <point x="193" y="715"/>
      <point x="148" y="715" type="curve" smooth="yes"/>
      <point x="100" y="715"/>
      <point x="70" y="684"/>
      <point x="70" y="636" type="curve" smooth="yes"/>
      <point x="70" y="589"/>
      <point x="95" y="564"/>
    </contour>
    <contour>
      <point x="393" y="716" type="line"/>
      <point x="384" y="729" type="line"/>
      <point x="274" y="759" type="line"/>
      <point x="262" y="751" type="line"/>
      <point x="254" y="678"/>
      <point x="244" y="609"/>
      <point x="231" y="540" type="curve"/>
      <point x="297" y="519" type="line"/>
      <point x="317" y="527" type="line"/>
    </contour>
  </outline>
</glyph>
<glyph name="Gamma" format="2">
  <advance width="543"/>
  <unicode hex="0393"/>
  <outline>
    <contour>
      <point x="-17" y="-10" type="line"/>
      <point x="42" y="-4"/>
      <point x="127" y="0"/>
      <point x="186" y="0" type="curve" smooth="yes"/>
      <point x="223" y="0"/>
      <point x="299" y="-2"/>
      <point x="347" y="-3" type="curve"/>
      <point x="373" y="105" type="line"/>
      <point x="359" y="123" type="line"/>
      <point x="342" y="118"/>
      <point x="319" y="115"/>
      <point x="302" y="115" type="curve" smooth="yes"/>
      <point x="269" y="115"/>
      <point x="263" y="127"/>
      <point x="269" y="175" type="curve"/>
      <point x="321" y="500" type="line" smooth="yes"/>
      <point x="325" y="525"/>
      <point x="331" y="527"/>
      <point x="362" y="527" type="curve" smooth="yes"/>
      <point x="415" y="527"/>
      <point x="424" y="521"/>
      <point x="424" y="482" type="curve" smooth="yes"/>
      <point x="424" y="468"/>
      <point x="418" y="431"/>
      <point x="403" y="357" type="curve"/>
      <point x="538" y="365" type="line"/>
      <point x="552" y="452"/>
      <point x="575" y="569"/>
      <point x="593" y="643" type="curve"/>
      <point x="582" y="659" type="line"/>
      <point x="532" y="652"/>
      <point x="419" y="647"/>
      <point x="311" y="647" type="curve" smooth="yes"/>
      <point x="244" y="647"/>
      <point x="142" y="649"/>
      <point x="82" y="650" type="curve"/>
      <point x="64" y="571" type="line"/>
      <point x="74" y="557" type="line"/>
      <point x="80" y="558"/>
      <point x="93" y="559"/>
      <point x="100" y="559" type="curve" smooth="yes"/>
      <point x="121" y="559"/>
      <point x="125" y="549"/>
      <point x="119" y="505" type="curve" smooth="yes"/>
      <point x="77" y="170" type="line" smooth="yes"/>
      <point x="70" y="111"/>
      <point x="53" y="90"/>
      <point x="3" y="82" type="curve"/>
    </contour>
  </outline>
</glyph>
<glyph name="Delta" format="2">
  <advance width="657"/>
  <unicode hex="0394"/>
  <outline>
    <contour>
      <point x="-15" y="13" type="line"/>
      <point x="-5" y="0" type="line"/>
      <point x="607" y="0" type="line"/>
      <point x="617" y="7" type="line"/>
      <point x="584" y="176"/>
      <point x="546" y="450"/>
      <point x="527" y="659" type="curve"/>
      <point x="517" y="659" type="line"/>
      <point x="257" y="642" type="line"/>
    </contour>
    <contour>
      <point x="383" y="146" type="line"/>
      <point x="375" y="134" type="line"/>
      <point x="293" y="131" type="line"/>
      <point x="215" y="134" type="line"/>
      <point x="210" y="142" type="line"/>
      <point x="340" y="497" type="line"/>
      <point x="362" y="497" type="line"/>
    </contour>
  </outline>
</glyph>
<glyph name="Lambda" format="2">
  <advance width="658"/>
  <unicode hex="039B"/>
  <outline>
    <contour>
      <point x="303" y="-6" type="line"/>
      <point x="303" y="-6"/>
      <point x="396" y="-1"/>
      <point x="488" y="-1" type="curve" smooth="yes"/>
      <point x="542" y="-1"/>
      <point x="625" y="-3"/>
      <point x="625" y="-3" type="curve"/>
      <point x="643" y="76" type="line"/>
      <point x="637" y="86" type="line"/>
      <point x="607" y="89"/>
      <point x="594" y="108"/>
      <point x="588" y="153" type="curve" smooth="yes"/>
      <point x="574" y="261"/>
      <point x="528" y="646"/>
      <point x="528" y="646" type="curve"/>
      <point x="514" y="658" type="line"/>
      <point x="257" y="642" type="line"/>
      <point x="40" y="140" type="line"/>
      <point x="28" y="109"/>
      <point x="8" y="91"/>
      <point x="-15" y="85" type="curve"/>
      <point x="-33" y="-2" type="line"/>
      <point x="-33" y="-2"/>
      <point x="36" y="-1"/>
      <point x="96" y="-1" type="curve" smooth="yes"/>
      <point x="155" y="-1"/>
      <point x="246" y="-4"/>
      <point x="246" y="-4" type="curve"/>
      <point x="263" y="79" type="line"/>
      <point x="257" y="89" type="line"/>
      <point x="231" y="89" type="line"/>
      <point x="209" y="89"/>
      <point x="203" y="91"/>
      <point x="203" y="103" type="curve" smooth="yes"/>
      <point x="203" y="111"/>
      <point x="205" y="118"/>
      <point x="209" y="131" type="curve"/>
      <point x="339" y="478" type="line"/>
      <point x="360" y="478" type="line"/>
      <point x="378" y="139" type="line"/>
      <point x="378" y="135"/>
      <point x="378" y="130"/>
      <point x="378" y="127" type="curve" smooth="yes"/>
      <point x="378" y="95"/>
      <point x="372" y="94"/>
      <point x="312" y="87" type="curve"/>
      <point x="296" y="3" type="line"/>
    </contour>
  </outline>
</glyph>
<glyph name="Xi" format="2">
  <advance width="625"/>
  <unicode hex="039E"/>
  <outline>
    <contour>
      <point x="35" y="-3" type="line"/>
      <point x="291" y="1" type="line"/>
      <point x="524" y="-3" type="line"/>
      <point x="548" y="18" type="line"/>
      <point x="554" y="72"/>
      <point x="567" y="151"/>
      <point x="580" y="203" type="curve"/>
      <point x="575" y="210" type="line"/>
      <point x="457" y="201" type="line"/>
      <point x="444" y="170"/>
      <point x="418" y="157"/>
      <point x="369" y="157" type="curve" smooth="yes"/>
      <point x="231" y="157" type="line" smooth="yes"/>
      <point x="183" y="157"/>
      <point x="160" y="173"/>
      <point x="157" y="213" type="curve"/>
      <point x="39" y="203" type="line"/>
      <point x="32" y="197" type="line"/>
      <point x="29" y="136"/>
      <point x="24" y="62"/>
      <point x="19" y="18" type="curve"/>
    </contour>
    <contour>
      <point x="130" y="238" type="line"/>
      <point x="170" y="241"/>
      <point x="254" y="246"/>
      <point x="296" y="246" type="curve" smooth="yes"/>
      <point x="346" y="246"/>
      <point x="424" y="243"/>
      <point x="471" y="242" type="curve"/>
      <point x="507" y="396" type="line"/>
      <point x="496" y="415" type="line"/>
      <point x="455" y="411"/>
      <point x="373" y="406"/>
      <point x="329" y="406" type="curve" smooth="yes"/>
      <point x="280" y="406"/>
      <point x="201" y="408"/>
      <point x="154" y="410" type="curve"/>
      <point x="118" y="257" type="line"/>
    </contour>
    <contour>
      <point x="62" y="440" type="curve"/>
      <point x="187" y="445" type="line"/>
      <point x="206" y="483"/>
      <point x="221" y="491"/>
      <point x="277" y="491" type="curve" smooth="yes"/>
      <point x="384" y="491" type="line" smooth="yes"/>
      <point x="459" y="491"/>
      <point x="461" y="481"/>
      <point x="459" y="440" type="curve"/>
      <point x="595" y="449" type="line"/>
      <point x="609" y="523"/>
      <point x="622" y="580"/>
      <point x="640" y="642" type="curve"/>
      <point x="629" y="658" type="line"/>
      <point x="535" y="650"/>
      <point x="447" y="646"/>
      <point x="403" y="646" type="curve"/>
      <point x="121" y="650" type="line"/>
      <point x="98" y="629" type="line"/>
      <point x="88" y="566"/>
      <point x="78" y="514"/>
    </contour>
  </outline>
</glyph>
<glyph name="Sigma" format="2">
  <advance width="614"/>
  <unicode hex="03A3"/>
  <outline>
    <contour>
      <point x="588" y="247" type="curve"/>
      <point x="583" y="254" type="line"/>
      <point x="466" y="245" type="line"/>
      <point x="448" y="180"/>
      <point x="422" y="157"/>
      <point x="366" y="157" type="curve" smooth="yes"/>
      <point x="237" y="157" type="line"/>
      <point x="407" y="321" type="line"/>
      <point x="411" y="350" type="line"/>
      <point x="312" y="539" type="line"/>
      <point x="408" y="539" type="line" smooth="yes"/>
      <point x="468" y="539"/>
      <point x="490" y="507"/>
      <point x="484" y="428" type="curve"/>
      <point x="603" y="445" type="line"/>
      <point x="610" y="546"/>
      <point x="615" y="611"/>
      <point x="619" y="648" type="curve"/>
      <point x="609" y="659" type="line"/>
      <point x="543" y="652"/>
      <point x="486" y="648"/>
      <point x="433" y="648" type="curve" smooth="yes"/>
      <point x="106" y="647" type="line"/>
      <point x="81" y="590" type="line"/>
      <point x="231" y="302" type="line"/>
      <point x="1" y="81" type="line"/>
      <point x="25" y="-7" type="line"/>
      <point x="116" y="3" type="line"/>
      <point x="522" y="-3" type="line"/>
      <point x="544" y="19" type="line"/>
      <point x="550" y="67"/>
      <point x="569" y="160"/>
    </contour>
  </outline>
</glyph>
<glyph name="Upsilon" format="2">
  <advance width="620"/>
  <unicode hex="03A5"/>
  <anchor x="360" y="647" name="top"/>
  <anchor x="-91" y="647" name="topleft"/>
  <outline>
    <contour>
      <point x="401" y="178" type="line"/>
      <point x="424" y="366"/>
      <point x="526" y="500"/>
      <point x="640" y="494" type="curve"/>
      <point x="654" y="515" type="line"/>
      <point x="646" y="607" type="line"/>
      <point x="552" y="747"/>
      <point x="358" y="576"/>
      <point x="322" y="318" type="curve"/>
    </contour>
    <contour>
      <point x="76" y="-9" type="line"/>
      <point x="158" y="-4"/>
      <point x="242" y="0"/>
      <point x="275" y="0" type="curve" smooth="yes"/>
      <point x="301" y="0"/>
      <point x="384" y="-3"/>
      <point x="472" y="-6" type="curve"/>
      <point x="493" y="88" type="line"/>
      <point x="488" y="94" type="line"/>
      <point x="476" y="93"/>
      <point x="456" y="91"/>
      <point x="440" y="91" type="curve" smooth="yes"/>
      <point x="400" y="91"/>
      <point x="391" y="103"/>
      <point x="397" y="149" type="curve"/>
      <point x="431" y="426" type="line"/>
      <point x="237" y="426" type="line"/>
      <point x="206" y="171" type="line" smooth="yes"/>
      <point x="198" y="104"/>
      <point x="179" y="89"/>
      <point x="95" y="83" type="curve"/>
    </contour>
    <contour>
      <point x="208" y="187" type="curve"/>
      <point x="333" y="304" type="line"/>
      <point x="357" y="574"/>
      <point x="225" y="728"/>
      <point x="66" y="615" type="curve"/>
      <point x="35" y="515" type="line"/>
      <point x="42" y="494" type="line"/>
      <point x="166" y="496"/>
      <point x="231" y="375"/>
    </contour>
  </outline>
</glyph>
<glyph name="Phi" format="2">
  <advance width="801"/>
  <unicode hex="03A6"/>
  <outline>
    <contour>
      <point x="196" y="-35" type="line"/>
      <point x="280" y="-32"/>
      <point x="333" y="-30"/>
      <point x="364" y="-30" type="curve" smooth="yes"/>
      <point x="387" y="-30"/>
      <point x="449" y="-31"/>
      <point x="525" y="-34" type="curve"/>
      <point x="544" y="48" type="line"/>
      <point x="537" y="58" type="line"/>
      <point x="532" y="56"/>
      <point x="520" y="55"/>
      <point x="509" y="55" type="curve" smooth="yes"/>
      <point x="485" y="55"/>
      <point x="477" y="60"/>
      <point x="477" y="94" type="curve" smooth="yes"/>
      <point x="477" y="149"/>
      <point x="529" y="468"/>
      <point x="542" y="542" type="curve" smooth="yes"/>
      <point x="548" y="580"/>
      <point x="558" y="586"/>
      <point x="605" y="594" type="curve"/>
      <point x="623" y="682" type="line"/>
      <point x="528" y="679"/>
      <point x="475" y="677"/>
      <point x="454" y="677" type="curve" smooth="yes"/>
      <point x="401" y="677"/>
      <point x="349" y="677"/>
      <point x="296" y="677" type="curve"/>
      <point x="279" y="603" type="line"/>
      <point x="286" y="590" type="line"/>
      <point x="292" y="590"/>
      <point x="305" y="591"/>
      <point x="313" y="591" type="curve" smooth="yes"/>
      <point x="341" y="591"/>
      <point x="345" y="581"/>
      <point x="340" y="540" type="curve" smooth="yes"/>
      <point x="290" y="130" type="line" smooth="yes"/>
      <point x="283" y="75"/>
      <point x="270" y="60"/>
      <point x="214" y="48" type="curve"/>
    </contour>
    <contour>
      <point x="257" y="101" type="curve"/>
      <point x="342" y="101" type="line"/>
      <point x="355" y="203" type="line"/>
      <point x="293" y="203" type="line"/>
      <point x="243" y="205"/>
      <point x="217" y="245"/>
      <point x="217" y="312" type="curve" smooth="yes"/>
      <point x="217" y="401"/>
      <point x="247" y="448"/>
      <point x="307" y="448" type="curve"/>
      <point x="385" y="448" type="line"/>
      <point x="398" y="551" type="line"/>
      <point x="340" y="551" type="line"/>
      <point x="144" y="544"/>
      <point x="19" y="450"/>
      <point x="19" y="294" type="curve" smooth="yes"/>
      <point x="19" y="174"/>
      <point x="107" y="101"/>
    </contour>
    <contour>
      <point x="425" y="102" type="line"/>
      <point x="481" y="102" type="line"/>
      <point x="678" y="108"/>
      <point x="804" y="203"/>
      <point x="804" y="359" type="curve" smooth="yes"/>
      <point x="804" y="479"/>
      <point x="716" y="552"/>
      <point x="566" y="552" type="curve"/>
      <point x="481" y="552" type="line"/>
      <point x="468" y="449" type="line"/>
      <point x="530" y="449" type="line"/>
      <point x="579" y="447"/>
      <point x="605" y="408"/>
      <point x="605" y="342" type="curve" smooth="yes"/>
      <point x="605" y="254"/>
      <point x="576" y="204"/>
      <point x="516" y="204" type="curve"/>
      <point x="438" y="204" type="line"/>
    </contour>
  </outline>
</glyph>
